{"glyphs":{"0":{"ha":856,"x_min":86,"x_max":771,"o":"m 426 -14 q 413 0 413 -14 q 426 14 413 14 q 440 0 440 14 q 426 -14 440 -14 m 478 -10 q 464 4 464 -10 q 478 18 464 18 q 492 4 492 18 q 478 -10 492 -10 m 528 3 q 514 17 514 3 q 528 31 514 31 q 542 17 542 31 q 528 3 542 3 m 574 24 q 560 38 560 24 q 574 51 560 51 q 588 38 588 51 q 574 24 588 24 m 615 51 q 601 65 601 51 q 615 79 601 79 q 629 65 629 79 q 615 51 629 51 m 651 85 q 638 99 638 85 q 651 113 638 113 q 665 99 665 113 q 651 85 665 85 m 682 124 q 668 138 668 124 q 682 151 668 151 q 696 138 696 151 q 682 124 696 124 m 707 167 q 693 181 693 167 q 707 194 693 194 q 721 181 721 194 q 707 167 721 167 m 726 214 q 713 228 713 214 q 726 242 713 242 q 740 228 740 242 q 726 214 740 214 m 742 264 q 728 278 728 264 q 742 292 728 292 q 756 278 756 292 q 742 264 756 264 m 751 315 q 738 329 738 315 q 751 343 738 343 q 765 329 765 343 q 751 315 765 315 m 756 367 q 742 381 742 367 q 756 394 742 394 q 769 381 769 394 q 756 367 769 367 m 375 -10 q 361 4 361 -10 q 375 18 361 18 q 389 4 389 18 q 375 -10 389 -10 m 325 3 q 311 17 311 3 q 325 31 311 31 q 339 17 339 31 q 325 3 339 3 m 279 24 q 265 38 265 24 q 279 51 265 51 q 293 38 293 51 q 279 24 293 24 m 239 51 q 225 65 225 51 q 239 79 225 79 q 253 65 253 79 q 239 51 253 51 m 204 86 q 190 100 190 86 q 204 114 190 114 q 218 100 218 114 q 204 86 218 86 m 174 125 q 160 139 160 125 q 174 153 160 153 q 188 139 188 153 q 174 125 188 125 m 149 168 q 135 182 135 168 q 149 196 135 196 q 163 182 163 196 q 149 168 163 168 m 129 215 q 115 229 115 215 q 129 243 115 243 q 143 229 143 243 q 129 215 143 215 m 114 265 q 100 279 100 265 q 114 293 100 293 q 128 279 128 293 q 114 265 128 265 m 104 317 q 90 331 90 317 q 104 344 90 344 q 118 331 118 344 q 104 317 118 317 m 100 368 q 86 382 86 368 q 100 396 86 396 q 114 382 114 396 q 100 368 114 368 m 428 826 q 442 813 442 826 q 428 799 442 799 q 414 813 414 799 q 428 826 414 826 m 479 822 q 493 808 493 822 q 479 794 493 794 q 465 808 465 794 q 479 822 465 822 m 529 810 q 543 796 543 810 q 529 782 543 782 q 515 796 515 782 q 529 810 515 810 m 575 789 q 589 775 589 789 q 575 761 589 761 q 561 775 561 761 q 575 789 561 789 m 617 761 q 631 747 631 761 q 617 733 631 733 q 603 747 603 733 q 617 761 603 761 m 653 728 q 667 714 667 728 q 653 700 667 700 q 639 714 639 700 q 653 728 639 728 m 683 689 q 697 675 697 689 q 683 661 697 661 q 669 675 669 661 q 683 689 669 689 m 708 646 q 722 632 722 646 q 708 618 722 618 q 694 632 694 618 q 708 646 694 646 m 728 599 q 742 585 742 599 q 728 571 742 571 q 714 585 714 571 q 728 599 714 599 m 743 549 q 757 535 757 549 q 743 521 757 521 q 729 535 729 521 q 743 549 729 549 m 753 497 q 767 483 767 497 q 753 469 767 469 q 739 483 739 469 q 753 497 739 497 m 757 446 q 771 432 771 446 q 757 418 771 418 q 743 432 743 418 q 757 446 743 446 m 376 822 q 390 808 390 822 q 376 794 390 794 q 363 808 363 794 q 376 822 363 822 m 326 810 q 340 796 340 810 q 326 782 340 782 q 313 796 313 782 q 326 810 313 810 m 281 789 q 294 775 294 789 q 281 761 294 761 q 267 775 267 761 q 281 789 267 789 m 240 761 q 254 747 254 761 q 240 733 254 733 q 226 747 226 733 q 240 761 226 761 m 206 726 q 219 713 219 726 q 206 699 219 699 q 192 713 192 699 q 206 726 192 726 m 175 688 q 189 674 189 688 q 175 660 189 660 q 161 674 161 660 q 175 688 161 688 m 150 644 q 164 631 164 644 q 150 617 164 617 q 136 631 136 617 q 150 644 136 644 m 131 597 q 144 583 144 597 q 131 569 144 569 q 117 583 117 569 q 131 597 117 597 m 115 547 q 129 533 129 547 q 115 519 129 519 q 101 533 101 519 q 115 547 101 547 m 106 496 q 119 482 119 496 q 106 468 119 468 q 92 482 92 468 q 106 496 92 496 m 101 444 q 115 431 115 444 q 101 417 115 417 q 88 431 88 417 q 101 444 88 444 z "},"1":{"ha":549,"x_min":86,"x_max":525,"o":"m 317 0 q 303 14 303 0 q 317 28 303 28 q 331 14 331 28 q 317 0 331 0 m 365 0 q 351 14 351 0 q 365 28 351 28 q 379 14 379 28 q 365 0 379 0 m 219 0 q 206 14 206 0 q 219 28 206 28 q 233 14 233 28 q 219 0 233 0 m 268 0 q 254 14 254 0 q 268 28 254 28 q 282 14 282 28 q 268 0 282 0 m 511 0 q 497 14 497 0 q 511 28 497 28 q 525 14 525 28 q 511 0 525 0 m 414 0 q 400 14 400 0 q 414 28 400 28 q 428 14 428 28 q 414 0 428 0 m 463 0 q 449 14 449 0 q 463 28 449 28 q 476 14 476 28 q 463 0 476 0 m 122 0 q 108 14 108 0 q 122 28 108 28 q 136 14 136 28 q 122 0 136 0 m 171 0 q 157 14 157 0 q 171 28 157 28 q 185 14 185 28 q 171 0 185 0 m 317 50 q 303 64 303 50 q 317 78 303 78 q 331 64 331 78 q 317 50 331 50 m 317 100 q 303 114 303 100 q 317 128 303 128 q 331 114 331 128 q 317 100 331 100 m 317 150 q 303 164 303 150 q 317 178 303 178 q 331 164 331 178 q 317 150 331 150 m 317 200 q 303 214 303 200 q 317 228 303 228 q 331 214 331 228 q 317 200 331 200 m 317 250 q 303 264 303 250 q 317 278 303 278 q 331 264 331 278 q 317 250 331 250 m 317 300 q 303 314 303 300 q 317 328 303 328 q 331 314 331 328 q 317 300 331 300 m 317 350 q 303 364 303 350 q 317 378 303 378 q 331 364 331 378 q 317 350 331 350 m 317 400 q 303 414 303 400 q 317 428 303 428 q 331 414 331 428 q 317 400 331 400 m 317 450 q 303 464 303 450 q 317 478 303 478 q 331 464 331 478 q 317 450 331 450 m 317 500 q 303 514 303 500 q 317 528 303 528 q 331 514 331 528 q 317 500 331 500 m 317 550 q 303 564 303 550 q 317 578 303 578 q 331 564 331 578 q 317 550 331 550 m 317 600 q 303 614 303 600 q 317 628 303 628 q 331 614 331 628 q 317 600 331 600 m 317 650 q 303 664 303 650 q 317 678 303 678 q 331 664 331 678 q 317 650 331 650 m 317 700 q 303 714 303 700 q 317 728 303 728 q 331 714 331 728 q 317 700 331 700 m 317 750 q 303 764 303 750 q 317 778 303 778 q 331 764 331 778 q 317 750 331 750 m 276 721 q 263 735 263 721 q 276 749 263 749 q 290 735 290 749 q 276 721 290 721 m 238 688 q 224 701 224 688 q 238 715 224 715 q 251 701 251 715 q 238 688 251 688 m 194 660 q 181 674 181 660 q 194 688 181 688 q 208 674 208 688 q 194 660 208 660 m 149 638 q 135 651 135 638 q 149 665 135 665 q 163 651 163 665 q 149 638 163 638 m 100 621 q 86 635 86 621 q 100 649 86 649 q 114 635 114 649 q 100 621 114 621 z "},"2":{"ha":715,"x_min":86,"x_max":651,"o":"m 118 654 q 104 668 104 654 q 118 682 104 682 q 132 668 132 682 q 118 654 132 654 m 153 689 q 139 703 139 689 q 153 717 139 717 q 167 703 167 717 q 153 689 167 689 m 194 721 q 181 735 181 721 q 194 749 181 749 q 208 735 208 749 q 194 721 208 721 m 242 744 q 228 758 228 744 q 242 772 228 772 q 256 758 256 772 q 242 744 256 744 m 290 761 q 276 775 276 761 q 290 789 276 789 q 304 775 304 789 q 290 761 304 761 m 340 771 q 326 785 326 771 q 340 799 326 799 q 354 785 354 799 q 340 771 354 771 m 392 771 q 378 785 378 771 q 392 799 378 799 q 406 785 406 799 q 392 771 406 771 m 443 763 q 429 776 429 763 q 443 790 429 790 q 457 776 457 790 q 443 763 457 763 m 493 743 q 479 757 479 743 q 493 771 479 771 q 507 757 507 771 q 493 743 507 743 m 538 713 q 524 726 524 713 q 538 740 524 740 q 551 726 551 740 q 538 713 551 713 m 574 672 q 560 686 560 672 q 574 700 560 700 q 588 686 588 700 q 574 672 588 672 m 594 624 q 581 638 581 624 q 594 651 581 651 q 608 638 608 651 q 594 624 608 624 m 601 569 q 588 583 588 569 q 601 597 588 597 q 615 583 615 597 q 601 569 615 569 m 594 517 q 581 531 581 517 q 594 544 581 544 q 608 531 608 544 q 594 517 608 517 m 572 471 q 558 485 558 471 q 572 499 558 499 q 586 485 586 499 q 572 471 586 471 m 538 435 q 524 449 524 435 q 538 463 524 463 q 551 449 551 463 q 538 435 551 435 m 494 406 q 481 419 481 406 q 494 433 481 433 q 508 419 508 433 q 494 406 508 406 m 449 382 q 435 396 435 382 q 449 410 435 410 q 463 396 463 410 q 449 382 463 382 m 400 361 q 386 375 386 361 q 400 389 386 389 q 414 375 414 389 q 400 361 414 361 m 350 340 q 336 354 336 340 q 350 368 336 368 q 364 354 364 368 q 350 340 364 340 m 301 317 q 288 331 288 317 q 301 344 288 344 q 315 331 315 344 q 301 317 315 317 m 251 289 q 238 303 238 289 q 251 317 238 317 q 265 303 265 317 q 251 289 265 289 m 206 253 q 192 267 192 253 q 206 281 192 281 q 219 267 219 281 q 206 253 219 253 m 168 208 q 154 222 154 208 q 168 236 154 236 q 182 222 182 236 q 168 208 182 208 m 139 160 q 125 174 125 160 q 139 188 125 188 q 153 174 153 188 q 139 160 153 160 m 118 111 q 104 125 104 111 q 118 139 104 139 q 132 125 132 139 q 118 111 132 111 m 107 61 q 93 75 93 61 q 107 89 93 89 q 121 75 121 89 q 107 61 121 61 m 100 10 q 86 24 86 10 q 100 38 86 38 q 114 24 114 38 q 100 10 114 10 m 150 10 q 136 24 136 10 q 150 38 136 38 q 164 24 164 38 q 150 10 164 10 m 199 10 q 185 24 185 10 q 199 38 185 38 q 213 24 213 38 q 199 10 213 10 m 246 10 q 232 24 232 10 q 246 38 232 38 q 260 24 260 38 q 246 10 260 10 m 296 10 q 282 24 282 10 q 296 38 282 38 q 310 24 310 38 q 296 10 310 10 m 344 10 q 331 24 331 10 q 344 38 331 38 q 358 24 358 38 q 344 10 358 10 m 393 10 q 379 24 379 10 q 393 38 379 38 q 407 24 407 38 q 393 10 407 10 m 443 10 q 429 24 429 10 q 443 38 429 38 q 457 24 457 38 q 443 10 457 10 m 492 10 q 478 24 478 10 q 492 38 478 38 q 506 24 506 38 q 492 10 506 10 m 539 10 q 525 24 525 10 q 539 38 525 38 q 553 24 553 38 q 539 10 553 10 m 589 10 q 575 24 575 10 q 589 38 575 38 q 603 24 603 38 q 589 10 603 10 m 638 10 q 624 24 624 10 q 638 38 624 38 q 651 24 651 38 q 638 10 651 10 z "},"3":{"ha":728,"x_min":58,"x_max":656,"o":"m 104 624 q 90 638 90 624 q 104 651 90 651 q 118 638 118 651 q 104 624 118 624 m 132 665 q 118 679 118 665 q 132 693 118 693 q 146 679 146 693 q 132 665 146 665 m 168 700 q 154 714 154 700 q 168 728 154 728 q 182 714 182 728 q 168 700 182 700 m 211 728 q 197 742 197 728 q 211 756 197 756 q 225 742 225 756 q 211 728 225 728 m 258 749 q 244 763 244 749 q 258 776 244 776 q 272 763 272 776 q 258 749 272 749 m 308 760 q 294 774 294 760 q 308 788 294 788 q 322 774 322 788 q 308 760 322 760 m 358 765 q 344 779 344 765 q 358 793 344 793 q 372 779 372 793 q 358 765 372 765 m 410 761 q 396 775 396 761 q 410 789 396 789 q 424 775 424 789 q 410 761 424 761 m 460 750 q 446 764 446 750 q 460 778 446 778 q 474 764 474 778 q 460 750 474 750 m 506 728 q 492 742 492 728 q 506 756 492 756 q 519 742 519 756 q 506 728 519 728 m 546 699 q 532 713 532 699 q 546 726 532 726 q 560 713 560 726 q 546 699 560 699 m 581 661 q 567 675 567 661 q 581 689 567 689 q 594 675 594 689 q 581 661 594 661 m 606 617 q 592 631 592 617 q 606 644 592 644 q 619 631 619 644 q 606 617 619 617 m 619 568 q 606 582 606 568 q 619 596 606 596 q 633 582 633 596 q 619 568 633 568 m 619 515 q 606 529 606 515 q 619 543 606 543 q 633 529 633 543 q 619 515 633 515 m 613 464 q 599 478 599 464 q 613 492 599 492 q 626 478 626 492 q 613 464 626 464 m 590 418 q 576 432 576 418 q 590 446 576 446 q 604 432 604 446 q 590 418 604 418 m 558 381 q 544 394 544 381 q 558 408 544 408 q 572 394 572 408 q 558 381 572 381 m 518 353 q 504 367 504 353 q 518 381 504 381 q 532 367 532 381 q 518 353 532 353 m 472 332 q 458 346 458 332 q 472 360 458 360 q 486 346 486 360 q 472 332 486 332 m 424 314 q 410 328 410 314 q 424 342 410 342 q 438 328 438 342 q 424 314 438 314 m 374 313 q 360 326 360 313 q 374 340 360 340 q 388 326 388 340 q 374 313 388 313 m 325 313 q 311 326 311 313 q 325 340 311 340 q 339 326 339 340 q 325 313 339 313 m 472 293 q 458 307 458 293 q 472 321 458 321 q 486 307 486 321 q 472 293 486 293 m 524 274 q 510 288 510 274 q 524 301 510 301 q 538 288 538 301 q 524 274 538 274 m 567 243 q 553 257 553 243 q 567 271 553 271 q 581 257 581 271 q 567 243 581 243 m 603 201 q 589 215 589 201 q 603 229 589 229 q 617 215 617 229 q 603 201 617 201 m 626 151 q 613 165 613 151 q 626 179 613 179 q 640 165 640 179 q 626 151 640 151 m 640 100 q 626 114 626 100 q 640 128 626 128 q 654 114 654 128 q 640 100 654 100 m 642 47 q 628 61 628 47 q 642 75 628 75 q 656 61 656 75 q 642 47 656 47 m 633 -4 q 619 10 619 -4 q 633 24 619 24 q 647 10 647 24 q 633 -4 647 -4 m 617 -54 q 603 -40 603 -54 q 617 -26 603 -26 q 631 -40 631 -26 q 617 -54 631 -54 m 590 -100 q 576 -86 576 -100 q 590 -72 576 -72 q 604 -86 604 -72 q 590 -100 604 -100 m 554 -137 q 540 -124 540 -137 q 554 -110 540 -110 q 568 -124 568 -110 q 554 -137 568 -137 m 510 -168 q 496 -154 496 -168 q 510 -140 496 -140 q 524 -154 524 -140 q 510 -168 524 -168 m 461 -189 q 447 -175 447 -189 q 461 -161 447 -161 q 475 -175 475 -161 q 461 -189 475 -189 m 411 -200 q 397 -186 397 -200 q 411 -172 397 -172 q 425 -186 425 -172 q 411 -200 425 -200 m 361 -204 q 347 -190 347 -204 q 361 -176 347 -176 q 375 -190 375 -176 q 361 -204 375 -204 m 311 -201 q 297 -187 297 -201 q 311 -174 297 -174 q 325 -187 325 -174 q 311 -201 325 -201 m 261 -193 q 247 -179 247 -193 q 261 -165 247 -165 q 275 -179 275 -165 q 261 -193 275 -193 m 211 -175 q 197 -161 197 -175 q 211 -147 197 -147 q 225 -161 225 -147 q 211 -175 225 -175 m 165 -150 q 151 -136 151 -150 q 165 -122 151 -122 q 179 -136 179 -122 q 165 -150 179 -150 m 126 -117 q 113 -103 113 -117 q 126 -89 113 -89 q 140 -103 140 -89 q 126 -117 140 -117 m 94 -78 q 81 -64 81 -78 q 94 -50 81 -50 q 108 -64 108 -50 q 94 -78 108 -78 m 72 -31 q 58 -17 58 -31 q 72 -3 58 -3 q 86 -17 86 -3 q 72 -31 86 -31 z "},"4":{"ha":738,"x_min":50,"x_max":710,"o":"m 549 -149 q 535 -135 535 -149 q 549 -121 535 -121 q 563 -135 563 -121 q 549 -149 563 -149 m 549 -99 q 535 -85 535 -99 q 549 -71 535 -71 q 563 -85 563 -71 q 549 -99 563 -99 m 549 -49 q 535 -35 535 -49 q 549 -21 535 -21 q 563 -35 563 -21 q 549 -49 563 -49 m 549 1 q 535 15 535 1 q 549 29 535 29 q 563 15 563 29 q 549 1 563 1 m 549 51 q 535 65 535 51 q 549 79 535 79 q 563 65 563 79 q 549 51 563 51 m 550 101 q 536 115 536 101 q 550 129 536 129 q 564 115 564 129 q 550 101 564 101 m 550 151 q 536 165 536 151 q 550 179 536 179 q 564 165 564 179 q 550 151 564 151 m 550 201 q 536 215 536 201 q 550 229 536 229 q 564 215 564 229 q 550 201 564 201 m 550 251 q 536 265 536 251 q 550 279 536 279 q 564 265 564 279 q 550 251 564 251 m 550 301 q 536 315 536 301 q 550 329 536 329 q 564 315 564 329 q 550 301 564 301 m 550 351 q 536 365 536 351 q 550 379 536 379 q 564 365 564 379 q 550 351 564 351 m 550 401 q 536 415 536 401 q 550 429 536 429 q 564 415 564 429 q 550 401 564 401 m 550 451 q 536 465 536 451 q 550 479 536 479 q 564 465 564 479 q 550 451 564 451 m 550 501 q 536 515 536 501 q 550 529 536 529 q 564 515 564 529 q 550 501 564 501 m 550 551 q 536 565 536 551 q 550 579 536 579 q 564 565 564 579 q 550 551 564 551 m 550 601 q 536 615 536 601 q 550 629 536 629 q 564 615 564 629 q 550 601 564 601 m 550 650 q 536 664 536 650 q 550 678 536 678 q 564 664 564 678 q 550 650 564 650 m 550 700 q 536 714 536 700 q 550 728 536 728 q 564 714 564 728 q 550 700 564 700 m 550 750 q 536 764 536 750 q 550 778 536 778 q 564 764 564 778 q 550 750 564 750 m 599 101 q 585 115 585 101 q 599 129 585 129 q 613 115 613 129 q 599 101 613 101 m 647 101 q 633 115 633 101 q 647 129 633 129 q 661 115 661 129 q 647 101 661 101 m 696 101 q 682 115 682 101 q 696 129 682 129 q 710 115 710 129 q 696 101 710 101 m 356 101 q 342 115 342 101 q 356 129 342 129 q 369 115 369 129 q 356 101 369 101 m 404 101 q 390 115 390 101 q 404 129 390 129 q 418 115 418 129 q 404 101 418 101 m 453 101 q 439 115 439 101 q 453 129 439 129 q 467 115 467 129 q 453 101 467 101 m 501 101 q 488 115 488 101 q 501 129 488 129 q 515 115 515 129 q 501 101 515 101 m 161 101 q 147 115 147 101 q 161 129 147 129 q 175 115 175 129 q 161 101 175 101 m 210 101 q 196 115 196 101 q 210 129 196 129 q 224 115 224 129 q 210 101 224 101 m 258 101 q 244 115 244 101 q 258 129 244 129 q 272 115 272 129 q 258 101 272 101 m 307 101 q 293 115 293 101 q 307 129 293 129 q 321 115 321 129 q 307 101 321 101 m 64 101 q 50 115 50 101 q 64 129 50 129 q 78 115 78 129 q 64 101 78 101 m 113 101 q 99 115 99 101 q 113 129 99 129 q 126 115 126 129 q 113 101 126 101 m 86 147 q 72 161 72 147 q 86 175 72 175 q 100 161 100 175 q 86 147 100 147 m 117 189 q 103 203 103 189 q 117 217 103 217 q 131 203 131 217 q 117 189 131 189 m 147 231 q 133 244 133 231 q 147 258 133 258 q 161 244 161 258 q 147 231 161 231 m 176 272 q 163 286 163 272 q 176 300 163 300 q 190 286 190 300 q 176 272 190 272 m 207 313 q 193 326 193 313 q 207 340 193 340 q 221 326 221 340 q 207 313 221 313 m 235 353 q 221 367 221 353 q 235 381 221 381 q 249 367 249 381 q 235 353 249 353 m 265 393 q 251 407 251 393 q 265 421 251 421 q 279 407 279 421 q 265 393 279 393 m 296 433 q 282 447 282 433 q 296 461 282 461 q 310 447 310 461 q 296 433 310 433 m 326 475 q 313 489 313 475 q 326 503 313 503 q 340 489 340 503 q 326 475 340 475 m 357 515 q 343 529 343 515 q 357 543 343 543 q 371 529 371 543 q 357 515 371 515 m 386 556 q 372 569 372 556 q 386 583 372 583 q 400 569 400 583 q 386 556 400 556 m 417 596 q 403 610 403 596 q 417 624 403 624 q 431 610 431 624 q 417 596 431 596 m 449 635 q 435 649 435 635 q 449 663 435 663 q 463 649 463 663 q 449 635 463 635 m 478 675 q 464 689 464 675 q 478 703 464 703 q 492 689 492 703 q 478 675 492 675 m 508 715 q 494 729 494 715 q 508 743 494 743 q 522 729 522 743 q 508 715 522 715 z "},"5":{"ha":763,"x_min":71,"x_max":703,"o":"m 576 336 q 563 350 563 336 q 576 364 563 364 q 590 350 590 364 q 576 336 590 336 m 617 299 q 603 313 603 299 q 617 326 603 326 q 631 313 631 326 q 617 299 631 299 m 647 253 q 633 267 633 253 q 647 281 633 281 q 661 267 661 281 q 647 253 661 253 m 671 203 q 657 217 657 203 q 671 231 657 231 q 685 217 685 231 q 671 203 685 203 m 685 150 q 671 164 671 150 q 685 178 671 178 q 699 164 699 178 q 685 150 699 150 m 689 97 q 675 111 675 97 q 689 125 675 125 q 703 111 703 125 q 689 97 703 97 m 683 44 q 669 58 669 44 q 683 72 669 72 q 697 58 697 72 q 683 44 697 44 m 669 -8 q 656 6 656 -8 q 669 19 656 19 q 683 6 683 19 q 669 -8 683 -8 m 644 -57 q 631 -43 631 -57 q 644 -29 631 -29 q 658 -43 658 -29 q 644 -57 658 -57 m 615 -101 q 601 -87 601 -101 q 615 -74 601 -74 q 629 -87 629 -74 q 615 -101 629 -101 m 575 -136 q 561 -122 561 -136 q 575 -108 561 -108 q 589 -122 589 -108 q 575 -136 589 -136 m 529 -165 q 515 -151 515 -165 q 529 -137 515 -137 q 543 -151 543 -137 q 529 -165 543 -165 m 481 -186 q 467 -172 467 -186 q 481 -158 467 -158 q 494 -172 494 -158 q 481 -186 494 -186 m 431 -197 q 417 -183 417 -197 q 431 -169 417 -169 q 444 -183 444 -169 q 431 -197 444 -197 m 381 -203 q 367 -189 367 -203 q 381 -175 367 -175 q 394 -189 394 -175 q 381 -203 394 -203 m 331 -199 q 317 -185 317 -199 q 331 -171 317 -171 q 344 -185 344 -171 q 331 -199 344 -199 m 281 -190 q 267 -176 267 -190 q 281 -162 267 -162 q 294 -176 294 -162 q 281 -190 294 -190 m 231 -172 q 217 -158 217 -172 q 231 -144 217 -144 q 244 -158 244 -144 q 231 -172 244 -172 m 185 -147 q 171 -133 171 -147 q 185 -119 171 -119 q 199 -133 199 -119 q 185 -147 199 -147 m 146 -114 q 132 -100 132 -114 q 146 -86 132 -86 q 160 -100 160 -86 q 146 -114 160 -114 m 111 -75 q 97 -61 97 -75 q 111 -47 97 -47 q 125 -61 125 -47 q 111 -75 125 -75 m 85 -28 q 71 -14 71 -28 q 85 0 71 0 q 99 -14 99 0 q 85 -28 99 -28 m 532 365 q 518 379 518 365 q 532 393 518 393 q 546 379 546 393 q 532 365 546 365 m 483 386 q 469 400 469 386 q 483 414 469 414 q 497 400 497 414 q 483 386 497 386 m 433 397 q 419 411 419 397 q 433 425 419 425 q 447 411 447 425 q 433 397 447 397 m 383 400 q 369 414 369 400 q 383 428 369 428 q 397 414 397 428 q 383 400 397 400 m 332 396 q 318 410 318 396 q 332 424 318 424 q 346 410 346 424 q 332 396 346 396 m 279 383 q 265 397 265 383 q 279 411 265 411 q 293 397 293 411 q 279 383 293 383 m 231 364 q 217 378 217 364 q 231 392 217 392 q 244 378 244 392 q 231 364 244 364 m 188 332 q 174 346 174 332 q 188 360 174 360 q 201 346 201 360 q 188 332 201 332 m 150 294 q 136 308 136 294 q 150 322 136 322 q 164 308 164 322 q 150 294 164 294 m 107 267 q 93 281 93 267 q 107 294 93 294 q 121 281 121 294 q 107 267 121 267 m 115 322 q 101 336 101 322 q 115 350 101 350 q 129 336 129 350 q 115 322 129 322 m 126 374 q 113 388 113 374 q 126 401 113 401 q 140 388 140 401 q 126 374 140 374 m 138 426 q 124 440 124 426 q 138 454 124 454 q 151 440 151 454 q 138 426 151 426 m 149 479 q 135 493 135 479 q 149 507 135 507 q 163 493 163 507 q 149 479 163 479 m 160 531 q 146 544 146 531 q 160 558 146 558 q 174 544 174 558 q 160 531 174 531 m 171 583 q 157 597 157 583 q 171 611 157 611 q 185 597 185 611 q 171 583 185 583 m 182 633 q 168 647 168 633 q 182 661 168 661 q 196 647 196 661 q 182 633 196 633 m 193 686 q 179 700 179 686 q 193 714 179 714 q 207 700 207 714 q 193 686 207 686 m 204 739 q 190 753 190 739 q 204 767 190 767 q 218 753 218 767 q 204 739 218 739 m 253 739 q 239 753 239 739 q 253 767 239 767 q 267 753 267 767 q 253 739 267 739 m 301 739 q 288 753 288 739 q 301 767 288 767 q 315 753 315 767 q 301 739 315 739 m 350 739 q 336 753 336 739 q 350 767 336 767 q 364 753 364 767 q 350 739 364 739 m 400 739 q 386 753 386 739 q 400 767 386 767 q 414 753 414 767 q 400 739 414 739 m 449 739 q 435 753 435 739 q 449 767 435 767 q 463 753 463 767 q 449 739 463 739 m 497 739 q 483 753 483 739 q 497 767 483 767 q 511 753 511 767 q 497 739 511 739 m 546 739 q 532 753 532 739 q 546 767 532 767 q 560 753 560 767 q 546 739 560 739 m 596 739 q 582 753 582 739 q 596 767 582 767 q 610 753 610 767 q 596 739 610 739 m 644 739 q 631 753 631 739 q 644 767 631 767 q 658 753 658 767 q 644 739 658 739 z "},"6":{"ha":840,"x_min":96,"x_max":771,"o":"m 747 239 q 733 253 733 239 q 747 267 733 267 q 761 253 761 267 q 747 239 761 239 m 731 186 q 717 200 717 186 q 731 214 717 214 q 744 200 744 214 q 731 186 744 186 m 706 138 q 692 151 692 138 q 706 165 692 165 q 719 151 719 165 q 706 138 719 138 m 676 93 q 663 107 663 93 q 676 121 663 121 q 690 107 690 121 q 676 93 690 93 m 636 58 q 622 72 622 58 q 636 86 622 86 q 650 72 650 86 q 636 58 650 58 m 590 29 q 576 43 576 29 q 590 57 576 57 q 604 43 604 57 q 590 29 604 29 m 542 8 q 528 22 528 8 q 542 36 528 36 q 556 22 556 36 q 542 8 556 8 m 492 -3 q 478 11 478 -3 q 492 25 478 25 q 506 11 506 25 q 492 -3 506 -3 m 442 -8 q 428 6 428 -8 q 442 19 428 19 q 456 6 456 19 q 442 -8 456 -8 m 392 -4 q 378 10 378 -4 q 392 24 378 24 q 406 10 406 24 q 392 -4 406 -4 m 342 4 q 328 18 328 4 q 342 32 328 32 q 356 18 356 32 q 342 4 356 4 m 292 22 q 278 36 278 22 q 292 50 278 50 q 306 36 306 50 q 292 22 306 22 m 246 47 q 232 61 232 47 q 246 75 232 75 q 260 61 260 75 q 246 47 260 47 m 207 81 q 193 94 193 81 q 207 108 193 108 q 221 94 221 108 q 207 81 221 81 m 172 119 q 158 133 158 119 q 172 147 158 147 q 186 133 186 147 q 172 119 186 119 m 146 167 q 132 181 132 167 q 146 194 132 194 q 160 181 160 194 q 146 167 160 167 m 757 292 q 743 306 743 292 q 757 319 743 319 q 771 306 771 319 q 757 292 771 292 m 757 347 q 743 361 743 347 q 757 375 743 375 q 771 361 771 375 q 757 347 771 347 m 747 400 q 733 414 733 400 q 747 428 733 428 q 761 414 761 428 q 747 400 761 400 m 729 451 q 715 465 715 451 q 729 479 715 479 q 743 465 743 479 q 729 451 743 451 m 700 499 q 686 513 686 499 q 700 526 686 526 q 714 513 714 526 q 700 499 714 499 m 664 542 q 650 556 650 542 q 664 569 650 569 q 678 556 678 569 q 664 542 678 542 m 619 576 q 606 590 606 576 q 619 604 606 604 q 633 590 633 604 q 619 576 633 576 m 571 603 q 557 617 557 603 q 571 631 557 631 q 585 617 585 631 q 571 603 585 603 m 519 621 q 506 635 506 621 q 519 649 506 649 q 533 635 533 649 q 519 621 533 621 m 467 629 q 453 643 453 629 q 467 657 453 657 q 481 643 481 657 q 467 629 481 629 m 415 629 q 401 643 401 629 q 415 657 401 657 q 429 643 429 657 q 415 629 429 629 m 365 622 q 351 636 351 622 q 365 650 351 650 q 379 636 379 650 q 365 622 379 622 m 317 607 q 303 621 303 607 q 317 635 303 635 q 331 621 331 635 q 317 607 331 607 m 272 583 q 258 597 258 583 q 272 611 258 611 q 286 597 286 611 q 272 583 286 583 m 229 551 q 215 565 215 551 q 229 579 215 579 q 243 565 243 579 q 229 551 243 551 m 189 518 q 175 532 175 518 q 189 546 175 546 q 203 532 203 546 q 189 518 203 518 m 160 471 q 146 485 146 471 q 160 499 146 499 q 174 485 174 499 q 160 471 174 471 m 126 219 q 113 233 113 219 q 126 247 113 247 q 140 233 140 247 q 126 219 140 219 m 115 275 q 101 289 101 275 q 115 303 101 303 q 129 289 129 303 q 115 275 129 275 m 111 332 q 97 346 97 332 q 111 360 97 360 q 125 346 125 360 q 111 332 125 332 m 110 388 q 96 401 96 388 q 110 415 96 415 q 124 401 124 415 q 110 388 124 388 m 113 442 q 99 456 99 442 q 113 469 99 469 q 126 456 126 469 q 113 442 126 442 m 117 496 q 103 510 103 496 q 117 524 103 524 q 131 510 131 524 q 117 496 131 496 m 119 547 q 106 561 106 547 q 119 575 106 575 q 133 561 133 575 q 119 547 133 547 m 126 597 q 113 611 113 597 q 126 625 113 625 q 140 611 140 625 q 126 597 140 597 m 136 646 q 122 660 122 646 q 136 674 122 674 q 150 660 150 674 q 136 646 150 646 m 150 696 q 136 710 136 696 q 150 724 136 724 q 164 710 164 724 q 150 696 164 696 m 167 744 q 153 758 153 744 q 167 772 153 772 q 181 758 181 772 q 167 744 181 744 m 189 793 q 175 807 175 793 q 189 821 175 821 q 203 807 203 821 q 189 793 203 793 m 219 839 q 206 853 206 839 q 219 867 206 867 q 233 853 233 867 q 219 839 233 839 m 256 878 q 242 892 242 878 q 256 906 242 906 q 269 892 269 906 q 256 878 269 878 m 296 908 q 282 922 282 908 q 296 936 282 936 q 310 922 310 936 q 296 908 310 908 m 340 931 q 326 944 326 931 q 340 958 326 958 q 354 944 354 958 q 340 931 354 931 m 388 946 q 374 960 374 946 q 388 974 374 974 q 401 960 401 974 q 388 946 401 946 m 438 950 q 424 964 424 950 q 438 978 424 978 q 451 964 451 978 q 438 950 451 950 m 488 947 q 474 961 474 947 q 488 975 474 975 q 501 961 501 975 q 488 947 501 947 m 536 932 q 522 946 522 932 q 536 960 522 960 q 550 946 550 960 q 536 932 550 932 m 583 908 q 569 922 569 908 q 583 936 569 936 q 597 922 597 936 q 583 908 597 908 m 625 878 q 611 892 611 878 q 625 906 611 906 q 639 892 639 906 q 625 878 639 878 m 664 839 q 650 853 650 839 q 664 867 650 867 q 678 853 678 867 q 664 839 678 839 m 694 792 q 681 806 681 792 q 694 819 681 819 q 708 806 708 819 q 694 792 708 792 z "},"7":{"ha":746,"x_min":79,"x_max":690,"o":"m 189 -172 q 175 -158 175 -172 q 189 -144 175 -144 q 203 -158 203 -144 q 189 -172 203 -172 m 211 -129 q 197 -115 197 -129 q 211 -101 197 -101 q 225 -115 225 -101 q 211 -129 225 -129 m 233 -86 q 219 -72 219 -86 q 233 -58 219 -58 q 247 -72 247 -58 q 233 -86 247 -86 m 256 -43 q 242 -29 242 -43 q 256 -15 242 -15 q 269 -29 269 -15 q 256 -43 269 -43 m 278 0 q 264 14 264 0 q 278 28 264 28 q 292 14 292 28 q 278 0 292 0 m 300 43 q 286 57 286 43 q 300 71 286 71 q 314 57 314 71 q 300 43 314 43 m 322 86 q 308 100 308 86 q 322 114 308 114 q 336 100 336 114 q 322 86 336 86 m 344 129 q 331 143 331 129 q 344 157 331 157 q 358 143 358 157 q 344 129 358 129 m 367 172 q 353 186 353 172 q 367 200 353 200 q 381 186 381 200 q 367 172 381 172 m 389 215 q 375 229 375 215 q 389 243 375 243 q 403 229 403 243 q 389 215 403 215 m 411 258 q 397 272 397 258 q 411 286 397 286 q 425 272 425 286 q 411 258 425 258 m 433 301 q 419 315 419 301 q 433 329 419 329 q 447 315 447 329 q 433 301 447 301 m 456 344 q 442 358 442 344 q 456 372 442 372 q 469 358 469 372 q 456 344 469 344 m 478 388 q 464 401 464 388 q 478 415 464 415 q 492 401 492 415 q 478 388 492 388 m 500 431 q 486 444 486 431 q 500 458 486 458 q 514 444 514 458 q 500 431 514 431 m 522 474 q 508 488 508 474 q 522 501 508 501 q 536 488 536 501 q 522 474 536 474 m 544 517 q 531 531 531 517 q 544 544 531 544 q 558 531 558 544 q 544 517 558 517 m 567 560 q 553 574 553 560 q 567 588 553 588 q 581 574 581 588 q 567 560 581 560 m 589 603 q 575 617 575 603 q 589 631 575 631 q 603 617 603 631 q 589 603 603 603 m 611 646 q 597 660 597 646 q 611 674 597 674 q 625 660 625 674 q 611 646 625 646 m 633 689 q 619 703 619 689 q 633 717 619 717 q 647 703 647 717 q 633 689 647 689 m 656 732 q 642 746 642 732 q 656 760 642 760 q 669 746 669 760 q 656 732 669 732 m 531 779 q 517 793 517 779 q 531 807 517 807 q 544 793 544 807 q 531 779 544 779 m 579 779 q 565 793 565 779 q 579 807 565 807 q 593 793 593 807 q 579 779 593 779 m 628 779 q 614 793 614 779 q 628 807 614 807 q 642 793 642 807 q 628 779 642 779 m 676 779 q 663 793 663 779 q 676 807 663 807 q 690 793 690 807 q 676 779 690 779 m 336 779 q 322 793 322 779 q 336 807 322 807 q 350 793 350 807 q 336 779 350 779 m 385 779 q 371 793 371 779 q 385 807 371 807 q 399 793 399 807 q 385 779 399 779 m 433 779 q 419 793 419 779 q 433 807 419 807 q 447 793 447 807 q 433 779 447 779 m 482 779 q 468 793 468 779 q 482 807 468 807 q 496 793 496 807 q 482 779 496 779 m 142 779 q 128 793 128 779 q 142 807 128 807 q 156 793 156 807 q 142 779 156 779 m 190 779 q 176 793 176 779 q 190 807 176 807 q 204 793 204 807 q 190 779 204 779 m 239 779 q 225 793 225 779 q 239 807 225 807 q 253 793 253 807 q 239 779 253 779 m 288 779 q 274 793 274 779 q 288 807 274 807 q 301 793 301 807 q 288 779 301 779 m 93 779 q 79 793 79 779 q 93 807 79 807 q 107 793 107 807 q 93 779 107 779 z "},"8":{"ha":822,"x_min":92,"x_max":725,"o":"m 367 957 q 353 971 353 957 q 367 985 353 985 q 381 971 381 985 q 367 957 381 957 m 411 958 q 397 972 397 958 q 411 986 397 986 q 425 972 425 986 q 411 958 425 958 m 460 956 q 446 969 446 956 q 460 983 446 983 q 474 969 474 983 q 460 956 474 956 m 319 947 q 306 961 306 947 q 319 975 306 975 q 333 961 333 975 q 319 947 333 947 m 276 933 q 263 947 263 933 q 276 961 263 961 q 290 947 290 961 q 276 933 290 933 m 506 946 q 492 960 492 946 q 506 974 492 974 q 519 960 519 974 q 506 946 519 946 m 549 932 q 535 946 535 932 q 549 960 535 960 q 563 946 563 960 q 549 932 563 932 m 589 911 q 575 925 575 911 q 589 939 575 939 q 603 925 603 939 q 589 911 603 911 m 625 885 q 611 899 611 885 q 625 913 611 913 q 639 899 639 913 q 625 885 639 885 m 657 851 q 643 865 643 851 q 657 879 643 879 q 671 865 671 879 q 657 851 671 851 m 679 811 q 665 825 665 811 q 679 839 665 839 q 693 825 693 839 q 679 811 693 811 m 692 767 q 678 781 678 767 q 692 794 678 794 q 706 781 706 794 q 692 767 706 767 m 694 721 q 681 735 681 721 q 694 749 681 749 q 708 735 708 749 q 694 721 708 721 m 685 674 q 671 688 671 674 q 685 701 671 701 q 699 688 699 701 q 685 674 699 674 m 664 632 q 650 646 650 632 q 664 660 650 660 q 678 646 678 660 q 664 632 678 632 m 633 597 q 619 611 619 597 q 633 625 619 625 q 647 611 647 625 q 633 597 647 597 m 597 568 q 583 582 583 568 q 597 596 583 596 q 611 582 611 596 q 597 568 611 568 m 557 547 q 543 561 543 547 q 557 575 543 575 q 571 561 571 575 q 557 547 571 547 m 511 529 q 497 543 497 529 q 511 557 497 557 q 525 543 525 557 q 511 529 525 529 m 465 511 q 451 525 451 511 q 465 539 451 539 q 479 525 479 539 q 465 511 479 511 m 413 513 q 399 526 399 513 q 413 540 399 540 q 426 526 426 540 q 413 513 426 513 m 514 490 q 500 504 500 490 q 514 518 500 518 q 528 504 528 518 q 514 490 528 490 m 558 472 q 544 486 544 472 q 558 500 544 500 q 572 486 572 500 q 558 472 572 472 m 599 450 q 585 464 585 450 q 599 478 585 478 q 613 464 613 478 q 599 450 613 450 m 635 422 q 621 436 621 422 q 635 450 621 450 q 649 436 649 450 q 635 422 649 422 m 665 389 q 651 403 651 389 q 665 417 651 417 q 679 403 679 417 q 665 389 679 389 m 690 349 q 676 363 676 349 q 690 376 676 376 q 704 363 704 376 q 690 349 704 349 m 707 303 q 693 317 693 303 q 707 331 693 331 q 721 317 721 331 q 707 303 721 303 m 711 254 q 697 268 697 254 q 711 282 697 282 q 725 268 725 282 q 711 254 725 254 m 706 207 q 692 221 692 207 q 706 235 692 235 q 719 221 719 235 q 706 207 719 207 m 689 161 q 675 175 675 161 q 689 189 675 189 q 703 175 703 189 q 689 161 703 161 m 664 121 q 650 135 650 121 q 664 149 650 149 q 678 135 678 149 q 664 121 678 121 m 632 86 q 618 100 618 86 q 632 114 618 114 q 646 100 646 114 q 632 86 646 86 m 592 56 q 578 69 578 56 q 592 83 578 83 q 606 69 606 83 q 592 56 606 56 m 550 35 q 536 49 536 35 q 550 63 536 63 q 564 49 564 63 q 550 35 564 35 m 504 17 q 490 31 490 17 q 504 44 490 44 q 518 31 518 44 q 504 17 518 17 m 458 6 q 444 19 444 6 q 458 33 444 33 q 472 19 472 33 q 458 6 472 6 m 414 3 q 400 17 400 3 q 414 31 400 31 q 428 17 428 31 q 414 3 428 3 m 235 911 q 221 925 221 911 q 235 939 221 939 q 249 925 249 939 q 235 911 249 911 m 199 885 q 185 899 185 885 q 199 913 185 913 q 213 899 213 913 q 199 885 213 885 m 167 851 q 153 865 153 851 q 167 879 153 879 q 181 865 181 879 q 167 851 181 851 m 144 811 q 131 825 131 811 q 144 839 131 839 q 158 825 158 839 q 144 811 158 811 m 132 767 q 118 781 118 767 q 132 794 118 794 q 146 781 146 794 q 132 767 146 767 m 129 721 q 115 735 115 721 q 129 749 115 749 q 143 735 143 749 q 129 721 143 721 m 139 674 q 125 688 125 674 q 139 701 125 701 q 153 688 153 701 q 139 674 153 674 m 160 632 q 146 646 146 632 q 160 660 146 660 q 174 646 174 660 q 160 632 174 632 m 190 597 q 176 611 176 597 q 190 625 176 625 q 204 611 204 625 q 190 597 204 597 m 226 568 q 213 582 213 568 q 226 596 213 596 q 240 582 240 596 q 226 568 240 568 m 267 547 q 253 561 253 547 q 267 575 253 575 q 281 561 281 575 q 267 547 281 547 m 313 529 q 299 543 299 529 q 313 557 299 557 q 326 543 326 557 q 313 529 326 529 m 358 513 q 344 526 344 513 q 358 540 344 540 q 372 526 372 540 q 358 513 372 513 m 303 490 q 289 504 289 490 q 303 518 289 518 q 317 504 317 518 q 303 490 317 490 m 258 472 q 244 486 244 472 q 258 500 244 500 q 272 486 272 500 q 258 472 272 472 m 218 450 q 204 464 204 450 q 218 478 204 478 q 232 464 232 478 q 218 450 232 450 m 182 422 q 168 436 168 422 q 182 450 168 450 q 196 436 196 450 q 182 422 196 422 m 151 389 q 138 403 138 389 q 151 417 138 417 q 165 403 165 417 q 151 389 165 389 m 126 349 q 113 363 113 349 q 126 376 113 376 q 140 363 140 376 q 126 349 140 349 m 110 303 q 96 317 96 303 q 110 331 96 331 q 124 317 124 331 q 110 303 124 303 m 106 254 q 92 268 92 254 q 106 282 92 282 q 119 268 119 282 q 106 254 119 254 m 111 207 q 97 221 97 207 q 111 235 97 235 q 125 221 125 235 q 111 207 125 207 m 128 161 q 114 175 114 161 q 128 189 114 189 q 142 175 142 189 q 128 161 142 161 m 153 121 q 139 135 139 121 q 153 149 139 149 q 167 135 167 149 q 153 121 167 121 m 185 86 q 171 100 171 86 q 185 114 171 114 q 199 100 199 114 q 185 86 199 86 m 225 56 q 211 69 211 56 q 225 83 211 83 q 239 69 239 83 q 225 56 239 56 m 269 32 q 256 46 256 32 q 269 60 256 60 q 283 46 283 60 q 269 32 283 32 m 318 15 q 304 29 304 15 q 318 43 304 43 q 332 29 332 43 q 318 15 332 15 m 367 6 q 353 19 353 6 q 367 33 353 33 q 381 19 381 33 q 367 6 381 6 z "},"9":{"ha":818,"x_min":64,"x_max":739,"o":"m 88 540 q 101 526 101 540 q 88 513 101 513 q 74 526 74 513 q 88 540 74 540 m 104 593 q 118 579 118 593 q 104 565 118 565 q 90 579 90 565 q 104 593 90 593 m 129 642 q 143 628 143 642 q 129 614 143 614 q 115 628 115 614 q 129 642 115 642 m 158 686 q 172 672 172 686 q 158 658 172 658 q 144 672 144 658 q 158 686 144 686 m 199 721 q 213 707 213 721 q 199 693 213 693 q 185 707 185 693 q 199 721 185 721 m 244 750 q 258 736 258 750 q 244 722 258 722 q 231 736 231 722 q 244 750 231 750 m 293 771 q 307 757 307 771 q 293 743 307 743 q 279 757 279 743 q 293 771 279 771 m 343 782 q 357 768 357 782 q 343 754 357 754 q 329 768 329 754 q 343 782 329 782 m 393 788 q 407 774 407 788 q 393 760 407 760 q 379 774 379 760 q 393 788 379 788 m 443 783 q 457 769 457 783 q 443 756 457 756 q 429 769 429 756 q 443 783 429 783 m 493 775 q 507 761 507 775 q 493 747 507 747 q 479 761 479 747 q 493 775 479 775 m 543 757 q 557 743 557 757 q 543 729 557 729 q 529 743 529 729 q 543 757 529 757 m 589 732 q 603 718 603 732 q 589 704 603 704 q 575 718 575 704 q 589 732 575 732 m 628 699 q 642 685 642 699 q 628 671 642 671 q 614 685 614 671 q 628 699 614 699 m 663 660 q 676 646 676 660 q 663 632 676 632 q 649 646 649 632 q 663 660 649 660 m 689 613 q 703 599 703 613 q 689 585 703 585 q 675 599 675 585 q 689 613 675 613 m 78 488 q 92 474 92 488 q 78 460 92 460 q 64 474 64 460 q 78 488 64 488 m 78 432 q 92 418 92 432 q 78 404 92 404 q 64 418 64 404 q 78 432 64 432 m 88 379 q 101 365 101 379 q 88 351 101 351 q 74 365 74 351 q 88 379 74 379 m 106 328 q 119 314 119 328 q 106 300 119 300 q 92 314 92 300 q 106 328 92 328 m 135 281 q 149 267 149 281 q 135 253 149 253 q 121 267 121 253 q 135 281 121 281 m 171 238 q 185 224 185 238 q 171 210 185 210 q 157 224 157 210 q 171 238 157 238 m 215 203 q 229 189 229 203 q 215 175 229 175 q 201 189 201 175 q 215 203 201 203 m 264 176 q 278 163 278 176 q 264 149 278 149 q 250 163 250 149 q 264 176 250 176 m 315 158 q 329 144 329 158 q 315 131 329 131 q 301 144 301 131 q 315 158 301 158 m 368 150 q 382 136 382 150 q 368 122 382 122 q 354 136 354 122 q 368 150 354 150 m 419 150 q 433 136 433 150 q 419 122 433 122 q 406 136 406 122 q 419 150 406 150 m 469 157 q 483 143 483 157 q 469 129 483 129 q 456 143 456 129 q 469 157 456 157 m 518 172 q 532 158 532 172 q 518 144 532 144 q 504 158 504 144 q 518 172 504 172 m 563 196 q 576 182 576 196 q 563 168 576 168 q 549 182 549 168 q 563 196 549 196 m 606 228 q 619 214 619 228 q 606 200 619 200 q 592 214 592 200 q 606 228 592 228 m 639 265 q 653 251 653 265 q 639 238 653 238 q 625 251 625 238 q 639 265 625 265 m 671 315 q 685 301 685 315 q 671 288 685 288 q 657 301 657 288 q 671 315 657 315 m 708 560 q 722 546 722 560 q 708 532 722 532 q 694 546 694 532 q 708 560 694 560 m 719 504 q 733 490 733 504 q 719 476 733 476 q 706 490 706 476 q 719 504 706 504 m 724 447 q 738 433 738 447 q 724 419 738 419 q 710 433 710 419 q 724 447 710 447 m 725 392 q 739 378 739 392 q 725 364 739 364 q 711 378 711 364 q 725 392 711 392 m 722 338 q 736 324 736 338 q 722 310 736 310 q 708 324 708 310 q 722 338 708 338 m 718 283 q 732 269 732 283 q 718 256 732 256 q 704 269 704 256 q 718 283 704 283 m 715 232 q 729 218 729 232 q 715 204 729 204 q 701 218 701 204 q 715 232 701 232 m 708 182 q 722 168 722 182 q 708 154 722 154 q 694 168 694 154 q 708 182 694 182 m 699 133 q 713 119 713 133 q 699 106 713 106 q 685 119 685 106 q 699 133 685 133 m 685 83 q 699 69 699 83 q 685 56 699 56 q 671 69 671 56 q 685 83 671 83 m 668 35 q 682 21 682 35 q 668 7 682 7 q 654 21 654 7 q 668 35 654 35 m 646 -14 q 660 -28 660 -14 q 646 -42 660 -42 q 632 -28 632 -42 q 646 -14 632 -14 m 615 -60 q 629 -74 629 -60 q 615 -87 629 -87 q 601 -74 601 -87 q 615 -60 601 -60 m 579 -99 q 593 -112 593 -99 q 579 -126 593 -126 q 565 -112 565 -126 q 579 -99 565 -99 m 539 -129 q 553 -143 553 -129 q 539 -157 553 -157 q 525 -143 525 -157 q 539 -129 525 -129 m 494 -151 q 508 -165 508 -151 q 494 -179 508 -179 q 481 -165 481 -179 q 494 -151 481 -151 m 447 -167 q 461 -181 461 -167 q 447 -194 461 -194 q 433 -181 433 -194 q 447 -167 433 -167 m 397 -171 q 411 -185 411 -171 q 397 -199 411 -199 q 383 -185 383 -199 q 397 -171 383 -171 m 347 -168 q 361 -182 361 -168 q 347 -196 361 -196 q 333 -182 333 -196 q 347 -168 333 -168 m 297 -154 q 311 -168 311 -154 q 297 -182 311 -182 q 283 -168 283 -182 q 297 -154 283 -154 m 250 -131 q 264 -144 264 -131 q 250 -158 264 -158 q 236 -144 236 -158 q 250 -131 236 -131 m 208 -100 q 222 -114 222 -100 q 208 -128 222 -128 q 194 -114 194 -128 q 208 -100 194 -100 m 171 -60 q 185 -74 185 -60 q 171 -87 185 -87 q 157 -74 157 -87 q 171 -60 157 -60 m 140 -12 q 154 -26 154 -12 q 140 -40 154 -40 q 126 -26 126 -40 q 140 -12 126 -12 z "}," ":{"ha":368,"x_min":0,"x_max":0,"o":""},"Ǽ":{"ha":1385,"x_min":32,"x_max":1303,"o":"m 686 1147 q 672 1161 672 1147 q 686 1175 672 1175 q 700 1161 700 1175 q 686 1147 700 1147 m 715 1181 q 701 1194 701 1181 q 715 1208 701 1208 q 729 1194 729 1208 q 715 1181 729 1181 m 744 1215 q 731 1229 731 1215 q 744 1243 731 1243 q 758 1229 758 1243 q 744 1215 758 1215 m 774 1250 q 760 1264 760 1250 q 774 1278 760 1278 q 788 1264 788 1278 q 774 1250 788 1250 m 689 958 q 675 972 675 958 q 689 986 675 986 q 703 972 703 986 q 689 958 703 958 m 689 908 q 675 922 675 908 q 689 936 675 936 q 703 922 703 936 q 689 908 703 908 m 689 858 q 675 872 675 858 q 689 886 675 886 q 703 872 703 886 q 689 858 703 858 m 689 808 q 675 822 675 808 q 689 836 675 836 q 703 822 703 836 q 689 808 703 808 m 689 758 q 675 772 675 758 q 689 786 675 786 q 703 772 703 786 q 689 758 703 758 m 689 708 q 675 722 675 708 q 689 736 675 736 q 703 722 703 736 q 689 708 703 708 m 689 658 q 675 672 675 658 q 689 686 675 686 q 703 672 703 686 q 689 658 703 658 m 689 608 q 675 622 675 608 q 689 636 675 636 q 703 622 703 636 q 689 608 703 608 m 689 558 q 675 572 675 558 q 689 586 675 586 q 703 572 703 586 q 689 558 703 558 m 689 508 q 675 522 675 508 q 689 536 675 536 q 703 522 703 536 q 689 508 703 508 m 689 458 q 675 472 675 458 q 689 486 675 486 q 703 472 703 486 q 689 458 703 458 m 689 408 q 675 422 675 408 q 689 436 675 436 q 703 422 703 436 q 689 408 703 408 m 689 358 q 675 372 675 358 q 689 386 675 386 q 703 372 703 386 q 689 358 703 358 m 689 308 q 675 322 675 308 q 689 336 675 336 q 703 322 703 336 q 689 308 703 308 m 689 258 q 675 272 675 258 q 689 286 675 286 q 703 272 703 286 q 689 258 703 258 m 689 208 q 675 222 675 208 q 689 236 675 236 q 703 222 703 236 q 689 208 703 208 m 689 158 q 675 172 675 158 q 689 186 675 186 q 703 172 703 186 q 689 158 703 158 m 689 108 q 675 122 675 108 q 689 136 675 136 q 703 122 703 136 q 689 108 703 108 m 689 58 q 675 72 675 58 q 689 86 675 86 q 703 72 703 86 q 689 58 703 58 m 689 8 q 675 22 675 8 q 689 36 675 36 q 703 22 703 36 q 689 8 703 8 m 739 8 q 725 22 725 8 q 739 36 725 36 q 753 22 753 36 q 739 8 753 8 m 789 8 q 775 22 775 8 q 789 36 775 36 q 803 22 803 36 q 789 8 803 8 m 839 8 q 825 22 825 8 q 839 36 825 36 q 853 22 853 36 q 839 8 853 8 m 889 8 q 875 22 875 8 q 889 36 875 36 q 903 22 903 36 q 889 8 903 8 m 939 8 q 925 22 925 8 q 939 36 925 36 q 953 22 953 36 q 939 8 953 8 m 989 8 q 975 22 975 8 q 989 36 975 36 q 1003 22 1003 36 q 989 8 1003 8 m 1039 8 q 1025 22 1025 8 q 1039 36 1025 36 q 1053 22 1053 36 q 1039 8 1053 8 m 1089 8 q 1075 22 1075 8 q 1089 36 1075 36 q 1103 22 1103 36 q 1089 8 1103 8 m 1139 8 q 1125 22 1125 8 q 1139 36 1125 36 q 1153 22 1153 36 q 1139 8 1153 8 m 1189 8 q 1175 22 1175 8 q 1189 36 1175 36 q 1203 22 1203 36 q 1189 8 1203 8 m 1239 8 q 1225 22 1225 8 q 1239 36 1225 36 q 1253 22 1253 36 q 1239 8 1253 8 m 1289 8 q 1275 22 1275 8 q 1289 36 1275 36 q 1303 22 1303 36 q 1289 8 1303 8 m 739 507 q 725 521 725 507 q 739 535 725 535 q 753 521 753 535 q 739 507 753 507 m 789 507 q 775 521 775 507 q 789 535 775 535 q 803 521 803 535 q 789 507 803 507 m 839 507 q 825 521 825 507 q 839 535 825 535 q 853 521 853 535 q 839 507 853 507 m 889 507 q 875 521 875 507 q 889 535 875 535 q 903 521 903 535 q 889 507 903 507 m 939 507 q 925 521 925 507 q 939 535 925 535 q 953 521 953 535 q 939 507 953 507 m 989 507 q 975 521 975 507 q 989 535 975 535 q 1003 521 1003 535 q 989 507 1003 507 m 1039 507 q 1025 521 1025 507 q 1039 535 1025 535 q 1053 521 1053 535 q 1039 507 1053 507 m 1089 507 q 1075 521 1075 507 q 1089 535 1075 535 q 1103 521 1103 535 q 1089 507 1103 507 m 1139 507 q 1125 521 1125 507 q 1139 535 1125 535 q 1153 521 1153 535 q 1139 507 1153 507 m 1189 507 q 1175 521 1175 507 q 1189 535 1175 535 q 1203 521 1203 535 q 1189 507 1203 507 m 739 958 q 725 972 725 958 q 739 986 725 986 q 753 972 753 986 q 739 958 753 958 m 789 958 q 775 972 775 958 q 789 986 775 986 q 803 972 803 986 q 789 958 803 958 m 839 958 q 825 972 825 958 q 839 986 825 986 q 853 972 853 986 q 839 958 853 958 m 889 958 q 875 972 875 958 q 889 986 875 986 q 903 972 903 986 q 889 958 903 958 m 939 958 q 925 972 925 958 q 939 986 925 986 q 953 972 953 986 q 939 958 953 958 m 989 958 q 975 972 975 958 q 989 986 975 986 q 1003 972 1003 986 q 989 958 1003 958 m 1039 958 q 1025 972 1025 958 q 1039 986 1025 986 q 1053 972 1053 986 q 1039 958 1053 958 m 1089 958 q 1075 972 1075 958 q 1089 986 1075 986 q 1103 972 1103 986 q 1089 958 1103 958 m 1139 958 q 1125 972 1125 958 q 1139 986 1125 986 q 1153 972 1153 986 q 1139 958 1153 958 m 1189 958 q 1175 972 1175 958 q 1189 986 1175 986 q 1203 972 1203 986 q 1189 958 1203 958 m 1239 958 q 1225 972 1225 958 q 1239 986 1225 986 q 1253 972 1253 986 q 1239 958 1253 958 m 1289 958 q 1275 972 1275 958 q 1289 986 1275 986 q 1303 972 1303 986 q 1289 958 1303 958 m 639 358 q 625 372 625 358 q 639 386 625 386 q 653 372 653 386 q 639 358 653 358 m 589 358 q 575 372 575 358 q 589 386 575 386 q 603 372 603 386 q 589 358 603 358 m 539 358 q 525 372 525 358 q 539 386 525 386 q 553 372 553 386 q 539 358 553 358 m 489 358 q 475 372 475 358 q 489 386 475 386 q 503 372 503 386 q 489 358 503 358 m 439 358 q 425 372 425 358 q 439 386 425 386 q 453 372 453 386 q 439 358 453 358 m 389 358 q 375 372 375 358 q 389 386 375 386 q 403 372 403 386 q 389 358 403 358 m 339 358 q 325 372 325 358 q 339 386 325 386 q 353 372 353 386 q 339 358 353 358 m 289 358 q 275 372 275 358 q 289 386 275 386 q 303 372 303 386 q 289 358 303 358 m 317 408 q 303 422 303 408 q 317 436 303 436 q 331 422 331 436 q 317 408 331 408 m 349 457 q 335 471 335 457 q 349 485 335 485 q 363 471 363 485 q 349 457 363 457 m 382 507 q 368 521 368 507 q 382 535 368 535 q 396 521 396 535 q 382 507 396 507 m 414 557 q 400 571 400 557 q 414 585 400 585 q 428 571 428 585 q 414 557 428 557 m 446 606 q 432 619 432 606 q 446 633 432 633 q 460 619 460 633 q 446 606 460 606 m 478 654 q 464 668 464 654 q 478 682 464 682 q 492 668 492 682 q 478 654 492 654 m 510 701 q 496 715 496 701 q 510 729 496 729 q 524 715 524 729 q 510 701 524 701 m 540 749 q 526 763 526 749 q 540 776 526 776 q 554 763 554 776 q 540 749 554 749 m 571 796 q 557 810 557 796 q 571 824 557 824 q 585 810 585 824 q 571 796 585 796 m 603 843 q 589 857 589 843 q 603 871 589 871 q 617 857 617 871 q 603 843 617 843 m 633 890 q 619 904 619 890 q 633 918 619 918 q 647 904 647 918 q 633 890 647 890 m 258 311 q 244 325 244 311 q 258 339 244 339 q 272 325 272 339 q 258 311 272 311 m 228 264 q 214 278 214 264 q 228 292 214 292 q 242 278 242 292 q 228 264 242 264 m 197 217 q 183 231 183 217 q 197 244 183 244 q 211 231 211 244 q 197 217 211 217 m 167 169 q 153 183 153 169 q 167 197 153 197 q 181 183 181 197 q 167 169 181 169 m 136 122 q 122 136 122 122 q 136 150 122 150 q 150 136 150 150 q 136 122 150 122 m 104 75 q 90 89 90 75 q 104 103 90 103 q 118 89 118 103 q 104 75 118 75 m 74 28 q 60 42 60 28 q 74 56 60 56 q 88 42 88 56 q 74 28 88 28 m 46 -14 q 32 0 32 -14 q 46 14 32 14 q 60 0 60 14 q 46 -14 60 -14 z "},"´":{"ha":285,"x_min":76,"x_max":192,"o":"m 90 886 q 76 900 76 886 q 90 914 76 914 q 104 900 104 914 q 90 886 104 886 m 119 919 q 106 933 106 919 q 119 947 106 947 q 133 933 133 947 q 119 919 133 919 m 149 954 q 135 968 135 954 q 149 982 135 982 q 163 968 163 982 q 149 954 163 954 m 178 989 q 164 1003 164 989 q 178 1017 164 1017 q 192 1003 192 1017 q 178 989 192 989 z "},"Á":{"ha":947,"x_min":33,"x_max":915,"o":"m 433 869 q 419 883 419 869 q 433 897 419 897 q 447 883 447 897 q 433 869 447 869 m 414 825 q 400 839 400 825 q 414 853 400 853 q 428 839 428 853 q 414 825 428 825 m 474 958 q 460 972 460 958 q 474 986 460 986 q 488 972 488 986 q 474 958 488 958 m 356 692 q 342 706 342 692 q 356 719 342 719 q 369 706 369 719 q 356 692 369 692 m 336 647 q 322 661 322 647 q 336 675 322 675 q 350 661 350 675 q 336 647 350 647 m 394 781 q 381 794 381 781 q 394 808 381 808 q 408 794 408 808 q 394 781 408 781 m 375 736 q 361 750 361 736 q 375 764 361 764 q 389 750 389 764 q 375 736 389 736 m 279 514 q 265 528 265 514 q 279 542 265 542 q 293 528 293 542 q 279 514 293 514 m 260 469 q 246 483 246 469 q 260 497 246 497 q 274 483 274 497 q 260 469 274 469 m 317 603 q 303 617 303 603 q 317 631 303 631 q 331 617 331 631 q 317 603 331 603 m 297 558 q 283 572 283 558 q 297 586 283 586 q 311 572 311 586 q 297 558 311 558 m 240 425 q 226 439 226 425 q 240 453 226 453 q 254 439 254 453 q 240 425 254 425 m 221 381 q 207 394 207 381 q 221 408 207 408 q 235 394 235 408 q 221 381 235 381 m 453 914 q 439 928 439 914 q 453 942 439 942 q 467 928 467 942 q 453 914 467 914 m 183 292 q 169 306 169 292 q 183 319 169 319 q 197 306 197 319 q 183 292 197 292 m 164 247 q 150 261 150 247 q 164 275 150 275 q 178 261 178 275 q 164 247 178 247 m 106 114 q 92 128 92 114 q 106 142 92 142 q 119 128 119 142 q 106 114 119 114 m 86 69 q 72 83 72 69 q 86 97 72 97 q 100 83 100 97 q 86 69 100 69 m 144 203 q 131 217 131 203 q 144 231 131 231 q 158 217 158 231 q 144 203 158 203 m 125 158 q 111 172 111 158 q 125 186 111 186 q 139 172 139 186 q 125 158 139 158 m 67 25 q 53 39 53 25 q 67 53 53 53 q 81 39 81 53 q 67 25 81 25 m 47 -19 q 33 -6 33 -19 q 47 8 33 8 q 61 -6 61 8 q 47 -19 61 -19 m 203 336 q 189 350 189 336 q 203 364 189 364 q 217 350 217 364 q 203 336 217 336 m 251 347 q 238 361 238 347 q 251 375 238 375 q 265 361 265 375 q 251 347 265 347 m 296 347 q 282 361 282 347 q 296 375 282 375 q 310 361 310 375 q 296 347 310 347 m 340 347 q 326 361 326 347 q 340 375 326 375 q 354 361 354 375 q 340 347 354 347 m 385 347 q 371 361 371 347 q 385 375 371 375 q 399 361 399 375 q 385 347 399 347 m 429 347 q 415 361 415 347 q 429 375 415 375 q 443 361 443 375 q 429 347 443 347 m 474 347 q 460 361 460 347 q 474 375 460 375 q 488 361 488 375 q 474 347 488 347 m 518 347 q 504 361 504 347 q 518 375 504 375 q 532 361 532 375 q 518 347 532 347 m 563 347 q 549 361 549 347 q 563 375 549 375 q 576 361 576 375 q 563 347 576 347 m 607 347 q 593 361 593 347 q 607 375 593 375 q 621 361 621 375 q 607 347 621 347 m 651 347 q 638 361 638 347 q 651 375 638 375 q 665 361 665 375 q 651 347 665 347 m 696 347 q 682 361 682 347 q 696 375 682 375 q 710 361 710 375 q 696 347 710 347 m 515 869 q 501 883 501 869 q 515 897 501 897 q 529 883 529 897 q 515 869 529 869 m 535 825 q 521 839 521 825 q 535 853 521 853 q 549 839 549 853 q 535 825 549 825 m 593 692 q 579 706 579 692 q 593 719 579 719 q 607 706 607 719 q 593 692 607 692 m 613 647 q 599 661 599 647 q 613 675 599 675 q 626 661 626 675 q 613 647 626 647 m 554 781 q 540 794 540 781 q 554 808 540 808 q 568 794 568 808 q 554 781 568 781 m 574 736 q 560 750 560 736 q 574 764 560 764 q 588 750 588 764 q 574 736 588 736 m 669 514 q 656 528 656 514 q 669 542 656 542 q 683 528 683 542 q 669 514 683 514 m 689 469 q 675 483 675 469 q 689 497 675 497 q 703 483 703 497 q 689 469 703 469 m 632 603 q 618 617 618 603 q 632 631 618 631 q 646 617 646 631 q 632 603 646 603 m 651 558 q 638 572 638 558 q 651 586 638 586 q 665 572 665 586 q 651 558 665 558 m 708 425 q 694 439 694 425 q 708 453 694 453 q 722 439 722 453 q 708 425 722 425 m 728 381 q 714 394 714 381 q 728 408 714 408 q 742 394 742 408 q 728 381 742 381 m 496 914 q 482 928 482 914 q 496 942 482 942 q 510 928 510 942 q 496 914 510 914 m 765 292 q 751 306 751 292 q 765 319 751 319 q 779 306 779 319 q 765 292 779 292 m 785 247 q 771 261 771 247 q 785 275 771 275 q 799 261 799 275 q 785 247 799 247 m 843 114 q 829 128 829 114 q 843 142 829 142 q 857 128 857 142 q 843 114 857 114 m 863 69 q 849 83 849 69 q 863 97 849 97 q 876 83 876 97 q 863 69 876 69 m 804 203 q 790 217 790 203 q 804 231 790 231 q 818 217 818 231 q 804 203 818 203 m 824 158 q 810 172 810 158 q 824 186 810 186 q 838 172 838 186 q 824 158 838 158 m 882 25 q 868 39 868 25 q 882 53 868 53 q 896 39 896 53 q 882 25 896 25 m 901 -19 q 888 -6 888 -19 q 901 8 888 8 q 915 -6 915 8 q 901 -19 915 -19 m 746 336 q 732 350 732 336 q 746 364 732 364 q 760 350 760 364 q 746 336 760 336 m 450 1147 q 436 1161 436 1147 q 450 1175 436 1175 q 464 1161 464 1175 q 450 1147 464 1147 m 479 1181 q 465 1194 465 1181 q 479 1208 465 1208 q 493 1194 493 1208 q 479 1181 493 1181 m 508 1215 q 494 1229 494 1215 q 508 1243 494 1243 q 522 1229 522 1243 q 508 1215 522 1215 m 538 1250 q 524 1264 524 1250 q 538 1278 524 1278 q 551 1264 551 1278 q 538 1250 551 1250 z "},"Ă":{"ha":947,"x_min":33,"x_max":915,"o":"m 433 869 q 419 883 419 869 q 433 897 419 897 q 447 883 447 897 q 433 869 447 869 m 414 825 q 400 839 400 825 q 414 853 400 853 q 428 839 428 853 q 414 825 428 825 m 474 958 q 460 972 460 958 q 474 986 460 986 q 488 972 488 986 q 474 958 488 958 m 356 692 q 342 706 342 692 q 356 719 342 719 q 369 706 369 719 q 356 692 369 692 m 336 647 q 322 661 322 647 q 336 675 322 675 q 350 661 350 675 q 336 647 350 647 m 394 781 q 381 794 381 781 q 394 808 381 808 q 408 794 408 808 q 394 781 408 781 m 375 736 q 361 750 361 736 q 375 764 361 764 q 389 750 389 764 q 375 736 389 736 m 279 514 q 265 528 265 514 q 279 542 265 542 q 293 528 293 542 q 279 514 293 514 m 260 469 q 246 483 246 469 q 260 497 246 497 q 274 483 274 497 q 260 469 274 469 m 317 603 q 303 617 303 603 q 317 631 303 631 q 331 617 331 631 q 317 603 331 603 m 297 558 q 283 572 283 558 q 297 586 283 586 q 311 572 311 586 q 297 558 311 558 m 240 425 q 226 439 226 425 q 240 453 226 453 q 254 439 254 453 q 240 425 254 425 m 221 381 q 207 394 207 381 q 221 408 207 408 q 235 394 235 408 q 221 381 235 381 m 453 914 q 439 928 439 914 q 453 942 439 942 q 467 928 467 942 q 453 914 467 914 m 183 292 q 169 306 169 292 q 183 319 169 319 q 197 306 197 319 q 183 292 197 292 m 164 247 q 150 261 150 247 q 164 275 150 275 q 178 261 178 275 q 164 247 178 247 m 106 114 q 92 128 92 114 q 106 142 92 142 q 119 128 119 142 q 106 114 119 114 m 86 69 q 72 83 72 69 q 86 97 72 97 q 100 83 100 97 q 86 69 100 69 m 144 203 q 131 217 131 203 q 144 231 131 231 q 158 217 158 231 q 144 203 158 203 m 125 158 q 111 172 111 158 q 125 186 111 186 q 139 172 139 186 q 125 158 139 158 m 67 25 q 53 39 53 25 q 67 53 53 53 q 81 39 81 53 q 67 25 81 25 m 47 -19 q 33 -6 33 -19 q 47 8 33 8 q 61 -6 61 8 q 47 -19 61 -19 m 203 336 q 189 350 189 336 q 203 364 189 364 q 217 350 217 364 q 203 336 217 336 m 251 347 q 238 361 238 347 q 251 375 238 375 q 265 361 265 375 q 251 347 265 347 m 296 347 q 282 361 282 347 q 296 375 282 375 q 310 361 310 375 q 296 347 310 347 m 340 347 q 326 361 326 347 q 340 375 326 375 q 354 361 354 375 q 340 347 354 347 m 385 347 q 371 361 371 347 q 385 375 371 375 q 399 361 399 375 q 385 347 399 347 m 429 347 q 415 361 415 347 q 429 375 415 375 q 443 361 443 375 q 429 347 443 347 m 474 347 q 460 361 460 347 q 474 375 460 375 q 488 361 488 375 q 474 347 488 347 m 518 347 q 504 361 504 347 q 518 375 504 375 q 532 361 532 375 q 518 347 532 347 m 563 347 q 549 361 549 347 q 563 375 549 375 q 576 361 576 375 q 563 347 576 347 m 607 347 q 593 361 593 347 q 607 375 593 375 q 621 361 621 375 q 607 347 621 347 m 651 347 q 638 361 638 347 q 651 375 638 375 q 665 361 665 375 q 651 347 665 347 m 696 347 q 682 361 682 347 q 696 375 682 375 q 710 361 710 375 q 696 347 710 347 m 515 869 q 501 883 501 869 q 515 897 501 897 q 529 883 529 897 q 515 869 529 869 m 535 825 q 521 839 521 825 q 535 853 521 853 q 549 839 549 853 q 535 825 549 825 m 593 692 q 579 706 579 692 q 593 719 579 719 q 607 706 607 719 q 593 692 607 692 m 613 647 q 599 661 599 647 q 613 675 599 675 q 626 661 626 675 q 613 647 626 647 m 554 781 q 540 794 540 781 q 554 808 540 808 q 568 794 568 808 q 554 781 568 781 m 574 736 q 560 750 560 736 q 574 764 560 764 q 588 750 588 764 q 574 736 588 736 m 669 514 q 656 528 656 514 q 669 542 656 542 q 683 528 683 542 q 669 514 683 514 m 689 469 q 675 483 675 469 q 689 497 675 497 q 703 483 703 497 q 689 469 703 469 m 632 603 q 618 617 618 603 q 632 631 618 631 q 646 617 646 631 q 632 603 646 603 m 651 558 q 638 572 638 558 q 651 586 638 586 q 665 572 665 586 q 651 558 665 558 m 708 425 q 694 439 694 425 q 708 453 694 453 q 722 439 722 453 q 708 425 722 425 m 728 381 q 714 394 714 381 q 728 408 714 408 q 742 394 742 408 q 728 381 742 381 m 496 914 q 482 928 482 914 q 496 942 482 942 q 510 928 510 942 q 496 914 510 914 m 765 292 q 751 306 751 292 q 765 319 751 319 q 779 306 779 319 q 765 292 779 292 m 785 247 q 771 261 771 247 q 785 275 771 275 q 799 261 799 275 q 785 247 799 247 m 843 114 q 829 128 829 114 q 843 142 829 142 q 857 128 857 142 q 843 114 857 114 m 863 69 q 849 83 849 69 q 863 97 849 97 q 876 83 876 97 q 863 69 876 69 m 804 203 q 790 217 790 203 q 804 231 790 231 q 818 217 818 231 q 804 203 818 203 m 824 158 q 810 172 810 158 q 824 186 810 186 q 838 172 838 186 q 824 158 838 158 m 882 25 q 868 39 868 25 q 882 53 868 53 q 896 39 896 53 q 882 25 896 25 m 901 -19 q 888 -6 888 -19 q 901 8 888 8 q 915 -6 915 8 q 901 -19 915 -19 m 746 336 q 732 350 732 336 q 746 364 732 364 q 760 350 760 364 q 746 336 760 336 m 382 1250 q 368 1264 368 1250 q 382 1278 368 1278 q 396 1264 396 1278 q 382 1250 396 1250 m 397 1206 q 383 1219 383 1206 q 397 1233 383 1233 q 411 1219 411 1233 q 397 1206 411 1206 m 429 1174 q 415 1188 415 1174 q 429 1201 415 1201 q 443 1188 443 1201 q 429 1174 443 1174 m 476 1160 q 463 1174 463 1160 q 476 1188 463 1188 q 490 1174 490 1188 q 476 1160 490 1160 m 571 1250 q 557 1264 557 1250 q 571 1278 557 1278 q 585 1264 585 1278 q 571 1250 585 1250 m 556 1206 q 542 1219 542 1206 q 556 1233 542 1233 q 569 1219 569 1233 q 556 1206 569 1206 m 524 1174 q 510 1188 510 1174 q 524 1201 510 1201 q 538 1188 538 1201 q 524 1174 538 1174 z "},"˘":{"ha":358,"x_min":72,"x_max":289,"o":"m 86 989 q 72 1003 72 989 q 86 1017 72 1017 q 100 1003 100 1017 q 86 989 100 989 m 101 944 q 88 958 88 944 q 101 972 88 972 q 115 958 115 972 q 101 944 115 944 m 133 913 q 119 926 119 913 q 133 940 119 940 q 147 926 147 940 q 133 913 147 913 m 181 899 q 167 913 167 899 q 181 926 167 926 q 194 913 194 926 q 181 899 194 899 m 275 989 q 261 1003 261 989 q 275 1017 261 1017 q 289 1003 289 1017 q 275 989 289 989 m 260 944 q 246 958 246 944 q 260 972 246 972 q 274 958 274 972 q 260 944 274 944 m 228 913 q 214 926 214 913 q 228 940 214 940 q 242 926 242 940 q 228 913 242 913 z "},"Â":{"ha":947,"x_min":33,"x_max":915,"o":"m 433 869 q 419 883 419 869 q 433 897 419 897 q 447 883 447 897 q 433 869 447 869 m 414 825 q 400 839 400 825 q 414 853 400 853 q 428 839 428 853 q 414 825 428 825 m 474 958 q 460 972 460 958 q 474 986 460 986 q 488 972 488 986 q 474 958 488 958 m 356 692 q 342 706 342 692 q 356 719 342 719 q 369 706 369 719 q 356 692 369 692 m 336 647 q 322 661 322 647 q 336 675 322 675 q 350 661 350 675 q 336 647 350 647 m 394 781 q 381 794 381 781 q 394 808 381 808 q 408 794 408 808 q 394 781 408 781 m 375 736 q 361 750 361 736 q 375 764 361 764 q 389 750 389 764 q 375 736 389 736 m 279 514 q 265 528 265 514 q 279 542 265 542 q 293 528 293 542 q 279 514 293 514 m 260 469 q 246 483 246 469 q 260 497 246 497 q 274 483 274 497 q 260 469 274 469 m 317 603 q 303 617 303 603 q 317 631 303 631 q 331 617 331 631 q 317 603 331 603 m 297 558 q 283 572 283 558 q 297 586 283 586 q 311 572 311 586 q 297 558 311 558 m 240 425 q 226 439 226 425 q 240 453 226 453 q 254 439 254 453 q 240 425 254 425 m 221 381 q 207 394 207 381 q 221 408 207 408 q 235 394 235 408 q 221 381 235 381 m 453 914 q 439 928 439 914 q 453 942 439 942 q 467 928 467 942 q 453 914 467 914 m 183 292 q 169 306 169 292 q 183 319 169 319 q 197 306 197 319 q 183 292 197 292 m 164 247 q 150 261 150 247 q 164 275 150 275 q 178 261 178 275 q 164 247 178 247 m 106 114 q 92 128 92 114 q 106 142 92 142 q 119 128 119 142 q 106 114 119 114 m 86 69 q 72 83 72 69 q 86 97 72 97 q 100 83 100 97 q 86 69 100 69 m 144 203 q 131 217 131 203 q 144 231 131 231 q 158 217 158 231 q 144 203 158 203 m 125 158 q 111 172 111 158 q 125 186 111 186 q 139 172 139 186 q 125 158 139 158 m 67 25 q 53 39 53 25 q 67 53 53 53 q 81 39 81 53 q 67 25 81 25 m 47 -19 q 33 -6 33 -19 q 47 8 33 8 q 61 -6 61 8 q 47 -19 61 -19 m 203 336 q 189 350 189 336 q 203 364 189 364 q 217 350 217 364 q 203 336 217 336 m 251 347 q 238 361 238 347 q 251 375 238 375 q 265 361 265 375 q 251 347 265 347 m 296 347 q 282 361 282 347 q 296 375 282 375 q 310 361 310 375 q 296 347 310 347 m 340 347 q 326 361 326 347 q 340 375 326 375 q 354 361 354 375 q 340 347 354 347 m 385 347 q 371 361 371 347 q 385 375 371 375 q 399 361 399 375 q 385 347 399 347 m 429 347 q 415 361 415 347 q 429 375 415 375 q 443 361 443 375 q 429 347 443 347 m 474 347 q 460 361 460 347 q 474 375 460 375 q 488 361 488 375 q 474 347 488 347 m 518 347 q 504 361 504 347 q 518 375 504 375 q 532 361 532 375 q 518 347 532 347 m 563 347 q 549 361 549 347 q 563 375 549 375 q 576 361 576 375 q 563 347 576 347 m 607 347 q 593 361 593 347 q 607 375 593 375 q 621 361 621 375 q 607 347 621 347 m 651 347 q 638 361 638 347 q 651 375 638 375 q 665 361 665 375 q 651 347 665 347 m 696 347 q 682 361 682 347 q 696 375 682 375 q 710 361 710 375 q 696 347 710 347 m 515 869 q 501 883 501 869 q 515 897 501 897 q 529 883 529 897 q 515 869 529 869 m 535 825 q 521 839 521 825 q 535 853 521 853 q 549 839 549 853 q 535 825 549 825 m 593 692 q 579 706 579 692 q 593 719 579 719 q 607 706 607 719 q 593 692 607 692 m 613 647 q 599 661 599 647 q 613 675 599 675 q 626 661 626 675 q 613 647 626 647 m 554 781 q 540 794 540 781 q 554 808 540 808 q 568 794 568 808 q 554 781 568 781 m 574 736 q 560 750 560 736 q 574 764 560 764 q 588 750 588 764 q 574 736 588 736 m 669 514 q 656 528 656 514 q 669 542 656 542 q 683 528 683 542 q 669 514 683 514 m 689 469 q 675 483 675 469 q 689 497 675 497 q 703 483 703 497 q 689 469 703 469 m 632 603 q 618 617 618 603 q 632 631 618 631 q 646 617 646 631 q 632 603 646 603 m 651 558 q 638 572 638 558 q 651 586 638 586 q 665 572 665 586 q 651 558 665 558 m 708 425 q 694 439 694 425 q 708 453 694 453 q 722 439 722 453 q 708 425 722 425 m 728 381 q 714 394 714 381 q 728 408 714 408 q 742 394 742 408 q 728 381 742 381 m 496 914 q 482 928 482 914 q 496 942 482 942 q 510 928 510 942 q 496 914 510 914 m 765 292 q 751 306 751 292 q 765 319 751 319 q 779 306 779 319 q 765 292 779 292 m 785 247 q 771 261 771 247 q 785 275 771 275 q 799 261 799 275 q 785 247 799 247 m 843 114 q 829 128 829 114 q 843 142 829 142 q 857 128 857 142 q 843 114 857 114 m 863 69 q 849 83 849 69 q 863 97 849 97 q 876 83 876 97 q 863 69 876 69 m 804 203 q 790 217 790 203 q 804 231 790 231 q 818 217 818 231 q 804 203 818 203 m 824 158 q 810 172 810 158 q 824 186 810 186 q 838 172 838 186 q 824 158 838 158 m 882 25 q 868 39 868 25 q 882 53 868 53 q 896 39 896 53 q 882 25 896 25 m 901 -19 q 888 -6 888 -19 q 901 8 888 8 q 915 -6 915 8 q 901 -19 915 -19 m 746 336 q 732 350 732 336 q 746 364 732 364 q 760 350 760 364 q 746 336 760 336 m 474 1247 q 460 1261 460 1247 q 474 1275 460 1275 q 488 1261 488 1275 q 474 1247 488 1247 m 513 1219 q 499 1233 499 1219 q 513 1247 499 1247 q 526 1233 526 1247 q 513 1219 526 1219 m 549 1190 q 535 1204 535 1190 q 549 1218 535 1218 q 563 1204 563 1218 q 549 1190 563 1190 m 585 1163 q 571 1176 571 1163 q 585 1190 571 1190 q 599 1176 599 1190 q 585 1163 599 1163 m 435 1219 q 421 1233 421 1219 q 435 1247 421 1247 q 449 1233 449 1247 q 435 1219 449 1219 m 399 1190 q 385 1204 385 1190 q 399 1218 385 1218 q 413 1204 413 1218 q 399 1190 413 1190 m 363 1163 q 349 1176 349 1163 q 363 1190 349 1190 q 376 1176 376 1190 q 363 1163 376 1163 z "},"ˆ":{"ha":431,"x_min":90,"x_max":340,"o":"m 215 986 q 201 1000 201 986 q 215 1014 201 1014 q 229 1000 229 1014 q 215 986 229 986 m 254 958 q 240 972 240 958 q 254 986 240 986 q 268 972 268 986 q 254 958 268 958 m 290 929 q 276 943 276 929 q 290 957 276 957 q 304 943 304 957 q 290 929 304 929 m 326 901 q 313 915 313 901 q 326 929 313 929 q 340 915 340 929 q 326 901 340 901 m 176 958 q 163 972 163 958 q 176 986 163 986 q 190 972 190 986 q 176 958 190 958 m 140 929 q 126 943 126 929 q 140 957 126 957 q 154 943 154 957 q 140 929 154 929 m 104 901 q 90 915 90 901 q 104 929 90 929 q 118 915 118 929 q 104 901 118 901 z "},"Ä":{"ha":947,"x_min":33,"x_max":915,"o":"m 433 869 q 419 883 419 869 q 433 897 419 897 q 447 883 447 897 q 433 869 447 869 m 414 825 q 400 839 400 825 q 414 853 400 853 q 428 839 428 853 q 414 825 428 825 m 474 958 q 460 972 460 958 q 474 986 460 986 q 488 972 488 986 q 474 958 488 958 m 356 692 q 342 706 342 692 q 356 719 342 719 q 369 706 369 719 q 356 692 369 692 m 336 647 q 322 661 322 647 q 336 675 322 675 q 350 661 350 675 q 336 647 350 647 m 394 781 q 381 794 381 781 q 394 808 381 808 q 408 794 408 808 q 394 781 408 781 m 375 736 q 361 750 361 736 q 375 764 361 764 q 389 750 389 764 q 375 736 389 736 m 279 514 q 265 528 265 514 q 279 542 265 542 q 293 528 293 542 q 279 514 293 514 m 260 469 q 246 483 246 469 q 260 497 246 497 q 274 483 274 497 q 260 469 274 469 m 317 603 q 303 617 303 603 q 317 631 303 631 q 331 617 331 631 q 317 603 331 603 m 297 558 q 283 572 283 558 q 297 586 283 586 q 311 572 311 586 q 297 558 311 558 m 240 425 q 226 439 226 425 q 240 453 226 453 q 254 439 254 453 q 240 425 254 425 m 221 381 q 207 394 207 381 q 221 408 207 408 q 235 394 235 408 q 221 381 235 381 m 453 914 q 439 928 439 914 q 453 942 439 942 q 467 928 467 942 q 453 914 467 914 m 183 292 q 169 306 169 292 q 183 319 169 319 q 197 306 197 319 q 183 292 197 292 m 164 247 q 150 261 150 247 q 164 275 150 275 q 178 261 178 275 q 164 247 178 247 m 106 114 q 92 128 92 114 q 106 142 92 142 q 119 128 119 142 q 106 114 119 114 m 86 69 q 72 83 72 69 q 86 97 72 97 q 100 83 100 97 q 86 69 100 69 m 144 203 q 131 217 131 203 q 144 231 131 231 q 158 217 158 231 q 144 203 158 203 m 125 158 q 111 172 111 158 q 125 186 111 186 q 139 172 139 186 q 125 158 139 158 m 67 25 q 53 39 53 25 q 67 53 53 53 q 81 39 81 53 q 67 25 81 25 m 47 -19 q 33 -6 33 -19 q 47 8 33 8 q 61 -6 61 8 q 47 -19 61 -19 m 203 336 q 189 350 189 336 q 203 364 189 364 q 217 350 217 364 q 203 336 217 336 m 251 347 q 238 361 238 347 q 251 375 238 375 q 265 361 265 375 q 251 347 265 347 m 296 347 q 282 361 282 347 q 296 375 282 375 q 310 361 310 375 q 296 347 310 347 m 340 347 q 326 361 326 347 q 340 375 326 375 q 354 361 354 375 q 340 347 354 347 m 385 347 q 371 361 371 347 q 385 375 371 375 q 399 361 399 375 q 385 347 399 347 m 429 347 q 415 361 415 347 q 429 375 415 375 q 443 361 443 375 q 429 347 443 347 m 474 347 q 460 361 460 347 q 474 375 460 375 q 488 361 488 375 q 474 347 488 347 m 518 347 q 504 361 504 347 q 518 375 504 375 q 532 361 532 375 q 518 347 532 347 m 563 347 q 549 361 549 347 q 563 375 549 375 q 576 361 576 375 q 563 347 576 347 m 607 347 q 593 361 593 347 q 607 375 593 375 q 621 361 621 375 q 607 347 621 347 m 651 347 q 638 361 638 347 q 651 375 638 375 q 665 361 665 375 q 651 347 665 347 m 696 347 q 682 361 682 347 q 696 375 682 375 q 710 361 710 375 q 696 347 710 347 m 515 869 q 501 883 501 869 q 515 897 501 897 q 529 883 529 897 q 515 869 529 869 m 535 825 q 521 839 521 825 q 535 853 521 853 q 549 839 549 853 q 535 825 549 825 m 593 692 q 579 706 579 692 q 593 719 579 719 q 607 706 607 719 q 593 692 607 692 m 613 647 q 599 661 599 647 q 613 675 599 675 q 626 661 626 675 q 613 647 626 647 m 554 781 q 540 794 540 781 q 554 808 540 808 q 568 794 568 808 q 554 781 568 781 m 574 736 q 560 750 560 736 q 574 764 560 764 q 588 750 588 764 q 574 736 588 736 m 669 514 q 656 528 656 514 q 669 542 656 542 q 683 528 683 542 q 669 514 683 514 m 689 469 q 675 483 675 469 q 689 497 675 497 q 703 483 703 497 q 689 469 703 469 m 632 603 q 618 617 618 603 q 632 631 618 631 q 646 617 646 631 q 632 603 646 603 m 651 558 q 638 572 638 558 q 651 586 638 586 q 665 572 665 586 q 651 558 665 558 m 708 425 q 694 439 694 425 q 708 453 694 453 q 722 439 722 453 q 708 425 722 425 m 728 381 q 714 394 714 381 q 728 408 714 408 q 742 394 742 408 q 728 381 742 381 m 496 914 q 482 928 482 914 q 496 942 482 942 q 510 928 510 942 q 496 914 510 914 m 765 292 q 751 306 751 292 q 765 319 751 319 q 779 306 779 319 q 765 292 779 292 m 785 247 q 771 261 771 247 q 785 275 771 275 q 799 261 799 275 q 785 247 799 247 m 843 114 q 829 128 829 114 q 843 142 829 142 q 857 128 857 142 q 843 114 857 114 m 863 69 q 849 83 849 69 q 863 97 849 97 q 876 83 876 97 q 863 69 876 69 m 804 203 q 790 217 790 203 q 804 231 790 231 q 818 217 818 231 q 804 203 818 203 m 824 158 q 810 172 810 158 q 824 186 810 186 q 838 172 838 186 q 824 158 838 158 m 882 25 q 868 39 868 25 q 882 53 868 53 q 896 39 896 53 q 882 25 896 25 m 901 -19 q 888 -6 888 -19 q 901 8 888 8 q 915 -6 915 8 q 901 -19 915 -19 m 746 336 q 732 350 732 336 q 746 364 732 364 q 760 350 760 364 q 746 336 760 336 m 388 1158 q 374 1172 374 1158 q 388 1186 374 1186 q 401 1172 401 1186 q 388 1158 401 1158 m 388 1204 q 374 1218 374 1204 q 388 1232 374 1232 q 401 1218 401 1232 q 388 1204 401 1204 m 388 1250 q 374 1264 374 1250 q 388 1278 374 1278 q 401 1264 401 1278 q 388 1250 401 1250 m 563 1158 q 549 1172 549 1158 q 563 1186 549 1186 q 576 1172 576 1186 q 563 1158 576 1158 m 563 1204 q 549 1218 549 1204 q 563 1232 549 1232 q 576 1218 576 1232 q 563 1204 576 1204 m 563 1250 q 549 1264 549 1250 q 563 1278 549 1278 q 576 1264 576 1278 q 563 1250 576 1250 z "},"¨":{"ha":365,"x_min":82,"x_max":285,"o":"m 96 897 q 82 911 82 897 q 96 925 82 925 q 110 911 110 925 q 96 897 110 897 m 96 943 q 82 957 82 943 q 96 971 82 971 q 110 957 110 971 q 96 943 110 943 m 96 989 q 82 1003 82 989 q 96 1017 82 1017 q 110 1003 110 1017 q 96 989 110 989 m 271 897 q 257 911 257 897 q 271 925 257 925 q 285 911 285 925 q 271 897 285 897 m 271 943 q 257 957 257 943 q 271 971 257 971 q 285 957 285 971 q 271 943 285 943 m 271 989 q 257 1003 257 989 q 271 1017 257 1017 q 285 1003 285 1017 q 271 989 285 989 z "},"À":{"ha":947,"x_min":33,"x_max":915,"o":"m 433 869 q 419 883 419 869 q 433 897 419 897 q 447 883 447 897 q 433 869 447 869 m 414 825 q 400 839 400 825 q 414 853 400 853 q 428 839 428 853 q 414 825 428 825 m 474 958 q 460 972 460 958 q 474 986 460 986 q 488 972 488 986 q 474 958 488 958 m 356 692 q 342 706 342 692 q 356 719 342 719 q 369 706 369 719 q 356 692 369 692 m 336 647 q 322 661 322 647 q 336 675 322 675 q 350 661 350 675 q 336 647 350 647 m 394 781 q 381 794 381 781 q 394 808 381 808 q 408 794 408 808 q 394 781 408 781 m 375 736 q 361 750 361 736 q 375 764 361 764 q 389 750 389 764 q 375 736 389 736 m 279 514 q 265 528 265 514 q 279 542 265 542 q 293 528 293 542 q 279 514 293 514 m 260 469 q 246 483 246 469 q 260 497 246 497 q 274 483 274 497 q 260 469 274 469 m 317 603 q 303 617 303 603 q 317 631 303 631 q 331 617 331 631 q 317 603 331 603 m 297 558 q 283 572 283 558 q 297 586 283 586 q 311 572 311 586 q 297 558 311 558 m 240 425 q 226 439 226 425 q 240 453 226 453 q 254 439 254 453 q 240 425 254 425 m 221 381 q 207 394 207 381 q 221 408 207 408 q 235 394 235 408 q 221 381 235 381 m 453 914 q 439 928 439 914 q 453 942 439 942 q 467 928 467 942 q 453 914 467 914 m 183 292 q 169 306 169 292 q 183 319 169 319 q 197 306 197 319 q 183 292 197 292 m 164 247 q 150 261 150 247 q 164 275 150 275 q 178 261 178 275 q 164 247 178 247 m 106 114 q 92 128 92 114 q 106 142 92 142 q 119 128 119 142 q 106 114 119 114 m 86 69 q 72 83 72 69 q 86 97 72 97 q 100 83 100 97 q 86 69 100 69 m 144 203 q 131 217 131 203 q 144 231 131 231 q 158 217 158 231 q 144 203 158 203 m 125 158 q 111 172 111 158 q 125 186 111 186 q 139 172 139 186 q 125 158 139 158 m 67 25 q 53 39 53 25 q 67 53 53 53 q 81 39 81 53 q 67 25 81 25 m 47 -19 q 33 -6 33 -19 q 47 8 33 8 q 61 -6 61 8 q 47 -19 61 -19 m 203 336 q 189 350 189 336 q 203 364 189 364 q 217 350 217 364 q 203 336 217 336 m 251 347 q 238 361 238 347 q 251 375 238 375 q 265 361 265 375 q 251 347 265 347 m 296 347 q 282 361 282 347 q 296 375 282 375 q 310 361 310 375 q 296 347 310 347 m 340 347 q 326 361 326 347 q 340 375 326 375 q 354 361 354 375 q 340 347 354 347 m 385 347 q 371 361 371 347 q 385 375 371 375 q 399 361 399 375 q 385 347 399 347 m 429 347 q 415 361 415 347 q 429 375 415 375 q 443 361 443 375 q 429 347 443 347 m 474 347 q 460 361 460 347 q 474 375 460 375 q 488 361 488 375 q 474 347 488 347 m 518 347 q 504 361 504 347 q 518 375 504 375 q 532 361 532 375 q 518 347 532 347 m 563 347 q 549 361 549 347 q 563 375 549 375 q 576 361 576 375 q 563 347 576 347 m 607 347 q 593 361 593 347 q 607 375 593 375 q 621 361 621 375 q 607 347 621 347 m 651 347 q 638 361 638 347 q 651 375 638 375 q 665 361 665 375 q 651 347 665 347 m 696 347 q 682 361 682 347 q 696 375 682 375 q 710 361 710 375 q 696 347 710 347 m 515 869 q 501 883 501 869 q 515 897 501 897 q 529 883 529 897 q 515 869 529 869 m 535 825 q 521 839 521 825 q 535 853 521 853 q 549 839 549 853 q 535 825 549 825 m 593 692 q 579 706 579 692 q 593 719 579 719 q 607 706 607 719 q 593 692 607 692 m 613 647 q 599 661 599 647 q 613 675 599 675 q 626 661 626 675 q 613 647 626 647 m 554 781 q 540 794 540 781 q 554 808 540 808 q 568 794 568 808 q 554 781 568 781 m 574 736 q 560 750 560 736 q 574 764 560 764 q 588 750 588 764 q 574 736 588 736 m 669 514 q 656 528 656 514 q 669 542 656 542 q 683 528 683 542 q 669 514 683 514 m 689 469 q 675 483 675 469 q 689 497 675 497 q 703 483 703 497 q 689 469 703 469 m 632 603 q 618 617 618 603 q 632 631 618 631 q 646 617 646 631 q 632 603 646 603 m 651 558 q 638 572 638 558 q 651 586 638 586 q 665 572 665 586 q 651 558 665 558 m 708 425 q 694 439 694 425 q 708 453 694 453 q 722 439 722 453 q 708 425 722 425 m 728 381 q 714 394 714 381 q 728 408 714 408 q 742 394 742 408 q 728 381 742 381 m 496 914 q 482 928 482 914 q 496 942 482 942 q 510 928 510 942 q 496 914 510 914 m 765 292 q 751 306 751 292 q 765 319 751 319 q 779 306 779 319 q 765 292 779 292 m 785 247 q 771 261 771 247 q 785 275 771 275 q 799 261 799 275 q 785 247 799 247 m 843 114 q 829 128 829 114 q 843 142 829 142 q 857 128 857 142 q 843 114 857 114 m 863 69 q 849 83 849 69 q 863 97 849 97 q 876 83 876 97 q 863 69 876 69 m 804 203 q 790 217 790 203 q 804 231 790 231 q 818 217 818 231 q 804 203 818 203 m 824 158 q 810 172 810 158 q 824 186 810 186 q 838 172 838 186 q 824 158 838 158 m 882 25 q 868 39 868 25 q 882 53 868 53 q 896 39 896 53 q 882 25 896 25 m 901 -19 q 888 -6 888 -19 q 901 8 888 8 q 915 -6 915 8 q 901 -19 915 -19 m 746 336 q 732 350 732 336 q 746 364 732 364 q 760 350 760 364 q 746 336 760 336 m 496 1150 q 482 1164 482 1150 q 496 1178 482 1178 q 510 1164 510 1178 q 496 1150 510 1150 m 467 1183 q 453 1197 453 1183 q 467 1211 453 1211 q 481 1197 481 1211 q 467 1183 481 1183 m 438 1218 q 424 1232 424 1218 q 438 1246 424 1246 q 451 1232 451 1246 q 438 1218 451 1218 m 408 1253 q 394 1267 394 1253 q 408 1281 394 1281 q 422 1267 422 1281 q 408 1253 422 1253 z "},"`":{"ha":285,"x_min":93,"x_max":208,"o":"m 194 889 q 181 903 181 889 q 194 917 181 917 q 208 903 208 917 q 194 889 208 889 m 165 922 q 151 936 151 922 q 165 950 151 950 q 179 936 179 950 q 165 922 179 922 m 136 957 q 122 971 122 957 q 136 985 122 985 q 150 971 150 985 q 136 957 150 957 m 107 992 q 93 1006 93 992 q 107 1019 93 1019 q 121 1006 121 1019 q 107 992 121 992 z "},"Ā":{"ha":947,"x_min":33,"x_max":915,"o":"m 433 869 q 419 883 419 869 q 433 897 419 897 q 447 883 447 897 q 433 869 447 869 m 414 825 q 400 839 400 825 q 414 853 400 853 q 428 839 428 853 q 414 825 428 825 m 474 958 q 460 972 460 958 q 474 986 460 986 q 488 972 488 986 q 474 958 488 958 m 356 692 q 342 706 342 692 q 356 719 342 719 q 369 706 369 719 q 356 692 369 692 m 336 647 q 322 661 322 647 q 336 675 322 675 q 350 661 350 675 q 336 647 350 647 m 394 781 q 381 794 381 781 q 394 808 381 808 q 408 794 408 808 q 394 781 408 781 m 375 736 q 361 750 361 736 q 375 764 361 764 q 389 750 389 764 q 375 736 389 736 m 279 514 q 265 528 265 514 q 279 542 265 542 q 293 528 293 542 q 279 514 293 514 m 260 469 q 246 483 246 469 q 260 497 246 497 q 274 483 274 497 q 260 469 274 469 m 317 603 q 303 617 303 603 q 317 631 303 631 q 331 617 331 631 q 317 603 331 603 m 297 558 q 283 572 283 558 q 297 586 283 586 q 311 572 311 586 q 297 558 311 558 m 240 425 q 226 439 226 425 q 240 453 226 453 q 254 439 254 453 q 240 425 254 425 m 221 381 q 207 394 207 381 q 221 408 207 408 q 235 394 235 408 q 221 381 235 381 m 453 914 q 439 928 439 914 q 453 942 439 942 q 467 928 467 942 q 453 914 467 914 m 183 292 q 169 306 169 292 q 183 319 169 319 q 197 306 197 319 q 183 292 197 292 m 164 247 q 150 261 150 247 q 164 275 150 275 q 178 261 178 275 q 164 247 178 247 m 106 114 q 92 128 92 114 q 106 142 92 142 q 119 128 119 142 q 106 114 119 114 m 86 69 q 72 83 72 69 q 86 97 72 97 q 100 83 100 97 q 86 69 100 69 m 144 203 q 131 217 131 203 q 144 231 131 231 q 158 217 158 231 q 144 203 158 203 m 125 158 q 111 172 111 158 q 125 186 111 186 q 139 172 139 186 q 125 158 139 158 m 67 25 q 53 39 53 25 q 67 53 53 53 q 81 39 81 53 q 67 25 81 25 m 47 -19 q 33 -6 33 -19 q 47 8 33 8 q 61 -6 61 8 q 47 -19 61 -19 m 203 336 q 189 350 189 336 q 203 364 189 364 q 217 350 217 364 q 203 336 217 336 m 251 347 q 238 361 238 347 q 251 375 238 375 q 265 361 265 375 q 251 347 265 347 m 296 347 q 282 361 282 347 q 296 375 282 375 q 310 361 310 375 q 296 347 310 347 m 340 347 q 326 361 326 347 q 340 375 326 375 q 354 361 354 375 q 340 347 354 347 m 385 347 q 371 361 371 347 q 385 375 371 375 q 399 361 399 375 q 385 347 399 347 m 429 347 q 415 361 415 347 q 429 375 415 375 q 443 361 443 375 q 429 347 443 347 m 474 347 q 460 361 460 347 q 474 375 460 375 q 488 361 488 375 q 474 347 488 347 m 518 347 q 504 361 504 347 q 518 375 504 375 q 532 361 532 375 q 518 347 532 347 m 563 347 q 549 361 549 347 q 563 375 549 375 q 576 361 576 375 q 563 347 576 347 m 607 347 q 593 361 593 347 q 607 375 593 375 q 621 361 621 375 q 607 347 621 347 m 651 347 q 638 361 638 347 q 651 375 638 375 q 665 361 665 375 q 651 347 665 347 m 696 347 q 682 361 682 347 q 696 375 682 375 q 710 361 710 375 q 696 347 710 347 m 515 869 q 501 883 501 869 q 515 897 501 897 q 529 883 529 897 q 515 869 529 869 m 535 825 q 521 839 521 825 q 535 853 521 853 q 549 839 549 853 q 535 825 549 825 m 593 692 q 579 706 579 692 q 593 719 579 719 q 607 706 607 719 q 593 692 607 692 m 613 647 q 599 661 599 647 q 613 675 599 675 q 626 661 626 675 q 613 647 626 647 m 554 781 q 540 794 540 781 q 554 808 540 808 q 568 794 568 808 q 554 781 568 781 m 574 736 q 560 750 560 736 q 574 764 560 764 q 588 750 588 764 q 574 736 588 736 m 669 514 q 656 528 656 514 q 669 542 656 542 q 683 528 683 542 q 669 514 683 514 m 689 469 q 675 483 675 469 q 689 497 675 497 q 703 483 703 497 q 689 469 703 469 m 632 603 q 618 617 618 603 q 632 631 618 631 q 646 617 646 631 q 632 603 646 603 m 651 558 q 638 572 638 558 q 651 586 638 586 q 665 572 665 586 q 651 558 665 558 m 708 425 q 694 439 694 425 q 708 453 694 453 q 722 439 722 453 q 708 425 722 425 m 728 381 q 714 394 714 381 q 728 408 714 408 q 742 394 742 408 q 728 381 742 381 m 496 914 q 482 928 482 914 q 496 942 482 942 q 510 928 510 942 q 496 914 510 914 m 765 292 q 751 306 751 292 q 765 319 751 319 q 779 306 779 319 q 765 292 779 292 m 785 247 q 771 261 771 247 q 785 275 771 275 q 799 261 799 275 q 785 247 799 247 m 843 114 q 829 128 829 114 q 843 142 829 142 q 857 128 857 142 q 843 114 857 114 m 863 69 q 849 83 849 69 q 863 97 849 97 q 876 83 876 97 q 863 69 876 69 m 804 203 q 790 217 790 203 q 804 231 790 231 q 818 217 818 231 q 804 203 818 203 m 824 158 q 810 172 810 158 q 824 186 810 186 q 838 172 838 186 q 824 158 838 158 m 882 25 q 868 39 868 25 q 882 53 868 53 q 896 39 896 53 q 882 25 896 25 m 901 -19 q 888 -6 888 -19 q 901 8 888 8 q 915 -6 915 8 q 901 -19 915 -19 m 746 336 q 732 350 732 336 q 746 364 732 364 q 760 350 760 364 q 746 336 760 336 m 294 1211 q 281 1225 281 1211 q 294 1239 281 1239 q 308 1225 308 1239 q 294 1211 308 1211 m 346 1211 q 332 1225 332 1211 q 346 1239 332 1239 q 360 1225 360 1239 q 346 1211 360 1211 m 397 1211 q 383 1225 383 1211 q 397 1239 383 1239 q 411 1225 411 1239 q 397 1211 411 1211 m 449 1211 q 435 1225 435 1211 q 449 1239 435 1239 q 463 1225 463 1239 q 449 1211 463 1211 m 500 1211 q 486 1225 486 1211 q 500 1239 486 1239 q 514 1225 514 1239 q 500 1211 514 1211 m 551 1211 q 538 1225 538 1211 q 551 1239 538 1239 q 565 1225 565 1239 q 551 1211 565 1211 m 603 1211 q 589 1225 589 1211 q 603 1239 589 1239 q 617 1225 617 1239 q 603 1211 617 1211 m 654 1211 q 640 1225 640 1211 q 654 1239 640 1239 q 668 1225 668 1239 q 654 1211 668 1211 z "},"¯":{"ha":535,"x_min":74,"x_max":461,"o":"m 88 950 q 74 964 74 950 q 88 978 74 978 q 101 964 101 978 q 88 950 101 950 m 139 950 q 125 964 125 950 q 139 978 125 978 q 153 964 153 978 q 139 950 153 950 m 190 950 q 176 964 176 950 q 190 978 176 978 q 204 964 204 978 q 190 950 204 950 m 242 950 q 228 964 228 950 q 242 978 228 978 q 256 964 256 978 q 242 950 256 950 m 293 950 q 279 964 279 950 q 293 978 279 978 q 307 964 307 978 q 293 950 307 950 m 344 950 q 331 964 331 950 q 344 978 331 978 q 358 964 358 978 q 344 950 358 950 m 396 950 q 382 964 382 950 q 396 978 382 978 q 410 964 410 978 q 396 950 410 950 m 447 950 q 433 964 433 950 q 447 978 433 978 q 461 964 461 978 q 447 950 461 950 z "},"Ą":{"ha":947,"x_min":33,"x_max":915,"o":"m 867 -46 q 853 -32 853 -46 q 867 -18 853 -18 q 881 -32 881 -18 q 867 -46 881 -46 m 833 -75 q 819 -61 819 -75 q 833 -47 819 -47 q 847 -61 847 -47 q 833 -75 847 -75 m 806 -111 q 792 -97 792 -111 q 806 -83 792 -83 q 819 -97 819 -83 q 806 -111 819 -111 m 793 -157 q 779 -143 779 -157 q 793 -129 779 -129 q 807 -143 807 -129 q 793 -157 807 -157 m 807 -203 q 793 -189 793 -203 q 807 -175 793 -175 q 821 -189 821 -175 q 807 -203 821 -203 m 846 -228 q 832 -214 832 -228 q 846 -200 832 -200 q 860 -214 860 -200 q 846 -228 860 -228 m 433 869 q 419 883 419 869 q 433 897 419 897 q 447 883 447 897 q 433 869 447 869 m 414 825 q 400 839 400 825 q 414 853 400 853 q 428 839 428 853 q 414 825 428 825 m 474 958 q 460 972 460 958 q 474 986 460 986 q 488 972 488 986 q 474 958 488 958 m 356 692 q 342 706 342 692 q 356 719 342 719 q 369 706 369 719 q 356 692 369 692 m 336 647 q 322 661 322 647 q 336 675 322 675 q 350 661 350 675 q 336 647 350 647 m 394 781 q 381 794 381 781 q 394 808 381 808 q 408 794 408 808 q 394 781 408 781 m 375 736 q 361 750 361 736 q 375 764 361 764 q 389 750 389 764 q 375 736 389 736 m 279 514 q 265 528 265 514 q 279 542 265 542 q 293 528 293 542 q 279 514 293 514 m 260 469 q 246 483 246 469 q 260 497 246 497 q 274 483 274 497 q 260 469 274 469 m 317 603 q 303 617 303 603 q 317 631 303 631 q 331 617 331 631 q 317 603 331 603 m 297 558 q 283 572 283 558 q 297 586 283 586 q 311 572 311 586 q 297 558 311 558 m 240 425 q 226 439 226 425 q 240 453 226 453 q 254 439 254 453 q 240 425 254 425 m 221 381 q 207 394 207 381 q 221 408 207 408 q 235 394 235 408 q 221 381 235 381 m 453 914 q 439 928 439 914 q 453 942 439 942 q 467 928 467 942 q 453 914 467 914 m 183 292 q 169 306 169 292 q 183 319 169 319 q 197 306 197 319 q 183 292 197 292 m 164 247 q 150 261 150 247 q 164 275 150 275 q 178 261 178 275 q 164 247 178 247 m 106 114 q 92 128 92 114 q 106 142 92 142 q 119 128 119 142 q 106 114 119 114 m 86 69 q 72 83 72 69 q 86 97 72 97 q 100 83 100 97 q 86 69 100 69 m 144 203 q 131 217 131 203 q 144 231 131 231 q 158 217 158 231 q 144 203 158 203 m 125 158 q 111 172 111 158 q 125 186 111 186 q 139 172 139 186 q 125 158 139 158 m 67 25 q 53 39 53 25 q 67 53 53 53 q 81 39 81 53 q 67 25 81 25 m 47 -19 q 33 -6 33 -19 q 47 8 33 8 q 61 -6 61 8 q 47 -19 61 -19 m 203 336 q 189 350 189 336 q 203 364 189 364 q 217 350 217 364 q 203 336 217 336 m 251 347 q 238 361 238 347 q 251 375 238 375 q 265 361 265 375 q 251 347 265 347 m 296 347 q 282 361 282 347 q 296 375 282 375 q 310 361 310 375 q 296 347 310 347 m 340 347 q 326 361 326 347 q 340 375 326 375 q 354 361 354 375 q 340 347 354 347 m 385 347 q 371 361 371 347 q 385 375 371 375 q 399 361 399 375 q 385 347 399 347 m 429 347 q 415 361 415 347 q 429 375 415 375 q 443 361 443 375 q 429 347 443 347 m 474 347 q 460 361 460 347 q 474 375 460 375 q 488 361 488 375 q 474 347 488 347 m 518 347 q 504 361 504 347 q 518 375 504 375 q 532 361 532 375 q 518 347 532 347 m 563 347 q 549 361 549 347 q 563 375 549 375 q 576 361 576 375 q 563 347 576 347 m 607 347 q 593 361 593 347 q 607 375 593 375 q 621 361 621 375 q 607 347 621 347 m 651 347 q 638 361 638 347 q 651 375 638 375 q 665 361 665 375 q 651 347 665 347 m 696 347 q 682 361 682 347 q 696 375 682 375 q 710 361 710 375 q 696 347 710 347 m 515 869 q 501 883 501 869 q 515 897 501 897 q 529 883 529 897 q 515 869 529 869 m 535 825 q 521 839 521 825 q 535 853 521 853 q 549 839 549 853 q 535 825 549 825 m 593 692 q 579 706 579 692 q 593 719 579 719 q 607 706 607 719 q 593 692 607 692 m 613 647 q 599 661 599 647 q 613 675 599 675 q 626 661 626 675 q 613 647 626 647 m 554 781 q 540 794 540 781 q 554 808 540 808 q 568 794 568 808 q 554 781 568 781 m 574 736 q 560 750 560 736 q 574 764 560 764 q 588 750 588 764 q 574 736 588 736 m 669 514 q 656 528 656 514 q 669 542 656 542 q 683 528 683 542 q 669 514 683 514 m 689 469 q 675 483 675 469 q 689 497 675 497 q 703 483 703 497 q 689 469 703 469 m 632 603 q 618 617 618 603 q 632 631 618 631 q 646 617 646 631 q 632 603 646 603 m 651 558 q 638 572 638 558 q 651 586 638 586 q 665 572 665 586 q 651 558 665 558 m 708 425 q 694 439 694 425 q 708 453 694 453 q 722 439 722 453 q 708 425 722 425 m 728 381 q 714 394 714 381 q 728 408 714 408 q 742 394 742 408 q 728 381 742 381 m 496 914 q 482 928 482 914 q 496 942 482 942 q 510 928 510 942 q 496 914 510 914 m 765 292 q 751 306 751 292 q 765 319 751 319 q 779 306 779 319 q 765 292 779 292 m 785 247 q 771 261 771 247 q 785 275 771 275 q 799 261 799 275 q 785 247 799 247 m 843 114 q 829 128 829 114 q 843 142 829 142 q 857 128 857 142 q 843 114 857 114 m 863 69 q 849 83 849 69 q 863 97 849 97 q 876 83 876 97 q 863 69 876 69 m 804 203 q 790 217 790 203 q 804 231 790 231 q 818 217 818 231 q 804 203 818 203 m 824 158 q 810 172 810 158 q 824 186 810 186 q 838 172 838 186 q 824 158 838 158 m 882 25 q 868 39 868 25 q 882 53 868 53 q 896 39 896 53 q 882 25 896 25 m 901 -19 q 888 -6 888 -19 q 901 8 888 8 q 915 -6 915 8 q 901 -19 915 -19 m 746 336 q 732 350 732 336 q 746 364 732 364 q 760 350 760 364 q 746 336 760 336 z "},"˛":{"ha":297,"x_min":75,"x_max":211,"o":"m 197 -11 q 183 3 183 -11 q 197 17 183 17 q 211 3 211 17 q 197 -11 211 -11 m 163 -37 q 149 -24 149 -37 q 163 -10 149 -10 q 176 -24 176 -10 q 163 -37 176 -37 m 129 -67 q 115 -53 115 -67 q 129 -39 115 -39 q 143 -53 143 -39 q 129 -67 143 -67 m 101 -103 q 88 -89 88 -103 q 101 -75 88 -75 q 115 -89 115 -75 q 101 -103 115 -103 m 89 -149 q 75 -135 75 -149 q 89 -121 75 -121 q 103 -135 103 -121 q 89 -149 103 -149 m 103 -194 q 89 -181 89 -194 q 103 -167 89 -167 q 117 -181 117 -167 q 103 -194 117 -194 m 142 -219 q 128 -206 128 -219 q 142 -192 128 -192 q 156 -206 156 -192 q 142 -219 156 -219 z "},"Å":{"ha":947,"x_min":33,"x_max":915,"o":"m 433 869 q 419 883 419 869 q 433 897 419 897 q 447 883 447 897 q 433 869 447 869 m 414 825 q 400 839 400 825 q 414 853 400 853 q 428 839 428 853 q 414 825 428 825 m 474 958 q 460 972 460 958 q 474 986 460 986 q 488 972 488 986 q 474 958 488 958 m 356 692 q 342 706 342 692 q 356 719 342 719 q 369 706 369 719 q 356 692 369 692 m 336 647 q 322 661 322 647 q 336 675 322 675 q 350 661 350 675 q 336 647 350 647 m 394 781 q 381 794 381 781 q 394 808 381 808 q 408 794 408 808 q 394 781 408 781 m 375 736 q 361 750 361 736 q 375 764 361 764 q 389 750 389 764 q 375 736 389 736 m 279 514 q 265 528 265 514 q 279 542 265 542 q 293 528 293 542 q 279 514 293 514 m 260 469 q 246 483 246 469 q 260 497 246 497 q 274 483 274 497 q 260 469 274 469 m 317 603 q 303 617 303 603 q 317 631 303 631 q 331 617 331 631 q 317 603 331 603 m 297 558 q 283 572 283 558 q 297 586 283 586 q 311 572 311 586 q 297 558 311 558 m 240 425 q 226 439 226 425 q 240 453 226 453 q 254 439 254 453 q 240 425 254 425 m 221 381 q 207 394 207 381 q 221 408 207 408 q 235 394 235 408 q 221 381 235 381 m 453 914 q 439 928 439 914 q 453 942 439 942 q 467 928 467 942 q 453 914 467 914 m 183 292 q 169 306 169 292 q 183 319 169 319 q 197 306 197 319 q 183 292 197 292 m 164 247 q 150 261 150 247 q 164 275 150 275 q 178 261 178 275 q 164 247 178 247 m 106 114 q 92 128 92 114 q 106 142 92 142 q 119 128 119 142 q 106 114 119 114 m 86 69 q 72 83 72 69 q 86 97 72 97 q 100 83 100 97 q 86 69 100 69 m 144 203 q 131 217 131 203 q 144 231 131 231 q 158 217 158 231 q 144 203 158 203 m 125 158 q 111 172 111 158 q 125 186 111 186 q 139 172 139 186 q 125 158 139 158 m 67 25 q 53 39 53 25 q 67 53 53 53 q 81 39 81 53 q 67 25 81 25 m 47 -19 q 33 -6 33 -19 q 47 8 33 8 q 61 -6 61 8 q 47 -19 61 -19 m 203 336 q 189 350 189 336 q 203 364 189 364 q 217 350 217 364 q 203 336 217 336 m 251 347 q 238 361 238 347 q 251 375 238 375 q 265 361 265 375 q 251 347 265 347 m 296 347 q 282 361 282 347 q 296 375 282 375 q 310 361 310 375 q 296 347 310 347 m 340 347 q 326 361 326 347 q 340 375 326 375 q 354 361 354 375 q 340 347 354 347 m 385 347 q 371 361 371 347 q 385 375 371 375 q 399 361 399 375 q 385 347 399 347 m 429 347 q 415 361 415 347 q 429 375 415 375 q 443 361 443 375 q 429 347 443 347 m 474 347 q 460 361 460 347 q 474 375 460 375 q 488 361 488 375 q 474 347 488 347 m 518 347 q 504 361 504 347 q 518 375 504 375 q 532 361 532 375 q 518 347 532 347 m 563 347 q 549 361 549 347 q 563 375 549 375 q 576 361 576 375 q 563 347 576 347 m 607 347 q 593 361 593 347 q 607 375 593 375 q 621 361 621 375 q 607 347 621 347 m 651 347 q 638 361 638 347 q 651 375 638 375 q 665 361 665 375 q 651 347 665 347 m 696 347 q 682 361 682 347 q 696 375 682 375 q 710 361 710 375 q 696 347 710 347 m 515 869 q 501 883 501 869 q 515 897 501 897 q 529 883 529 897 q 515 869 529 869 m 535 825 q 521 839 521 825 q 535 853 521 853 q 549 839 549 853 q 535 825 549 825 m 593 692 q 579 706 579 692 q 593 719 579 719 q 607 706 607 719 q 593 692 607 692 m 613 647 q 599 661 599 647 q 613 675 599 675 q 626 661 626 675 q 613 647 626 647 m 554 781 q 540 794 540 781 q 554 808 540 808 q 568 794 568 808 q 554 781 568 781 m 574 736 q 560 750 560 736 q 574 764 560 764 q 588 750 588 764 q 574 736 588 736 m 669 514 q 656 528 656 514 q 669 542 656 542 q 683 528 683 542 q 669 514 683 514 m 689 469 q 675 483 675 469 q 689 497 675 497 q 703 483 703 497 q 689 469 703 469 m 632 603 q 618 617 618 603 q 632 631 618 631 q 646 617 646 631 q 632 603 646 603 m 651 558 q 638 572 638 558 q 651 586 638 586 q 665 572 665 586 q 651 558 665 558 m 708 425 q 694 439 694 425 q 708 453 694 453 q 722 439 722 453 q 708 425 722 425 m 728 381 q 714 394 714 381 q 728 408 714 408 q 742 394 742 408 q 728 381 742 381 m 496 914 q 482 928 482 914 q 496 942 482 942 q 510 928 510 942 q 496 914 510 914 m 765 292 q 751 306 751 292 q 765 319 751 319 q 779 306 779 319 q 765 292 779 292 m 785 247 q 771 261 771 247 q 785 275 771 275 q 799 261 799 275 q 785 247 799 247 m 843 114 q 829 128 829 114 q 843 142 829 142 q 857 128 857 142 q 843 114 857 114 m 863 69 q 849 83 849 69 q 863 97 849 97 q 876 83 876 97 q 863 69 876 69 m 804 203 q 790 217 790 203 q 804 231 790 231 q 818 217 818 231 q 804 203 818 203 m 824 158 q 810 172 810 158 q 824 186 810 186 q 838 172 838 186 q 824 158 838 158 m 882 25 q 868 39 868 25 q 882 53 868 53 q 896 39 896 53 q 882 25 896 25 m 901 -19 q 888 -6 888 -19 q 901 8 888 8 q 915 -6 915 8 q 901 -19 915 -19 m 746 336 q 732 350 732 336 q 746 364 732 364 q 760 350 760 364 q 746 336 760 336 m 474 1247 q 460 1261 460 1247 q 474 1275 460 1275 q 488 1261 488 1275 q 474 1247 488 1247 m 546 1179 q 532 1193 532 1179 q 546 1207 532 1207 q 560 1193 560 1207 q 546 1179 560 1179 m 403 1179 q 389 1193 389 1179 q 403 1207 389 1207 q 417 1193 417 1207 q 403 1179 417 1179 m 474 1110 q 460 1124 460 1110 q 474 1138 460 1138 q 488 1124 488 1138 q 474 1110 488 1110 m 525 1131 q 511 1144 511 1131 q 525 1158 511 1158 q 539 1144 539 1158 q 525 1131 539 1131 m 525 1226 q 511 1240 511 1226 q 525 1254 511 1254 q 539 1240 539 1254 q 525 1226 539 1226 m 425 1131 q 411 1144 411 1131 q 425 1158 411 1158 q 439 1144 439 1158 q 425 1131 439 1131 m 424 1226 q 410 1240 410 1226 q 424 1254 410 1254 q 438 1240 438 1254 q 424 1226 438 1226 z "},"˚":{"ha":335,"x_min":82,"x_max":253,"o":"m 167 986 q 153 1000 153 986 q 167 1014 153 1014 q 181 1000 181 1014 q 167 986 181 986 m 239 918 q 225 932 225 918 q 239 946 225 946 q 253 932 253 946 q 239 918 253 918 m 96 918 q 82 932 82 918 q 96 946 82 946 q 110 932 110 946 q 96 918 110 918 m 167 849 q 153 863 153 849 q 167 876 153 876 q 181 863 181 876 q 167 849 181 849 m 218 869 q 204 883 204 869 q 218 897 204 897 q 232 883 232 897 q 218 869 232 869 m 218 965 q 204 979 204 965 q 218 993 204 993 q 232 979 232 993 q 218 965 232 965 m 118 869 q 104 883 104 869 q 118 897 104 897 q 132 883 132 897 q 118 869 132 869 m 117 965 q 103 979 103 965 q 117 993 103 993 q 131 979 131 993 q 117 965 131 965 z "},"Ǻ":{"ha":947,"x_min":33,"x_max":915,"o":"m 474 1097 q 460 1111 460 1097 q 474 1125 460 1125 q 488 1111 488 1125 q 474 1097 488 1097 m 546 1029 q 532 1043 532 1029 q 546 1057 532 1057 q 560 1043 560 1057 q 546 1029 560 1029 m 403 1029 q 389 1043 389 1029 q 403 1057 389 1057 q 417 1043 417 1057 q 403 1029 417 1029 m 525 981 q 511 994 511 981 q 525 1008 511 1008 q 539 994 539 1008 q 525 981 539 981 m 525 1076 q 511 1090 511 1076 q 525 1104 511 1104 q 539 1090 539 1104 q 525 1076 539 1076 m 425 981 q 411 994 411 981 q 425 1008 411 1008 q 439 994 439 1008 q 425 981 439 981 m 424 1076 q 410 1090 410 1076 q 424 1104 410 1104 q 438 1090 438 1104 q 424 1076 438 1076 m 433 869 q 419 883 419 869 q 433 897 419 897 q 447 883 447 897 q 433 869 447 869 m 414 825 q 400 839 400 825 q 414 853 400 853 q 428 839 428 853 q 414 825 428 825 m 474 958 q 460 972 460 958 q 474 986 460 986 q 488 972 488 986 q 474 958 488 958 m 356 692 q 342 706 342 692 q 356 719 342 719 q 369 706 369 719 q 356 692 369 692 m 336 647 q 322 661 322 647 q 336 675 322 675 q 350 661 350 675 q 336 647 350 647 m 394 781 q 381 794 381 781 q 394 808 381 808 q 408 794 408 808 q 394 781 408 781 m 375 736 q 361 750 361 736 q 375 764 361 764 q 389 750 389 764 q 375 736 389 736 m 279 514 q 265 528 265 514 q 279 542 265 542 q 293 528 293 542 q 279 514 293 514 m 260 469 q 246 483 246 469 q 260 497 246 497 q 274 483 274 497 q 260 469 274 469 m 317 603 q 303 617 303 603 q 317 631 303 631 q 331 617 331 631 q 317 603 331 603 m 297 558 q 283 572 283 558 q 297 586 283 586 q 311 572 311 586 q 297 558 311 558 m 240 425 q 226 439 226 425 q 240 453 226 453 q 254 439 254 453 q 240 425 254 425 m 221 381 q 207 394 207 381 q 221 408 207 408 q 235 394 235 408 q 221 381 235 381 m 453 914 q 439 928 439 914 q 453 942 439 942 q 467 928 467 942 q 453 914 467 914 m 183 292 q 169 306 169 292 q 183 319 169 319 q 197 306 197 319 q 183 292 197 292 m 164 247 q 150 261 150 247 q 164 275 150 275 q 178 261 178 275 q 164 247 178 247 m 106 114 q 92 128 92 114 q 106 142 92 142 q 119 128 119 142 q 106 114 119 114 m 86 69 q 72 83 72 69 q 86 97 72 97 q 100 83 100 97 q 86 69 100 69 m 144 203 q 131 217 131 203 q 144 231 131 231 q 158 217 158 231 q 144 203 158 203 m 125 158 q 111 172 111 158 q 125 186 111 186 q 139 172 139 186 q 125 158 139 158 m 67 25 q 53 39 53 25 q 67 53 53 53 q 81 39 81 53 q 67 25 81 25 m 47 -19 q 33 -6 33 -19 q 47 8 33 8 q 61 -6 61 8 q 47 -19 61 -19 m 203 336 q 189 350 189 336 q 203 364 189 364 q 217 350 217 364 q 203 336 217 336 m 251 347 q 238 361 238 347 q 251 375 238 375 q 265 361 265 375 q 251 347 265 347 m 296 347 q 282 361 282 347 q 296 375 282 375 q 310 361 310 375 q 296 347 310 347 m 340 347 q 326 361 326 347 q 340 375 326 375 q 354 361 354 375 q 340 347 354 347 m 385 347 q 371 361 371 347 q 385 375 371 375 q 399 361 399 375 q 385 347 399 347 m 429 347 q 415 361 415 347 q 429 375 415 375 q 443 361 443 375 q 429 347 443 347 m 474 347 q 460 361 460 347 q 474 375 460 375 q 488 361 488 375 q 474 347 488 347 m 518 347 q 504 361 504 347 q 518 375 504 375 q 532 361 532 375 q 518 347 532 347 m 563 347 q 549 361 549 347 q 563 375 549 375 q 576 361 576 375 q 563 347 576 347 m 607 347 q 593 361 593 347 q 607 375 593 375 q 621 361 621 375 q 607 347 621 347 m 651 347 q 638 361 638 347 q 651 375 638 375 q 665 361 665 375 q 651 347 665 347 m 696 347 q 682 361 682 347 q 696 375 682 375 q 710 361 710 375 q 696 347 710 347 m 515 869 q 501 883 501 869 q 515 897 501 897 q 529 883 529 897 q 515 869 529 869 m 535 825 q 521 839 521 825 q 535 853 521 853 q 549 839 549 853 q 535 825 549 825 m 593 692 q 579 706 579 692 q 593 719 579 719 q 607 706 607 719 q 593 692 607 692 m 613 647 q 599 661 599 647 q 613 675 599 675 q 626 661 626 675 q 613 647 626 647 m 554 781 q 540 794 540 781 q 554 808 540 808 q 568 794 568 808 q 554 781 568 781 m 574 736 q 560 750 560 736 q 574 764 560 764 q 588 750 588 764 q 574 736 588 736 m 669 514 q 656 528 656 514 q 669 542 656 542 q 683 528 683 542 q 669 514 683 514 m 689 469 q 675 483 675 469 q 689 497 675 497 q 703 483 703 497 q 689 469 703 469 m 632 603 q 618 617 618 603 q 632 631 618 631 q 646 617 646 631 q 632 603 646 603 m 651 558 q 638 572 638 558 q 651 586 638 586 q 665 572 665 586 q 651 558 665 558 m 708 425 q 694 439 694 425 q 708 453 694 453 q 722 439 722 453 q 708 425 722 425 m 728 381 q 714 394 714 381 q 728 408 714 408 q 742 394 742 408 q 728 381 742 381 m 496 914 q 482 928 482 914 q 496 942 482 942 q 510 928 510 942 q 496 914 510 914 m 765 292 q 751 306 751 292 q 765 319 751 319 q 779 306 779 319 q 765 292 779 292 m 785 247 q 771 261 771 247 q 785 275 771 275 q 799 261 799 275 q 785 247 799 247 m 843 114 q 829 128 829 114 q 843 142 829 142 q 857 128 857 142 q 843 114 857 114 m 863 69 q 849 83 849 69 q 863 97 849 97 q 876 83 876 97 q 863 69 876 69 m 804 203 q 790 217 790 203 q 804 231 790 231 q 818 217 818 231 q 804 203 818 203 m 824 158 q 810 172 810 158 q 824 186 810 186 q 838 172 838 186 q 824 158 838 158 m 882 25 q 868 39 868 25 q 882 53 868 53 q 896 39 896 53 q 882 25 896 25 m 901 -19 q 888 -6 888 -19 q 901 8 888 8 q 915 -6 915 8 q 901 -19 915 -19 m 746 336 q 732 350 732 336 q 746 364 732 364 q 760 350 760 364 q 746 336 760 336 m 453 1149 q 439 1163 439 1149 q 453 1176 439 1176 q 467 1163 467 1176 q 453 1149 467 1149 m 482 1182 q 468 1196 468 1182 q 482 1210 468 1210 q 496 1196 496 1210 q 482 1182 496 1182 m 511 1217 q 497 1231 497 1217 q 511 1244 497 1244 q 525 1231 525 1244 q 511 1217 525 1217 m 540 1251 q 526 1264 526 1251 q 540 1278 526 1278 q 554 1264 554 1278 q 540 1251 554 1251 z "},"Ã":{"ha":947,"x_min":33,"x_max":915,"o":"m 433 869 q 419 883 419 869 q 433 897 419 897 q 447 883 447 897 q 433 869 447 869 m 414 825 q 400 839 400 825 q 414 853 400 853 q 428 839 428 853 q 414 825 428 825 m 474 958 q 460 972 460 958 q 474 986 460 986 q 488 972 488 986 q 474 958 488 958 m 356 692 q 342 706 342 692 q 356 719 342 719 q 369 706 369 719 q 356 692 369 692 m 336 647 q 322 661 322 647 q 336 675 322 675 q 350 661 350 675 q 336 647 350 647 m 394 781 q 381 794 381 781 q 394 808 381 808 q 408 794 408 808 q 394 781 408 781 m 375 736 q 361 750 361 736 q 375 764 361 764 q 389 750 389 764 q 375 736 389 736 m 279 514 q 265 528 265 514 q 279 542 265 542 q 293 528 293 542 q 279 514 293 514 m 260 469 q 246 483 246 469 q 260 497 246 497 q 274 483 274 497 q 260 469 274 469 m 317 603 q 303 617 303 603 q 317 631 303 631 q 331 617 331 631 q 317 603 331 603 m 297 558 q 283 572 283 558 q 297 586 283 586 q 311 572 311 586 q 297 558 311 558 m 240 425 q 226 439 226 425 q 240 453 226 453 q 254 439 254 453 q 240 425 254 425 m 221 381 q 207 394 207 381 q 221 408 207 408 q 235 394 235 408 q 221 381 235 381 m 453 914 q 439 928 439 914 q 453 942 439 942 q 467 928 467 942 q 453 914 467 914 m 183 292 q 169 306 169 292 q 183 319 169 319 q 197 306 197 319 q 183 292 197 292 m 164 247 q 150 261 150 247 q 164 275 150 275 q 178 261 178 275 q 164 247 178 247 m 106 114 q 92 128 92 114 q 106 142 92 142 q 119 128 119 142 q 106 114 119 114 m 86 69 q 72 83 72 69 q 86 97 72 97 q 100 83 100 97 q 86 69 100 69 m 144 203 q 131 217 131 203 q 144 231 131 231 q 158 217 158 231 q 144 203 158 203 m 125 158 q 111 172 111 158 q 125 186 111 186 q 139 172 139 186 q 125 158 139 158 m 67 25 q 53 39 53 25 q 67 53 53 53 q 81 39 81 53 q 67 25 81 25 m 47 -19 q 33 -6 33 -19 q 47 8 33 8 q 61 -6 61 8 q 47 -19 61 -19 m 203 336 q 189 350 189 336 q 203 364 189 364 q 217 350 217 364 q 203 336 217 336 m 251 347 q 238 361 238 347 q 251 375 238 375 q 265 361 265 375 q 251 347 265 347 m 296 347 q 282 361 282 347 q 296 375 282 375 q 310 361 310 375 q 296 347 310 347 m 340 347 q 326 361 326 347 q 340 375 326 375 q 354 361 354 375 q 340 347 354 347 m 385 347 q 371 361 371 347 q 385 375 371 375 q 399 361 399 375 q 385 347 399 347 m 429 347 q 415 361 415 347 q 429 375 415 375 q 443 361 443 375 q 429 347 443 347 m 474 347 q 460 361 460 347 q 474 375 460 375 q 488 361 488 375 q 474 347 488 347 m 518 347 q 504 361 504 347 q 518 375 504 375 q 532 361 532 375 q 518 347 532 347 m 563 347 q 549 361 549 347 q 563 375 549 375 q 576 361 576 375 q 563 347 576 347 m 607 347 q 593 361 593 347 q 607 375 593 375 q 621 361 621 375 q 607 347 621 347 m 651 347 q 638 361 638 347 q 651 375 638 375 q 665 361 665 375 q 651 347 665 347 m 696 347 q 682 361 682 347 q 696 375 682 375 q 710 361 710 375 q 696 347 710 347 m 515 869 q 501 883 501 869 q 515 897 501 897 q 529 883 529 897 q 515 869 529 869 m 535 825 q 521 839 521 825 q 535 853 521 853 q 549 839 549 853 q 535 825 549 825 m 593 692 q 579 706 579 692 q 593 719 579 719 q 607 706 607 719 q 593 692 607 692 m 613 647 q 599 661 599 647 q 613 675 599 675 q 626 661 626 675 q 613 647 626 647 m 554 781 q 540 794 540 781 q 554 808 540 808 q 568 794 568 808 q 554 781 568 781 m 574 736 q 560 750 560 736 q 574 764 560 764 q 588 750 588 764 q 574 736 588 736 m 669 514 q 656 528 656 514 q 669 542 656 542 q 683 528 683 542 q 669 514 683 514 m 689 469 q 675 483 675 469 q 689 497 675 497 q 703 483 703 497 q 689 469 703 469 m 632 603 q 618 617 618 603 q 632 631 618 631 q 646 617 646 631 q 632 603 646 603 m 651 558 q 638 572 638 558 q 651 586 638 586 q 665 572 665 586 q 651 558 665 558 m 708 425 q 694 439 694 425 q 708 453 694 453 q 722 439 722 453 q 708 425 722 425 m 728 381 q 714 394 714 381 q 728 408 714 408 q 742 394 742 408 q 728 381 742 381 m 496 914 q 482 928 482 914 q 496 942 482 942 q 510 928 510 942 q 496 914 510 914 m 765 292 q 751 306 751 292 q 765 319 751 319 q 779 306 779 319 q 765 292 779 292 m 785 247 q 771 261 771 247 q 785 275 771 275 q 799 261 799 275 q 785 247 799 247 m 843 114 q 829 128 829 114 q 843 142 829 142 q 857 128 857 142 q 843 114 857 114 m 863 69 q 849 83 849 69 q 863 97 849 97 q 876 83 876 97 q 863 69 876 69 m 804 203 q 790 217 790 203 q 804 231 790 231 q 818 217 818 231 q 804 203 818 203 m 824 158 q 810 172 810 158 q 824 186 810 186 q 838 172 838 186 q 824 158 838 158 m 882 25 q 868 39 868 25 q 882 53 868 53 q 896 39 896 53 q 882 25 896 25 m 901 -19 q 888 -6 888 -19 q 901 8 888 8 q 915 -6 915 8 q 901 -19 915 -19 m 746 336 q 732 350 732 336 q 746 364 732 364 q 760 350 760 364 q 746 336 760 336 m 297 1154 q 283 1168 283 1154 q 297 1182 283 1182 q 311 1168 311 1182 q 297 1154 311 1154 m 317 1199 q 303 1213 303 1199 q 317 1226 303 1226 q 331 1213 331 1226 q 317 1199 331 1199 m 354 1228 q 340 1242 340 1228 q 354 1256 340 1256 q 368 1242 368 1256 q 354 1228 368 1228 m 403 1228 q 389 1242 389 1228 q 403 1256 389 1256 q 417 1242 417 1256 q 403 1228 417 1228 m 450 1213 q 436 1226 436 1213 q 450 1240 436 1240 q 464 1226 464 1240 q 450 1213 464 1213 m 496 1190 q 482 1204 482 1190 q 496 1218 482 1218 q 510 1204 510 1218 q 496 1190 510 1190 m 544 1176 q 531 1190 531 1176 q 544 1204 531 1204 q 558 1190 558 1204 q 544 1176 558 1176 m 594 1181 q 581 1194 581 1181 q 594 1208 581 1208 q 608 1194 608 1208 q 594 1181 608 1181 m 636 1206 q 622 1219 622 1206 q 636 1233 622 1233 q 650 1219 650 1233 q 636 1206 650 1206 m 658 1250 q 644 1264 644 1250 q 658 1278 644 1278 q 672 1264 672 1278 q 658 1250 672 1250 z "},"˜":{"ha":542,"x_min":76,"x_max":465,"o":"m 90 893 q 76 907 76 893 q 90 921 76 921 q 104 907 104 921 q 90 893 104 893 m 110 938 q 96 951 96 938 q 110 965 96 965 q 124 951 124 965 q 110 938 124 938 m 147 967 q 133 981 133 967 q 147 994 133 994 q 161 981 161 994 q 147 967 161 967 m 196 967 q 182 981 182 967 q 196 994 182 994 q 210 981 210 994 q 196 967 210 967 m 243 951 q 229 965 229 951 q 243 979 229 979 q 257 965 257 979 q 243 951 257 951 m 289 929 q 275 943 275 929 q 289 957 275 957 q 303 943 303 957 q 289 929 303 929 m 338 915 q 324 929 324 915 q 338 943 324 943 q 351 929 351 943 q 338 915 351 915 m 388 919 q 374 933 374 919 q 388 947 374 947 q 401 933 401 947 q 388 919 401 919 m 429 944 q 415 958 415 944 q 429 972 415 972 q 443 958 443 972 q 429 944 443 944 m 451 989 q 438 1003 438 989 q 451 1017 438 1017 q 465 1003 465 1017 q 451 989 465 989 z "},"B":{"ha":919,"x_min":147,"x_max":839,"o":"m 161 293 q 147 307 147 293 q 161 321 147 321 q 175 307 175 321 q 161 293 175 293 m 161 236 q 147 250 147 236 q 161 264 147 264 q 175 250 175 264 q 161 236 175 236 m 161 179 q 147 193 147 179 q 161 207 147 207 q 175 193 175 207 q 161 179 175 179 m 161 122 q 147 136 147 122 q 161 150 147 150 q 175 136 175 150 q 161 122 175 122 m 161 735 q 147 749 147 735 q 161 763 147 763 q 175 749 175 763 q 161 735 175 735 m 161 681 q 147 694 147 681 q 161 708 147 708 q 175 694 175 708 q 161 681 175 681 m 161 621 q 147 635 147 621 q 161 649 147 649 q 175 635 175 649 q 161 621 175 621 m 161 510 q 147 524 147 510 q 161 538 147 538 q 175 524 175 538 q 161 510 175 510 m 161 458 q 147 472 147 458 q 161 486 147 486 q 175 472 175 486 q 161 458 175 458 m 161 403 q 147 417 147 403 q 161 431 147 431 q 175 417 175 431 q 161 403 175 403 m 161 347 q 147 361 147 347 q 161 375 147 375 q 175 361 175 375 q 161 347 175 347 m 161 944 q 147 958 147 944 q 161 972 147 972 q 175 958 175 972 q 161 944 175 944 m 161 893 q 147 907 147 893 q 161 921 147 921 q 175 907 175 921 q 161 893 175 893 m 161 840 q 147 854 147 840 q 161 868 147 868 q 175 854 175 868 q 161 840 175 840 m 161 790 q 147 804 147 790 q 161 818 147 818 q 175 804 175 818 q 161 790 175 790 m 161 565 q 147 579 147 565 q 161 593 147 593 q 175 579 175 593 q 161 565 175 565 m 161 67 q 147 81 147 67 q 161 94 147 94 q 175 81 175 94 q 161 67 175 67 m 161 11 q 147 25 147 11 q 161 39 147 39 q 175 25 175 39 q 161 11 175 11 m 207 485 q 193 499 193 485 q 207 513 193 513 q 221 499 221 513 q 207 485 221 485 m 256 485 q 242 499 242 485 q 256 513 242 513 q 269 499 269 513 q 256 485 269 485 m 304 485 q 290 499 290 485 q 304 513 290 513 q 318 499 318 513 q 304 485 318 485 m 353 485 q 339 499 339 485 q 353 513 339 513 q 367 499 367 513 q 353 485 367 485 m 401 485 q 388 499 388 485 q 401 513 388 513 q 415 499 415 513 q 401 485 415 485 m 450 485 q 436 499 436 485 q 450 513 436 513 q 464 499 464 513 q 450 485 464 485 m 499 485 q 485 499 485 485 q 499 513 485 513 q 513 499 513 513 q 499 485 513 485 m 547 485 q 533 499 533 485 q 547 513 533 513 q 561 499 561 513 q 547 485 561 485 m 596 485 q 582 499 582 485 q 596 513 582 513 q 610 499 610 513 q 596 485 610 485 m 207 8 q 193 22 193 8 q 207 36 193 36 q 221 22 221 36 q 207 8 221 8 m 256 8 q 242 22 242 8 q 256 36 242 36 q 269 22 269 36 q 256 8 269 8 m 304 8 q 290 22 290 8 q 304 36 290 36 q 318 22 318 36 q 304 8 318 8 m 353 8 q 339 22 339 8 q 353 36 339 36 q 367 22 367 36 q 353 8 367 8 m 401 8 q 388 22 388 8 q 401 36 388 36 q 415 22 415 36 q 401 8 415 8 m 450 8 q 436 22 436 8 q 450 36 436 36 q 464 22 464 36 q 450 8 464 8 m 499 8 q 485 22 485 8 q 499 36 485 36 q 513 22 513 36 q 499 8 513 8 m 547 8 q 533 22 533 8 q 547 36 533 36 q 561 22 561 36 q 547 8 561 8 m 596 8 q 582 22 582 8 q 596 36 582 36 q 610 22 610 36 q 596 8 610 8 m 207 950 q 193 964 193 950 q 207 978 193 978 q 221 964 221 978 q 207 950 221 950 m 256 950 q 242 964 242 950 q 256 978 242 978 q 269 964 269 978 q 256 950 269 950 m 304 950 q 290 964 290 950 q 304 978 290 978 q 318 964 318 978 q 304 950 318 950 m 353 950 q 339 964 339 950 q 353 978 339 978 q 367 964 367 978 q 353 950 367 950 m 401 950 q 388 964 388 950 q 401 978 388 978 q 415 964 415 978 q 401 950 415 950 m 450 950 q 436 964 436 950 q 450 978 436 978 q 464 964 464 978 q 450 950 464 950 m 499 950 q 485 964 485 950 q 499 978 485 978 q 513 964 513 978 q 499 950 513 950 m 547 950 q 533 964 533 950 q 547 978 533 978 q 561 964 561 978 q 547 950 561 950 m 597 949 q 583 963 583 949 q 597 976 583 976 q 611 963 611 976 q 597 949 611 949 m 642 486 q 628 500 628 486 q 642 514 628 514 q 656 500 656 514 q 642 486 656 486 m 686 524 q 672 538 672 524 q 686 551 672 551 q 700 538 700 551 q 686 524 700 524 m 722 556 q 708 569 708 556 q 722 583 708 583 q 736 569 736 583 q 722 556 736 556 m 751 594 q 738 608 738 594 q 751 622 738 622 q 765 608 765 622 q 751 594 765 594 m 772 640 q 758 654 758 640 q 772 668 758 668 q 786 654 786 668 q 772 640 786 640 m 782 692 q 768 706 768 692 q 782 719 768 719 q 796 706 796 719 q 782 692 796 692 m 783 743 q 769 757 769 743 q 783 771 769 771 q 797 757 797 771 q 783 743 797 743 m 775 790 q 761 804 761 790 q 775 818 761 818 q 789 804 789 818 q 775 790 789 790 m 756 838 q 742 851 742 838 q 756 865 742 865 q 769 851 769 865 q 756 838 769 838 m 728 881 q 714 894 714 881 q 728 908 714 908 q 742 894 742 908 q 728 881 742 881 m 690 917 q 676 931 676 917 q 690 944 676 944 q 704 931 704 944 q 690 917 704 917 m 646 940 q 632 954 632 940 q 646 968 632 968 q 660 954 660 968 q 646 940 660 940 m 643 40 q 657 26 657 40 q 643 13 657 13 q 629 26 629 13 q 643 40 629 40 m 683 490 q 697 476 697 490 q 683 463 697 463 q 669 476 669 463 q 683 490 669 490 m 728 469 q 742 456 742 469 q 728 442 742 442 q 714 456 714 442 q 728 469 714 469 m 764 438 q 778 424 778 438 q 764 410 778 410 q 750 424 750 410 q 764 438 750 438 m 793 399 q 807 385 807 399 q 793 371 807 371 q 779 385 779 371 q 793 399 779 399 m 814 353 q 828 339 828 353 q 814 325 828 325 q 800 339 800 325 q 814 353 800 353 m 824 301 q 838 288 838 301 q 824 274 838 274 q 810 288 810 274 q 824 301 810 301 m 825 250 q 839 236 839 250 q 825 222 839 222 q 811 236 811 222 q 825 250 811 250 m 817 203 q 831 189 831 203 q 817 175 831 175 q 803 189 803 175 q 817 203 803 203 m 797 156 q 811 142 811 156 q 797 128 811 128 q 783 142 783 128 q 797 156 783 156 m 769 113 q 783 99 783 113 q 769 85 783 85 q 756 99 756 85 q 769 113 756 113 m 732 76 q 746 63 746 76 q 732 49 746 49 q 718 63 718 49 q 732 76 718 76 m 688 53 q 701 39 701 53 q 688 25 701 25 q 674 39 674 25 q 688 53 674 53 z "},"C":{"ha":969,"x_min":71,"x_max":911,"o":"m 897 200 q 883 214 883 200 q 897 228 883 228 q 911 214 911 228 q 897 200 911 200 m 865 151 q 851 165 851 151 q 865 179 851 179 q 879 165 879 179 q 865 151 879 151 m 828 111 q 814 125 814 111 q 828 139 814 139 q 842 125 842 139 q 828 111 842 111 m 785 72 q 771 86 771 72 q 785 100 771 100 q 799 86 799 100 q 785 72 799 72 m 736 42 q 722 56 722 42 q 736 69 722 69 q 750 56 750 69 q 736 42 750 42 m 682 18 q 668 32 668 18 q 682 46 668 46 q 696 32 696 46 q 682 18 696 18 m 625 1 q 611 15 611 1 q 625 29 611 29 q 639 15 639 29 q 625 1 639 1 m 567 -7 q 553 7 553 -7 q 567 21 553 21 q 581 7 581 21 q 567 -7 581 -7 m 508 -8 q 494 6 494 -8 q 508 19 494 19 q 522 6 522 19 q 508 -8 522 -8 m 450 0 q 436 14 436 0 q 450 28 436 28 q 464 14 464 28 q 450 0 464 0 m 394 18 q 381 32 381 18 q 394 46 381 46 q 408 32 408 46 q 394 18 408 18 m 340 44 q 326 58 326 44 q 340 72 326 72 q 354 58 354 72 q 340 44 354 44 m 85 471 q 71 485 71 471 q 85 499 71 499 q 99 485 99 499 q 85 471 99 471 m 89 413 q 75 426 75 413 q 89 440 75 440 q 103 426 103 440 q 89 413 103 413 m 101 356 q 88 369 88 356 q 101 383 88 383 q 115 369 115 383 q 101 356 115 356 m 119 297 q 106 311 106 297 q 119 325 106 325 q 133 311 133 325 q 119 297 133 297 m 144 246 q 131 260 131 246 q 144 274 131 274 q 158 260 158 274 q 144 246 158 246 m 169 199 q 156 213 156 199 q 169 226 156 226 q 183 213 183 226 q 169 199 183 199 m 207 153 q 193 167 193 153 q 207 181 193 181 q 221 167 221 181 q 207 153 221 153 m 247 113 q 233 126 233 113 q 247 140 233 140 q 261 126 261 140 q 247 113 261 113 m 293 76 q 279 90 279 76 q 293 104 279 104 q 307 90 307 104 q 293 76 307 76 m 878 783 q 892 769 892 783 q 878 756 892 756 q 864 769 864 756 q 878 783 864 783 m 847 831 q 861 817 861 831 q 847 803 861 803 q 833 817 833 803 q 847 831 833 831 m 810 875 q 824 861 824 875 q 810 847 824 847 q 796 861 796 847 q 810 875 796 875 m 767 914 q 781 900 781 914 q 767 886 781 886 q 753 900 753 886 q 767 914 753 914 m 715 943 q 729 929 729 943 q 715 915 729 915 q 701 929 701 915 q 715 943 701 943 m 663 965 q 676 951 676 965 q 663 938 676 938 q 649 951 649 938 q 663 965 649 965 m 608 982 q 622 968 622 982 q 608 954 622 954 q 594 968 594 954 q 608 982 594 982 m 553 989 q 567 975 567 989 q 553 961 567 961 q 539 975 539 961 q 553 989 539 989 m 496 989 q 510 975 510 989 q 496 961 510 961 q 482 975 482 961 q 496 989 482 989 m 440 981 q 454 967 454 981 q 440 953 454 953 q 426 967 426 953 q 440 981 426 981 m 383 964 q 397 950 397 964 q 383 936 397 936 q 369 950 369 936 q 383 964 369 964 m 331 942 q 344 928 344 942 q 331 914 344 914 q 317 928 317 914 q 331 942 317 942 m 86 558 q 100 544 100 558 q 86 531 100 531 q 72 544 72 531 q 86 558 72 558 m 94 615 q 108 601 108 615 q 94 588 108 588 q 81 601 81 588 q 94 615 81 615 m 110 671 q 124 657 124 671 q 110 643 124 643 q 96 657 96 643 q 110 671 96 671 m 131 726 q 144 713 144 726 q 131 699 144 699 q 117 713 117 699 q 131 726 117 726 m 158 776 q 172 763 172 776 q 158 749 172 749 q 144 763 144 749 q 158 776 144 776 m 192 824 q 206 810 206 824 q 192 796 206 796 q 178 810 178 796 q 192 824 178 824 m 233 871 q 247 857 247 871 q 233 843 247 843 q 219 857 219 843 q 233 871 219 871 m 279 910 q 293 896 293 910 q 279 882 293 882 q 265 896 265 882 q 279 910 265 910 z "},"Ć":{"ha":969,"x_min":71,"x_max":911,"o":"m 508 1147 q 494 1161 494 1147 q 508 1175 494 1175 q 522 1161 522 1175 q 508 1147 522 1147 m 538 1181 q 524 1194 524 1181 q 538 1208 524 1208 q 551 1194 551 1208 q 538 1181 551 1181 m 567 1215 q 553 1229 553 1215 q 567 1243 553 1243 q 581 1229 581 1243 q 567 1215 581 1215 m 596 1250 q 582 1264 582 1250 q 596 1278 582 1278 q 610 1264 610 1278 q 596 1250 610 1250 m 897 200 q 883 214 883 200 q 897 228 883 228 q 911 214 911 228 q 897 200 911 200 m 865 151 q 851 165 851 151 q 865 179 851 179 q 879 165 879 179 q 865 151 879 151 m 828 111 q 814 125 814 111 q 828 139 814 139 q 842 125 842 139 q 828 111 842 111 m 785 72 q 771 86 771 72 q 785 100 771 100 q 799 86 799 100 q 785 72 799 72 m 736 42 q 722 56 722 42 q 736 69 722 69 q 750 56 750 69 q 736 42 750 42 m 682 18 q 668 32 668 18 q 682 46 668 46 q 696 32 696 46 q 682 18 696 18 m 625 1 q 611 15 611 1 q 625 29 611 29 q 639 15 639 29 q 625 1 639 1 m 567 -7 q 553 7 553 -7 q 567 21 553 21 q 581 7 581 21 q 567 -7 581 -7 m 508 -8 q 494 6 494 -8 q 508 19 494 19 q 522 6 522 19 q 508 -8 522 -8 m 450 0 q 436 14 436 0 q 450 28 436 28 q 464 14 464 28 q 450 0 464 0 m 394 18 q 381 32 381 18 q 394 46 381 46 q 408 32 408 46 q 394 18 408 18 m 340 44 q 326 58 326 44 q 340 72 326 72 q 354 58 354 72 q 340 44 354 44 m 85 471 q 71 485 71 471 q 85 499 71 499 q 99 485 99 499 q 85 471 99 471 m 89 413 q 75 426 75 413 q 89 440 75 440 q 103 426 103 440 q 89 413 103 413 m 101 356 q 88 369 88 356 q 101 383 88 383 q 115 369 115 383 q 101 356 115 356 m 119 297 q 106 311 106 297 q 119 325 106 325 q 133 311 133 325 q 119 297 133 297 m 144 246 q 131 260 131 246 q 144 274 131 274 q 158 260 158 274 q 144 246 158 246 m 169 199 q 156 213 156 199 q 169 226 156 226 q 183 213 183 226 q 169 199 183 199 m 207 153 q 193 167 193 153 q 207 181 193 181 q 221 167 221 181 q 207 153 221 153 m 247 113 q 233 126 233 113 q 247 140 233 140 q 261 126 261 140 q 247 113 261 113 m 293 76 q 279 90 279 76 q 293 104 279 104 q 307 90 307 104 q 293 76 307 76 m 878 783 q 892 769 892 783 q 878 756 892 756 q 864 769 864 756 q 878 783 864 783 m 847 831 q 861 817 861 831 q 847 803 861 803 q 833 817 833 803 q 847 831 833 831 m 810 875 q 824 861 824 875 q 810 847 824 847 q 796 861 796 847 q 810 875 796 875 m 767 914 q 781 900 781 914 q 767 886 781 886 q 753 900 753 886 q 767 914 753 914 m 715 943 q 729 929 729 943 q 715 915 729 915 q 701 929 701 915 q 715 943 701 943 m 663 965 q 676 951 676 965 q 663 938 676 938 q 649 951 649 938 q 663 965 649 965 m 608 982 q 622 968 622 982 q 608 954 622 954 q 594 968 594 954 q 608 982 594 982 m 553 989 q 567 975 567 989 q 553 961 567 961 q 539 975 539 961 q 553 989 539 989 m 496 989 q 510 975 510 989 q 496 961 510 961 q 482 975 482 961 q 496 989 482 989 m 440 981 q 454 967 454 981 q 440 953 454 953 q 426 967 426 953 q 440 981 426 981 m 383 964 q 397 950 397 964 q 383 936 397 936 q 369 950 369 936 q 383 964 369 964 m 331 942 q 344 928 344 942 q 331 914 344 914 q 317 928 317 914 q 331 942 317 942 m 86 558 q 100 544 100 558 q 86 531 100 531 q 72 544 72 531 q 86 558 72 558 m 94 615 q 108 601 108 615 q 94 588 108 588 q 81 601 81 588 q 94 615 81 615 m 110 671 q 124 657 124 671 q 110 643 124 643 q 96 657 96 643 q 110 671 96 671 m 131 726 q 144 713 144 726 q 131 699 144 699 q 117 713 117 699 q 131 726 117 726 m 158 776 q 172 763 172 776 q 158 749 172 749 q 144 763 144 749 q 158 776 144 776 m 192 824 q 206 810 206 824 q 192 796 206 796 q 178 810 178 796 q 192 824 178 824 m 233 871 q 247 857 247 871 q 233 843 247 843 q 219 857 219 843 q 233 871 219 871 m 279 910 q 293 896 293 910 q 279 882 293 882 q 265 896 265 882 q 279 910 265 910 z "},"Č":{"ha":969,"x_min":71,"x_max":911,"o":"m 532 1178 q 546 1164 546 1178 q 532 1150 546 1150 q 518 1164 518 1150 q 532 1178 518 1178 m 571 1206 q 585 1192 585 1206 q 571 1178 585 1178 q 557 1192 557 1178 q 571 1206 557 1206 m 607 1235 q 621 1221 621 1235 q 607 1207 621 1207 q 593 1221 593 1207 q 607 1235 593 1235 m 643 1263 q 657 1249 657 1263 q 643 1235 657 1235 q 629 1249 629 1235 q 643 1263 629 1263 m 493 1206 q 507 1192 507 1206 q 493 1178 507 1178 q 479 1192 479 1178 q 493 1206 479 1206 m 457 1235 q 471 1221 471 1235 q 457 1207 471 1207 q 443 1221 443 1207 q 457 1235 443 1235 m 421 1263 q 435 1249 435 1263 q 421 1235 435 1235 q 407 1249 407 1235 q 421 1263 407 1263 m 897 200 q 883 214 883 200 q 897 228 883 228 q 911 214 911 228 q 897 200 911 200 m 865 151 q 851 165 851 151 q 865 179 851 179 q 879 165 879 179 q 865 151 879 151 m 828 111 q 814 125 814 111 q 828 139 814 139 q 842 125 842 139 q 828 111 842 111 m 785 72 q 771 86 771 72 q 785 100 771 100 q 799 86 799 100 q 785 72 799 72 m 736 42 q 722 56 722 42 q 736 69 722 69 q 750 56 750 69 q 736 42 750 42 m 682 18 q 668 32 668 18 q 682 46 668 46 q 696 32 696 46 q 682 18 696 18 m 625 1 q 611 15 611 1 q 625 29 611 29 q 639 15 639 29 q 625 1 639 1 m 567 -7 q 553 7 553 -7 q 567 21 553 21 q 581 7 581 21 q 567 -7 581 -7 m 508 -8 q 494 6 494 -8 q 508 19 494 19 q 522 6 522 19 q 508 -8 522 -8 m 450 0 q 436 14 436 0 q 450 28 436 28 q 464 14 464 28 q 450 0 464 0 m 394 18 q 381 32 381 18 q 394 46 381 46 q 408 32 408 46 q 394 18 408 18 m 340 44 q 326 58 326 44 q 340 72 326 72 q 354 58 354 72 q 340 44 354 44 m 85 471 q 71 485 71 471 q 85 499 71 499 q 99 485 99 499 q 85 471 99 471 m 89 413 q 75 426 75 413 q 89 440 75 440 q 103 426 103 440 q 89 413 103 413 m 101 356 q 88 369 88 356 q 101 383 88 383 q 115 369 115 383 q 101 356 115 356 m 119 297 q 106 311 106 297 q 119 325 106 325 q 133 311 133 325 q 119 297 133 297 m 144 246 q 131 260 131 246 q 144 274 131 274 q 158 260 158 274 q 144 246 158 246 m 169 199 q 156 213 156 199 q 169 226 156 226 q 183 213 183 226 q 169 199 183 199 m 207 153 q 193 167 193 153 q 207 181 193 181 q 221 167 221 181 q 207 153 221 153 m 247 113 q 233 126 233 113 q 247 140 233 140 q 261 126 261 140 q 247 113 261 113 m 293 76 q 279 90 279 76 q 293 104 279 104 q 307 90 307 104 q 293 76 307 76 m 878 783 q 892 769 892 783 q 878 756 892 756 q 864 769 864 756 q 878 783 864 783 m 847 831 q 861 817 861 831 q 847 803 861 803 q 833 817 833 803 q 847 831 833 831 m 810 875 q 824 861 824 875 q 810 847 824 847 q 796 861 796 847 q 810 875 796 875 m 767 914 q 781 900 781 914 q 767 886 781 886 q 753 900 753 886 q 767 914 753 914 m 715 943 q 729 929 729 943 q 715 915 729 915 q 701 929 701 915 q 715 943 701 943 m 663 965 q 676 951 676 965 q 663 938 676 938 q 649 951 649 938 q 663 965 649 965 m 608 982 q 622 968 622 982 q 608 954 622 954 q 594 968 594 954 q 608 982 594 982 m 553 989 q 567 975 567 989 q 553 961 567 961 q 539 975 539 961 q 553 989 539 989 m 496 989 q 510 975 510 989 q 496 961 510 961 q 482 975 482 961 q 496 989 482 989 m 440 981 q 454 967 454 981 q 440 953 454 953 q 426 967 426 953 q 440 981 426 981 m 383 964 q 397 950 397 964 q 383 936 397 936 q 369 950 369 936 q 383 964 369 964 m 331 942 q 344 928 344 942 q 331 914 344 914 q 317 928 317 914 q 331 942 317 942 m 86 558 q 100 544 100 558 q 86 531 100 531 q 72 544 72 531 q 86 558 72 558 m 94 615 q 108 601 108 615 q 94 588 108 588 q 81 601 81 588 q 94 615 81 615 m 110 671 q 124 657 124 671 q 110 643 124 643 q 96 657 96 643 q 110 671 96 671 m 131 726 q 144 713 144 726 q 131 699 144 699 q 117 713 117 699 q 131 726 117 726 m 158 776 q 172 763 172 776 q 158 749 172 749 q 144 763 144 749 q 158 776 144 776 m 192 824 q 206 810 206 824 q 192 796 206 796 q 178 810 178 796 q 192 824 178 824 m 233 871 q 247 857 247 871 q 233 843 247 843 q 219 857 219 843 q 233 871 219 871 m 279 910 q 293 896 293 910 q 279 882 293 882 q 265 896 265 882 q 279 910 265 910 z "},"ˇ":{"ha":431,"x_min":90,"x_max":340,"o":"m 215 917 q 229 903 229 917 q 215 889 229 889 q 201 903 201 889 q 215 917 201 917 m 254 944 q 268 931 268 944 q 254 917 268 917 q 240 931 240 917 q 254 944 240 944 m 290 974 q 304 960 304 974 q 290 946 304 946 q 276 960 276 946 q 290 974 276 974 m 326 1001 q 340 988 340 1001 q 326 974 340 974 q 313 988 313 974 q 326 1001 313 1001 m 176 944 q 190 931 190 944 q 176 917 190 917 q 163 931 163 917 q 176 944 163 944 m 140 974 q 154 960 154 974 q 140 946 154 946 q 126 960 126 946 q 140 974 126 974 m 104 1001 q 118 988 118 1001 q 104 974 118 974 q 90 988 90 974 q 104 1001 90 1001 z "},"Ç":{"ha":971,"x_min":72,"x_max":913,"o":"m 486 -47 q 472 -33 472 -47 q 486 -19 472 -19 q 500 -33 500 -19 q 486 -47 500 -47 m 464 -90 q 450 -76 450 -90 q 464 -62 450 -62 q 478 -76 478 -62 q 464 -90 478 -90 m 513 -86 q 499 -72 499 -86 q 513 -58 499 -58 q 526 -72 526 -58 q 513 -86 526 -86 m 561 -87 q 547 -74 547 -87 q 561 -60 547 -60 q 575 -74 575 -60 q 561 -87 575 -87 m 606 -106 q 592 -92 592 -106 q 606 -78 592 -78 q 619 -92 619 -78 q 606 -106 619 -106 m 624 -150 q 610 -136 610 -150 q 624 -122 610 -122 q 638 -136 638 -122 q 624 -150 638 -150 m 608 -194 q 594 -181 594 -194 q 608 -167 594 -167 q 622 -181 622 -167 q 608 -194 622 -194 m 567 -215 q 553 -201 553 -215 q 567 -187 553 -187 q 581 -201 581 -187 q 567 -215 581 -215 m 519 -219 q 506 -206 506 -219 q 519 -192 506 -192 q 533 -206 533 -192 q 519 -219 533 -219 m 471 -215 q 457 -201 457 -215 q 471 -187 457 -187 q 485 -201 485 -187 q 471 -215 485 -215 m 425 -204 q 411 -190 411 -204 q 425 -176 411 -176 q 439 -190 439 -176 q 425 -204 439 -204 m 899 200 q 885 214 885 200 q 899 228 885 228 q 913 214 913 228 q 899 200 913 200 m 867 151 q 853 165 853 151 q 867 179 853 179 q 881 165 881 179 q 867 151 881 151 m 829 111 q 815 125 815 111 q 829 139 815 139 q 843 125 843 139 q 829 111 843 111 m 786 72 q 772 86 772 72 q 786 100 772 100 q 800 86 800 100 q 786 72 800 72 m 738 42 q 724 56 724 42 q 738 69 724 69 q 751 56 751 69 q 738 42 751 42 m 683 18 q 669 32 669 18 q 683 46 669 46 q 697 32 697 46 q 683 18 697 18 m 626 1 q 613 15 613 1 q 626 29 613 29 q 640 15 640 29 q 626 1 640 1 m 568 -7 q 554 7 554 -7 q 568 21 554 21 q 582 7 582 21 q 568 -7 582 -7 m 510 -8 q 496 6 496 -8 q 510 19 496 19 q 524 6 524 19 q 510 -8 524 -8 m 451 0 q 438 14 438 0 q 451 28 438 28 q 465 14 465 28 q 451 0 465 0 m 396 18 q 382 32 382 18 q 396 46 382 46 q 410 32 410 46 q 396 18 410 18 m 342 44 q 328 58 328 44 q 342 72 328 72 q 356 58 356 72 q 342 44 356 44 m 86 471 q 72 485 72 471 q 86 499 72 499 q 100 485 100 499 q 86 471 100 471 m 90 413 q 76 426 76 413 q 90 440 76 440 q 104 426 104 440 q 90 413 104 413 m 103 356 q 89 369 89 356 q 103 383 89 383 q 117 369 117 383 q 103 356 117 356 m 121 297 q 107 311 107 297 q 121 325 107 325 q 135 311 135 325 q 121 297 135 297 m 146 246 q 132 260 132 246 q 146 274 132 274 q 160 260 160 274 q 146 246 160 246 m 171 199 q 157 213 157 199 q 171 226 157 226 q 185 213 185 226 q 171 199 185 199 m 208 153 q 194 167 194 153 q 208 181 194 181 q 222 167 222 181 q 208 153 222 153 m 249 113 q 235 126 235 113 q 249 140 235 140 q 263 126 263 140 q 249 113 263 113 m 294 76 q 281 90 281 76 q 294 104 281 104 q 308 90 308 104 q 294 76 308 76 m 879 783 q 893 769 893 783 q 879 756 893 756 q 865 769 865 756 q 879 783 865 783 m 849 831 q 863 817 863 831 q 849 803 863 803 q 835 817 835 803 q 849 831 835 831 m 811 875 q 825 861 825 875 q 811 847 825 847 q 797 861 797 847 q 811 875 797 875 m 768 914 q 782 900 782 914 q 768 886 782 886 q 754 900 754 886 q 768 914 754 914 m 717 943 q 731 929 731 943 q 717 915 731 915 q 703 929 703 915 q 717 943 703 943 m 664 965 q 678 951 678 965 q 664 938 678 938 q 650 951 650 938 q 664 965 650 965 m 610 982 q 624 968 624 982 q 610 954 624 954 q 596 968 596 954 q 610 982 596 982 m 554 989 q 568 975 568 989 q 554 961 568 961 q 540 975 540 961 q 554 989 540 989 m 497 989 q 511 975 511 989 q 497 961 511 961 q 483 975 483 961 q 497 989 483 989 m 442 981 q 456 967 456 981 q 442 953 456 953 q 428 967 428 953 q 442 981 428 981 m 385 964 q 399 950 399 964 q 385 936 399 936 q 371 950 371 936 q 385 964 371 964 m 332 942 q 346 928 346 942 q 332 914 346 914 q 318 928 318 914 q 332 942 318 942 m 88 558 q 101 544 101 558 q 88 531 101 531 q 74 544 74 531 q 88 558 74 558 m 96 615 q 110 601 110 615 q 96 588 110 588 q 82 601 82 588 q 96 615 82 615 m 111 671 q 125 657 125 671 q 111 643 125 643 q 97 657 97 643 q 111 671 97 671 m 132 726 q 146 713 146 726 q 132 699 146 699 q 118 713 118 699 q 132 726 118 726 m 160 776 q 174 763 174 776 q 160 749 174 749 q 146 763 146 749 q 160 776 146 776 m 193 824 q 207 810 207 824 q 193 796 207 796 q 179 810 179 796 q 193 824 179 824 m 235 871 q 249 857 249 871 q 235 843 249 843 q 221 857 221 843 q 235 871 221 871 m 281 910 q 294 896 294 910 q 281 882 294 882 q 267 896 267 882 q 281 910 267 910 z "},"¸":{"ha":363,"x_min":56,"x_max":282,"o":"m 154 -18 q 140 -4 140 -18 q 154 10 140 10 q 168 -4 168 10 q 154 -18 168 -18 m 131 -57 q 117 -43 117 -57 q 131 -29 117 -29 q 144 -43 144 -29 q 131 -57 144 -57 m 108 -100 q 94 -86 94 -100 q 108 -72 94 -72 q 122 -86 122 -72 q 108 -100 122 -100 m 157 -96 q 143 -82 143 -96 q 157 -68 143 -68 q 171 -82 171 -68 q 157 -96 171 -96 m 206 -97 q 192 -83 192 -97 q 206 -69 192 -69 q 219 -83 219 -69 q 206 -97 219 -97 m 250 -115 q 236 -101 236 -115 q 250 -87 236 -87 q 264 -101 264 -87 q 250 -115 264 -115 m 268 -160 q 254 -146 254 -160 q 268 -132 254 -132 q 282 -146 282 -132 q 268 -160 282 -160 m 253 -204 q 239 -190 239 -204 q 253 -176 239 -176 q 267 -190 267 -176 q 253 -204 267 -204 m 211 -225 q 197 -211 197 -225 q 211 -197 197 -197 q 225 -211 225 -197 q 211 -225 225 -225 m 164 -229 q 150 -215 150 -229 q 164 -201 150 -201 q 178 -215 178 -201 q 164 -229 178 -229 m 115 -225 q 101 -211 101 -225 q 115 -197 101 -197 q 129 -211 129 -197 q 115 -225 129 -225 m 69 -214 q 56 -200 56 -214 q 69 -186 56 -186 q 83 -200 83 -186 q 69 -214 83 -214 z "},"Ĉ":{"ha":969,"x_min":71,"x_max":911,"o":"m 532 1247 q 518 1261 518 1247 q 532 1275 518 1275 q 546 1261 546 1275 q 532 1247 546 1247 m 571 1219 q 557 1233 557 1219 q 571 1247 557 1247 q 585 1233 585 1247 q 571 1219 585 1219 m 607 1190 q 593 1204 593 1190 q 607 1218 593 1218 q 621 1204 621 1218 q 607 1190 621 1190 m 643 1163 q 629 1176 629 1163 q 643 1190 629 1190 q 657 1176 657 1190 q 643 1163 657 1163 m 493 1219 q 479 1233 479 1219 q 493 1247 479 1247 q 507 1233 507 1247 q 493 1219 507 1219 m 457 1190 q 443 1204 443 1190 q 457 1218 443 1218 q 471 1204 471 1218 q 457 1190 471 1190 m 421 1163 q 407 1176 407 1163 q 421 1190 407 1190 q 435 1176 435 1190 q 421 1163 435 1163 m 897 200 q 883 214 883 200 q 897 228 883 228 q 911 214 911 228 q 897 200 911 200 m 865 151 q 851 165 851 151 q 865 179 851 179 q 879 165 879 179 q 865 151 879 151 m 828 111 q 814 125 814 111 q 828 139 814 139 q 842 125 842 139 q 828 111 842 111 m 785 72 q 771 86 771 72 q 785 100 771 100 q 799 86 799 100 q 785 72 799 72 m 736 42 q 722 56 722 42 q 736 69 722 69 q 750 56 750 69 q 736 42 750 42 m 682 18 q 668 32 668 18 q 682 46 668 46 q 696 32 696 46 q 682 18 696 18 m 625 1 q 611 15 611 1 q 625 29 611 29 q 639 15 639 29 q 625 1 639 1 m 567 -7 q 553 7 553 -7 q 567 21 553 21 q 581 7 581 21 q 567 -7 581 -7 m 508 -8 q 494 6 494 -8 q 508 19 494 19 q 522 6 522 19 q 508 -8 522 -8 m 450 0 q 436 14 436 0 q 450 28 436 28 q 464 14 464 28 q 450 0 464 0 m 394 18 q 381 32 381 18 q 394 46 381 46 q 408 32 408 46 q 394 18 408 18 m 340 44 q 326 58 326 44 q 340 72 326 72 q 354 58 354 72 q 340 44 354 44 m 85 471 q 71 485 71 471 q 85 499 71 499 q 99 485 99 499 q 85 471 99 471 m 89 413 q 75 426 75 413 q 89 440 75 440 q 103 426 103 440 q 89 413 103 413 m 101 356 q 88 369 88 356 q 101 383 88 383 q 115 369 115 383 q 101 356 115 356 m 119 297 q 106 311 106 297 q 119 325 106 325 q 133 311 133 325 q 119 297 133 297 m 144 246 q 131 260 131 246 q 144 274 131 274 q 158 260 158 274 q 144 246 158 246 m 169 199 q 156 213 156 199 q 169 226 156 226 q 183 213 183 226 q 169 199 183 199 m 207 153 q 193 167 193 153 q 207 181 193 181 q 221 167 221 181 q 207 153 221 153 m 247 113 q 233 126 233 113 q 247 140 233 140 q 261 126 261 140 q 247 113 261 113 m 293 76 q 279 90 279 76 q 293 104 279 104 q 307 90 307 104 q 293 76 307 76 m 878 783 q 892 769 892 783 q 878 756 892 756 q 864 769 864 756 q 878 783 864 783 m 847 831 q 861 817 861 831 q 847 803 861 803 q 833 817 833 803 q 847 831 833 831 m 810 875 q 824 861 824 875 q 810 847 824 847 q 796 861 796 847 q 810 875 796 875 m 767 914 q 781 900 781 914 q 767 886 781 886 q 753 900 753 886 q 767 914 753 914 m 715 943 q 729 929 729 943 q 715 915 729 915 q 701 929 701 915 q 715 943 701 943 m 663 965 q 676 951 676 965 q 663 938 676 938 q 649 951 649 938 q 663 965 649 965 m 608 982 q 622 968 622 982 q 608 954 622 954 q 594 968 594 954 q 608 982 594 982 m 553 989 q 567 975 567 989 q 553 961 567 961 q 539 975 539 961 q 553 989 539 989 m 496 989 q 510 975 510 989 q 496 961 510 961 q 482 975 482 961 q 496 989 482 989 m 440 981 q 454 967 454 981 q 440 953 454 953 q 426 967 426 953 q 440 981 426 981 m 383 964 q 397 950 397 964 q 383 936 397 936 q 369 950 369 936 q 383 964 369 964 m 331 942 q 344 928 344 942 q 331 914 344 914 q 317 928 317 914 q 331 942 317 942 m 86 558 q 100 544 100 558 q 86 531 100 531 q 72 544 72 531 q 86 558 72 558 m 94 615 q 108 601 108 615 q 94 588 108 588 q 81 601 81 588 q 94 615 81 615 m 110 671 q 124 657 124 671 q 110 643 124 643 q 96 657 96 643 q 110 671 96 671 m 131 726 q 144 713 144 726 q 131 699 144 699 q 117 713 117 699 q 131 726 117 726 m 158 776 q 172 763 172 776 q 158 749 172 749 q 144 763 144 749 q 158 776 144 776 m 192 824 q 206 810 206 824 q 192 796 206 796 q 178 810 178 796 q 192 824 178 824 m 233 871 q 247 857 247 871 q 233 843 247 843 q 219 857 219 843 q 233 871 219 871 m 279 910 q 293 896 293 910 q 279 882 293 882 q 265 896 265 882 q 279 910 265 910 z "},"Ċ":{"ha":969,"x_min":71,"x_max":911,"o":"m 897 200 q 883 214 883 200 q 897 228 883 228 q 911 214 911 228 q 897 200 911 200 m 865 151 q 851 165 851 151 q 865 179 851 179 q 879 165 879 179 q 865 151 879 151 m 828 111 q 814 125 814 111 q 828 139 814 139 q 842 125 842 139 q 828 111 842 111 m 785 72 q 771 86 771 72 q 785 100 771 100 q 799 86 799 100 q 785 72 799 72 m 736 42 q 722 56 722 42 q 736 69 722 69 q 750 56 750 69 q 736 42 750 42 m 682 18 q 668 32 668 18 q 682 46 668 46 q 696 32 696 46 q 682 18 696 18 m 625 1 q 611 15 611 1 q 625 29 611 29 q 639 15 639 29 q 625 1 639 1 m 567 -7 q 553 7 553 -7 q 567 21 553 21 q 581 7 581 21 q 567 -7 581 -7 m 508 -8 q 494 6 494 -8 q 508 19 494 19 q 522 6 522 19 q 508 -8 522 -8 m 450 0 q 436 14 436 0 q 450 28 436 28 q 464 14 464 28 q 450 0 464 0 m 394 18 q 381 32 381 18 q 394 46 381 46 q 408 32 408 46 q 394 18 408 18 m 340 44 q 326 58 326 44 q 340 72 326 72 q 354 58 354 72 q 340 44 354 44 m 85 471 q 71 485 71 471 q 85 499 71 499 q 99 485 99 499 q 85 471 99 471 m 89 413 q 75 426 75 413 q 89 440 75 440 q 103 426 103 440 q 89 413 103 413 m 101 356 q 88 369 88 356 q 101 383 88 383 q 115 369 115 383 q 101 356 115 356 m 119 297 q 106 311 106 297 q 119 325 106 325 q 133 311 133 325 q 119 297 133 297 m 144 246 q 131 260 131 246 q 144 274 131 274 q 158 260 158 274 q 144 246 158 246 m 169 199 q 156 213 156 199 q 169 226 156 226 q 183 213 183 226 q 169 199 183 199 m 207 153 q 193 167 193 153 q 207 181 193 181 q 221 167 221 181 q 207 153 221 153 m 247 113 q 233 126 233 113 q 247 140 233 140 q 261 126 261 140 q 247 113 261 113 m 293 76 q 279 90 279 76 q 293 104 279 104 q 307 90 307 104 q 293 76 307 76 m 878 783 q 892 769 892 783 q 878 756 892 756 q 864 769 864 756 q 878 783 864 783 m 847 831 q 861 817 861 831 q 847 803 861 803 q 833 817 833 803 q 847 831 833 831 m 810 875 q 824 861 824 875 q 810 847 824 847 q 796 861 796 847 q 810 875 796 875 m 767 914 q 781 900 781 914 q 767 886 781 886 q 753 900 753 886 q 767 914 753 914 m 715 943 q 729 929 729 943 q 715 915 729 915 q 701 929 701 915 q 715 943 701 943 m 663 965 q 676 951 676 965 q 663 938 676 938 q 649 951 649 938 q 663 965 649 965 m 608 982 q 622 968 622 982 q 608 954 622 954 q 594 968 594 954 q 608 982 594 982 m 553 989 q 567 975 567 989 q 553 961 567 961 q 539 975 539 961 q 553 989 539 989 m 496 989 q 510 975 510 989 q 496 961 510 961 q 482 975 482 961 q 496 989 482 989 m 440 981 q 454 967 454 981 q 440 953 454 953 q 426 967 426 953 q 440 981 426 981 m 383 964 q 397 950 397 964 q 383 936 397 936 q 369 950 369 936 q 383 964 369 964 m 331 942 q 344 928 344 942 q 331 914 344 914 q 317 928 317 914 q 331 942 317 942 m 86 558 q 100 544 100 558 q 86 531 100 531 q 72 544 72 531 q 86 558 72 558 m 94 615 q 108 601 108 615 q 94 588 108 588 q 81 601 81 588 q 94 615 81 615 m 110 671 q 124 657 124 671 q 110 643 124 643 q 96 657 96 643 q 110 671 96 671 m 131 726 q 144 713 144 726 q 131 699 144 699 q 117 713 117 699 q 131 726 117 726 m 158 776 q 172 763 172 776 q 158 749 172 749 q 144 763 144 749 q 158 776 144 776 m 192 824 q 206 810 206 824 q 192 796 206 796 q 178 810 178 796 q 192 824 178 824 m 233 871 q 247 857 247 871 q 233 843 247 843 q 219 857 219 843 q 233 871 219 871 m 279 910 q 293 896 293 910 q 279 882 293 882 q 265 896 265 882 q 279 910 265 910 m 532 1158 q 518 1172 518 1158 q 532 1186 518 1186 q 546 1172 546 1186 q 532 1158 546 1158 m 532 1204 q 518 1218 518 1204 q 532 1232 518 1232 q 546 1218 546 1232 q 532 1204 546 1204 m 532 1250 q 518 1264 518 1250 q 532 1278 518 1278 q 546 1264 546 1278 q 532 1250 546 1250 z "},"˙":{"ha":183,"x_min":78,"x_max":106,"o":"m 92 897 q 78 911 78 897 q 92 925 78 925 q 106 911 106 925 q 92 897 106 897 m 92 943 q 78 957 78 943 q 92 971 78 971 q 106 957 106 971 q 92 943 106 943 m 92 989 q 78 1003 78 989 q 92 1017 78 1017 q 106 1003 106 1017 q 92 989 106 989 z "},"D":{"ha":997,"x_min":147,"x_max":915,"o":"m 161 293 q 147 307 147 293 q 161 321 147 321 q 175 307 175 321 q 161 293 175 293 m 161 236 q 147 250 147 236 q 161 264 147 264 q 175 250 175 264 q 161 236 175 236 m 161 179 q 147 193 147 179 q 161 207 147 207 q 175 193 175 207 q 161 179 175 179 m 161 122 q 147 136 147 122 q 161 150 147 150 q 175 136 175 150 q 161 122 175 122 m 161 735 q 147 749 147 735 q 161 763 147 763 q 175 749 175 763 q 161 735 175 735 m 161 681 q 147 694 147 681 q 161 708 147 708 q 175 694 175 708 q 161 681 175 681 m 161 621 q 147 635 147 621 q 161 649 147 649 q 175 635 175 649 q 161 621 175 621 m 161 510 q 147 524 147 510 q 161 538 147 538 q 175 524 175 538 q 161 510 175 510 m 161 458 q 147 472 147 458 q 161 486 147 486 q 175 472 175 486 q 161 458 175 458 m 161 403 q 147 417 147 403 q 161 431 147 431 q 175 417 175 431 q 161 403 175 403 m 161 347 q 147 361 147 347 q 161 375 147 375 q 175 361 175 375 q 161 347 175 347 m 161 944 q 147 958 147 944 q 161 972 147 972 q 175 958 175 972 q 161 944 175 944 m 161 893 q 147 907 147 893 q 161 921 147 921 q 175 907 175 921 q 161 893 175 893 m 161 840 q 147 854 147 840 q 161 868 147 868 q 175 854 175 868 q 161 840 175 840 m 161 790 q 147 804 147 790 q 161 818 147 818 q 175 804 175 818 q 161 790 175 790 m 161 565 q 147 579 147 565 q 161 593 147 593 q 175 579 175 593 q 161 565 175 565 m 161 67 q 147 81 147 67 q 161 94 147 94 q 175 81 175 94 q 161 67 175 67 m 161 11 q 147 25 147 11 q 161 39 147 39 q 175 25 175 39 q 161 11 175 11 m 207 8 q 193 22 193 8 q 207 36 193 36 q 221 22 221 36 q 207 8 221 8 m 256 8 q 242 22 242 8 q 256 36 242 36 q 269 22 269 36 q 256 8 269 8 m 304 8 q 290 22 290 8 q 304 36 290 36 q 318 22 318 36 q 304 8 318 8 m 353 8 q 339 22 339 8 q 353 36 339 36 q 367 22 367 36 q 353 8 367 8 m 404 8 q 390 22 390 8 q 404 36 390 36 q 418 22 418 36 q 404 8 418 8 m 457 8 q 443 22 443 8 q 457 36 443 36 q 471 22 471 36 q 457 8 471 8 m 510 10 q 496 24 496 10 q 510 38 496 38 q 524 24 524 38 q 510 10 524 10 m 564 17 q 550 31 550 17 q 564 44 550 44 q 578 31 578 44 q 564 17 578 17 m 622 31 q 608 44 608 31 q 622 58 608 58 q 636 44 636 58 q 622 31 636 31 m 207 949 q 193 963 193 949 q 207 976 193 976 q 221 963 221 976 q 207 949 221 949 m 256 949 q 242 963 242 949 q 256 976 242 976 q 269 963 269 976 q 256 949 269 949 m 304 949 q 290 963 290 949 q 304 976 290 976 q 318 963 318 976 q 304 949 318 949 m 353 949 q 339 963 339 949 q 353 976 339 976 q 367 963 367 976 q 353 949 367 949 m 401 949 q 388 963 388 949 q 401 976 388 976 q 415 963 415 976 q 401 949 415 949 m 450 949 q 436 963 436 949 q 450 976 436 976 q 464 963 464 976 q 450 949 464 949 m 499 947 q 485 961 485 947 q 499 975 485 975 q 513 961 513 975 q 499 947 513 947 m 547 943 q 533 957 533 943 q 547 971 533 971 q 561 957 561 971 q 547 943 561 943 m 596 935 q 582 949 582 935 q 596 963 582 963 q 610 949 610 963 q 596 935 610 935 m 675 53 q 661 67 661 53 q 675 81 661 81 q 689 67 689 81 q 675 53 689 53 m 643 918 q 629 932 629 918 q 643 946 629 946 q 657 932 657 946 q 643 918 657 918 m 686 897 q 672 911 672 897 q 686 925 672 925 q 700 911 700 925 q 686 897 700 897 m 729 871 q 715 885 715 871 q 729 899 715 899 q 743 885 743 899 q 729 871 743 871 m 767 838 q 753 851 753 838 q 767 865 753 865 q 781 851 781 865 q 767 838 781 838 m 800 799 q 786 813 786 799 q 800 826 786 826 q 814 813 814 826 q 800 799 814 799 m 831 758 q 817 772 817 758 q 831 786 817 786 q 844 772 844 786 q 831 758 844 758 m 853 713 q 839 726 839 713 q 853 740 839 740 q 867 726 867 740 q 853 713 867 713 m 869 664 q 856 678 856 664 q 869 692 856 692 q 883 678 883 692 q 869 664 883 664 m 883 615 q 869 629 869 615 q 883 643 869 643 q 897 629 897 643 q 883 615 897 615 m 894 567 q 881 581 881 567 q 894 594 881 594 q 908 581 908 594 q 894 567 908 567 m 900 515 q 886 529 886 515 q 900 543 886 543 q 914 529 914 543 q 900 515 914 515 m 901 461 q 888 475 888 461 q 901 489 888 489 q 915 475 915 489 q 901 461 915 461 m 900 410 q 886 424 886 410 q 900 438 886 438 q 914 424 914 438 q 900 410 914 410 m 893 361 q 879 375 879 361 q 893 389 879 389 q 907 375 907 389 q 893 361 907 361 m 881 310 q 867 324 867 310 q 881 338 867 338 q 894 324 894 338 q 881 310 894 310 m 861 258 q 847 272 847 258 q 861 286 847 286 q 875 272 875 286 q 861 258 875 258 m 836 211 q 822 225 822 211 q 836 239 822 239 q 850 225 850 239 q 836 211 850 211 m 807 160 q 793 174 793 160 q 807 188 793 188 q 821 174 821 188 q 807 160 821 160 m 768 117 q 754 131 754 117 q 768 144 754 144 q 782 131 782 144 q 768 117 782 117 m 724 82 q 710 96 710 82 q 724 110 710 110 q 738 96 738 110 q 724 82 738 82 z "},"Ď":{"ha":997,"x_min":147,"x_max":915,"o":"m 489 1178 q 503 1164 503 1178 q 489 1150 503 1150 q 475 1164 475 1150 q 489 1178 475 1178 m 528 1206 q 542 1192 542 1206 q 528 1178 542 1178 q 514 1192 514 1178 q 528 1206 514 1206 m 564 1235 q 578 1221 578 1235 q 564 1207 578 1207 q 550 1221 550 1207 q 564 1235 550 1235 m 600 1263 q 614 1249 614 1263 q 600 1235 614 1235 q 586 1249 586 1235 q 600 1263 586 1263 m 450 1206 q 464 1192 464 1206 q 450 1178 464 1178 q 436 1192 436 1178 q 450 1206 436 1206 m 414 1235 q 428 1221 428 1235 q 414 1207 428 1207 q 400 1221 400 1207 q 414 1235 400 1235 m 378 1263 q 392 1249 392 1263 q 378 1235 392 1235 q 364 1249 364 1235 q 378 1263 364 1263 m 161 293 q 147 307 147 293 q 161 321 147 321 q 175 307 175 321 q 161 293 175 293 m 161 236 q 147 250 147 236 q 161 264 147 264 q 175 250 175 264 q 161 236 175 236 m 161 179 q 147 193 147 179 q 161 207 147 207 q 175 193 175 207 q 161 179 175 179 m 161 122 q 147 136 147 122 q 161 150 147 150 q 175 136 175 150 q 161 122 175 122 m 161 735 q 147 749 147 735 q 161 763 147 763 q 175 749 175 763 q 161 735 175 735 m 161 681 q 147 694 147 681 q 161 708 147 708 q 175 694 175 708 q 161 681 175 681 m 161 621 q 147 635 147 621 q 161 649 147 649 q 175 635 175 649 q 161 621 175 621 m 161 510 q 147 524 147 510 q 161 538 147 538 q 175 524 175 538 q 161 510 175 510 m 161 458 q 147 472 147 458 q 161 486 147 486 q 175 472 175 486 q 161 458 175 458 m 161 403 q 147 417 147 403 q 161 431 147 431 q 175 417 175 431 q 161 403 175 403 m 161 347 q 147 361 147 347 q 161 375 147 375 q 175 361 175 375 q 161 347 175 347 m 161 944 q 147 958 147 944 q 161 972 147 972 q 175 958 175 972 q 161 944 175 944 m 161 893 q 147 907 147 893 q 161 921 147 921 q 175 907 175 921 q 161 893 175 893 m 161 840 q 147 854 147 840 q 161 868 147 868 q 175 854 175 868 q 161 840 175 840 m 161 790 q 147 804 147 790 q 161 818 147 818 q 175 804 175 818 q 161 790 175 790 m 161 565 q 147 579 147 565 q 161 593 147 593 q 175 579 175 593 q 161 565 175 565 m 161 67 q 147 81 147 67 q 161 94 147 94 q 175 81 175 94 q 161 67 175 67 m 161 11 q 147 25 147 11 q 161 39 147 39 q 175 25 175 39 q 161 11 175 11 m 207 8 q 193 22 193 8 q 207 36 193 36 q 221 22 221 36 q 207 8 221 8 m 256 8 q 242 22 242 8 q 256 36 242 36 q 269 22 269 36 q 256 8 269 8 m 304 8 q 290 22 290 8 q 304 36 290 36 q 318 22 318 36 q 304 8 318 8 m 353 8 q 339 22 339 8 q 353 36 339 36 q 367 22 367 36 q 353 8 367 8 m 404 8 q 390 22 390 8 q 404 36 390 36 q 418 22 418 36 q 404 8 418 8 m 457 8 q 443 22 443 8 q 457 36 443 36 q 471 22 471 36 q 457 8 471 8 m 510 10 q 496 24 496 10 q 510 38 496 38 q 524 24 524 38 q 510 10 524 10 m 564 17 q 550 31 550 17 q 564 44 550 44 q 578 31 578 44 q 564 17 578 17 m 622 31 q 608 44 608 31 q 622 58 608 58 q 636 44 636 58 q 622 31 636 31 m 207 949 q 193 963 193 949 q 207 976 193 976 q 221 963 221 976 q 207 949 221 949 m 256 949 q 242 963 242 949 q 256 976 242 976 q 269 963 269 976 q 256 949 269 949 m 304 949 q 290 963 290 949 q 304 976 290 976 q 318 963 318 976 q 304 949 318 949 m 353 949 q 339 963 339 949 q 353 976 339 976 q 367 963 367 976 q 353 949 367 949 m 401 949 q 388 963 388 949 q 401 976 388 976 q 415 963 415 976 q 401 949 415 949 m 450 949 q 436 963 436 949 q 450 976 436 976 q 464 963 464 976 q 450 949 464 949 m 499 947 q 485 961 485 947 q 499 975 485 975 q 513 961 513 975 q 499 947 513 947 m 547 943 q 533 957 533 943 q 547 971 533 971 q 561 957 561 971 q 547 943 561 943 m 596 935 q 582 949 582 935 q 596 963 582 963 q 610 949 610 963 q 596 935 610 935 m 675 53 q 661 67 661 53 q 675 81 661 81 q 689 67 689 81 q 675 53 689 53 m 643 918 q 629 932 629 918 q 643 946 629 946 q 657 932 657 946 q 643 918 657 918 m 686 897 q 672 911 672 897 q 686 925 672 925 q 700 911 700 925 q 686 897 700 897 m 729 871 q 715 885 715 871 q 729 899 715 899 q 743 885 743 899 q 729 871 743 871 m 767 838 q 753 851 753 838 q 767 865 753 865 q 781 851 781 865 q 767 838 781 838 m 800 799 q 786 813 786 799 q 800 826 786 826 q 814 813 814 826 q 800 799 814 799 m 831 758 q 817 772 817 758 q 831 786 817 786 q 844 772 844 786 q 831 758 844 758 m 853 713 q 839 726 839 713 q 853 740 839 740 q 867 726 867 740 q 853 713 867 713 m 869 664 q 856 678 856 664 q 869 692 856 692 q 883 678 883 692 q 869 664 883 664 m 883 615 q 869 629 869 615 q 883 643 869 643 q 897 629 897 643 q 883 615 897 615 m 894 567 q 881 581 881 567 q 894 594 881 594 q 908 581 908 594 q 894 567 908 567 m 900 515 q 886 529 886 515 q 900 543 886 543 q 914 529 914 543 q 900 515 914 515 m 901 461 q 888 475 888 461 q 901 489 888 489 q 915 475 915 489 q 901 461 915 461 m 900 410 q 886 424 886 410 q 900 438 886 438 q 914 424 914 438 q 900 410 914 410 m 893 361 q 879 375 879 361 q 893 389 879 389 q 907 375 907 389 q 893 361 907 361 m 881 310 q 867 324 867 310 q 881 338 867 338 q 894 324 894 338 q 881 310 894 310 m 861 258 q 847 272 847 258 q 861 286 847 286 q 875 272 875 286 q 861 258 875 258 m 836 211 q 822 225 822 211 q 836 239 822 239 q 850 225 850 239 q 836 211 850 211 m 807 160 q 793 174 793 160 q 807 188 793 188 q 821 174 821 188 q 807 160 821 160 m 768 117 q 754 131 754 117 q 768 144 754 144 q 782 131 782 144 q 768 117 782 117 m 724 82 q 710 96 710 82 q 724 110 710 110 q 738 96 738 110 q 724 82 738 82 z "},"Đ":{"ha":1006,"x_min":53,"x_max":924,"o":"m 221 538 q 235 524 235 538 q 221 510 235 510 q 207 524 207 510 q 221 538 207 538 m 272 538 q 286 524 286 538 q 272 510 286 510 q 258 524 258 510 q 272 538 258 538 m 324 538 q 338 524 338 538 q 324 510 338 510 q 310 524 310 510 q 324 538 310 538 m 375 538 q 389 524 389 538 q 375 510 389 510 q 361 524 361 510 q 375 538 361 538 m 426 538 q 440 524 440 538 q 426 510 440 510 q 413 524 413 510 q 426 538 413 538 m 118 538 q 132 524 132 538 q 118 510 132 510 q 104 524 104 510 q 118 538 104 538 m 67 538 q 81 524 81 538 q 67 510 81 510 q 53 524 53 510 q 67 538 53 538 m 169 293 q 156 307 156 293 q 169 321 156 321 q 183 307 183 321 q 169 293 183 293 m 169 236 q 156 250 156 236 q 169 264 156 264 q 183 250 183 264 q 169 236 183 236 m 169 179 q 156 193 156 179 q 169 207 156 207 q 183 193 183 207 q 169 179 183 179 m 169 122 q 156 136 156 122 q 169 150 156 150 q 183 136 183 150 q 169 122 183 122 m 169 735 q 156 749 156 735 q 169 763 156 763 q 183 749 183 763 q 169 735 183 735 m 169 681 q 156 694 156 681 q 169 708 156 708 q 183 694 183 708 q 169 681 183 681 m 169 621 q 156 635 156 621 q 169 649 156 649 q 183 635 183 649 q 169 621 183 621 m 169 510 q 156 524 156 510 q 169 538 156 538 q 183 524 183 538 q 169 510 183 510 m 169 458 q 156 472 156 458 q 169 486 156 486 q 183 472 183 486 q 169 458 183 458 m 169 403 q 156 417 156 403 q 169 431 156 431 q 183 417 183 431 q 169 403 183 403 m 169 347 q 156 361 156 347 q 169 375 156 375 q 183 361 183 375 q 169 347 183 347 m 169 944 q 156 958 156 944 q 169 972 156 972 q 183 958 183 972 q 169 944 183 944 m 169 893 q 156 907 156 893 q 169 921 156 921 q 183 907 183 921 q 169 893 183 893 m 169 840 q 156 854 156 840 q 169 868 156 868 q 183 854 183 868 q 169 840 183 840 m 169 790 q 156 804 156 790 q 169 818 156 818 q 183 804 183 818 q 169 790 183 790 m 169 565 q 156 579 156 565 q 169 593 156 593 q 183 579 183 593 q 169 565 183 565 m 169 67 q 156 81 156 67 q 169 94 156 94 q 183 81 183 94 q 169 67 183 67 m 169 11 q 156 25 156 11 q 169 39 156 39 q 183 25 183 39 q 169 11 183 11 m 215 8 q 201 22 201 8 q 215 36 201 36 q 229 22 229 36 q 215 8 229 8 m 264 8 q 250 22 250 8 q 264 36 250 36 q 278 22 278 36 q 264 8 278 8 m 313 8 q 299 22 299 8 q 313 36 299 36 q 326 22 326 36 q 313 8 326 8 m 361 8 q 347 22 347 8 q 361 36 347 36 q 375 22 375 36 q 361 8 375 8 m 413 8 q 399 22 399 8 q 413 36 399 36 q 426 22 426 36 q 413 8 426 8 m 465 8 q 451 22 451 8 q 465 36 451 36 q 479 22 479 36 q 465 8 479 8 m 518 10 q 504 24 504 10 q 518 38 504 38 q 532 24 532 38 q 518 10 532 10 m 572 17 q 558 31 558 17 q 572 44 558 44 q 586 31 586 44 q 572 17 586 17 m 631 31 q 617 44 617 31 q 631 58 617 58 q 644 44 644 58 q 631 31 644 31 m 215 949 q 201 963 201 949 q 215 976 201 976 q 229 963 229 976 q 215 949 229 949 m 264 949 q 250 963 250 949 q 264 976 250 976 q 278 963 278 976 q 264 949 278 949 m 313 949 q 299 963 299 949 q 313 976 299 976 q 326 963 326 976 q 313 949 326 949 m 361 949 q 347 963 347 949 q 361 976 347 976 q 375 963 375 976 q 361 949 375 949 m 410 949 q 396 963 396 949 q 410 976 396 976 q 424 963 424 976 q 410 949 424 949 m 458 949 q 444 963 444 949 q 458 976 444 976 q 472 963 472 976 q 458 949 472 949 m 507 947 q 493 961 493 947 q 507 975 493 975 q 521 961 521 975 q 507 947 521 947 m 556 943 q 542 957 542 943 q 556 971 542 971 q 569 957 569 971 q 556 943 569 943 m 604 935 q 590 949 590 935 q 604 963 590 963 q 618 949 618 963 q 604 935 618 935 m 683 53 q 669 67 669 53 q 683 81 669 81 q 697 67 697 81 q 683 53 697 53 m 651 918 q 638 932 638 918 q 651 946 638 946 q 665 932 665 946 q 651 918 665 918 m 694 897 q 681 911 681 897 q 694 925 681 925 q 708 911 708 925 q 694 897 708 897 m 738 871 q 724 885 724 871 q 738 899 724 899 q 751 885 751 899 q 738 871 751 871 m 775 838 q 761 851 761 838 q 775 865 761 865 q 789 851 789 865 q 775 838 789 838 m 808 799 q 794 813 794 799 q 808 826 794 826 q 822 813 822 826 q 808 799 822 799 m 839 758 q 825 772 825 758 q 839 786 825 786 q 853 772 853 786 q 839 758 853 758 m 861 713 q 847 726 847 713 q 861 740 847 740 q 875 726 875 740 q 861 713 875 713 m 878 664 q 864 678 864 664 q 878 692 864 692 q 892 678 892 692 q 878 664 892 664 m 892 615 q 878 629 878 615 q 892 643 878 643 q 906 629 906 643 q 892 615 906 615 m 903 567 q 889 581 889 567 q 903 594 889 594 q 917 581 917 594 q 903 567 917 567 m 908 515 q 894 529 894 515 q 908 543 894 543 q 922 529 922 543 q 908 515 922 515 m 910 461 q 896 475 896 461 q 910 489 896 489 q 924 475 924 489 q 910 461 924 461 m 908 410 q 894 424 894 410 q 908 438 894 438 q 922 424 922 438 q 908 410 922 410 m 901 361 q 888 375 888 361 q 901 389 888 389 q 915 375 915 389 q 901 361 915 361 m 889 310 q 875 324 875 310 q 889 338 875 338 q 903 324 903 338 q 889 310 903 310 m 869 258 q 856 272 856 258 q 869 286 856 286 q 883 272 883 286 q 869 258 883 258 m 844 211 q 831 225 831 211 q 844 239 831 239 q 858 225 858 239 q 844 211 858 211 m 815 160 q 801 174 801 160 q 815 188 801 188 q 829 174 829 188 q 815 160 829 160 m 776 117 q 763 131 763 117 q 776 144 763 144 q 790 131 790 144 q 776 117 790 117 m 732 82 q 718 96 718 82 q 732 110 718 110 q 746 96 746 110 q 732 82 746 82 z "},"E":{"ha":857,"x_min":147,"x_max":768,"o":"m 161 293 q 147 307 147 293 q 161 321 147 321 q 175 307 175 321 q 161 293 175 293 m 161 236 q 147 250 147 236 q 161 264 147 264 q 175 250 175 264 q 161 236 175 236 m 161 179 q 147 193 147 179 q 161 207 147 207 q 175 193 175 207 q 161 179 175 179 m 161 122 q 147 136 147 122 q 161 150 147 150 q 175 136 175 150 q 161 122 175 122 m 161 735 q 147 749 147 735 q 161 763 147 763 q 175 749 175 763 q 161 735 175 735 m 161 681 q 147 694 147 681 q 161 708 147 708 q 175 694 175 708 q 161 681 175 681 m 161 621 q 147 635 147 621 q 161 649 147 649 q 175 635 175 649 q 161 621 175 621 m 161 510 q 147 524 147 510 q 161 538 147 538 q 175 524 175 538 q 161 510 175 510 m 161 458 q 147 472 147 458 q 161 486 147 486 q 175 472 175 486 q 161 458 175 458 m 161 403 q 147 417 147 403 q 161 431 147 431 q 175 417 175 431 q 161 403 175 403 m 161 347 q 147 361 147 347 q 161 375 147 375 q 175 361 175 375 q 161 347 175 347 m 161 944 q 147 958 147 944 q 161 972 147 972 q 175 958 175 972 q 161 944 175 944 m 161 893 q 147 907 147 893 q 161 921 147 921 q 175 907 175 921 q 161 893 175 893 m 161 840 q 147 854 147 840 q 161 868 147 868 q 175 854 175 868 q 161 840 175 840 m 161 790 q 147 804 147 790 q 161 818 147 818 q 175 804 175 818 q 161 790 175 790 m 161 565 q 147 579 147 565 q 161 593 147 593 q 175 579 175 593 q 161 565 175 565 m 161 67 q 147 81 147 67 q 161 94 147 94 q 175 81 175 94 q 161 67 175 67 m 161 11 q 147 25 147 11 q 161 39 147 39 q 175 25 175 39 q 161 11 175 11 m 213 946 q 199 960 199 946 q 213 974 199 974 q 226 960 226 974 q 213 946 226 946 m 261 946 q 247 960 247 946 q 261 974 247 974 q 275 960 275 974 q 261 946 275 946 m 310 946 q 296 960 296 946 q 310 974 296 974 q 324 960 324 974 q 310 946 324 946 m 360 946 q 346 960 346 946 q 360 974 346 974 q 374 960 374 974 q 360 946 374 946 m 410 946 q 396 960 396 946 q 410 974 396 974 q 424 960 424 974 q 410 946 424 946 m 458 946 q 444 960 444 946 q 458 974 444 974 q 472 960 472 974 q 458 946 472 946 m 507 946 q 493 960 493 946 q 507 974 493 974 q 521 960 521 974 q 507 946 521 946 m 557 946 q 543 960 543 946 q 557 974 543 974 q 571 960 571 974 q 557 946 571 946 m 606 946 q 592 960 592 946 q 606 974 592 974 q 619 960 619 974 q 606 946 619 946 m 656 946 q 642 960 642 946 q 656 974 642 974 q 669 960 669 974 q 656 946 669 946 m 706 946 q 692 960 692 946 q 706 974 692 974 q 719 960 719 974 q 706 946 719 946 m 754 946 q 740 960 740 946 q 754 974 740 974 q 768 960 768 974 q 754 946 768 946 m 207 486 q 193 500 193 486 q 207 514 193 514 q 221 500 221 514 q 207 486 221 486 m 256 486 q 242 500 242 486 q 256 514 242 514 q 269 500 269 514 q 256 486 269 486 m 304 486 q 290 500 290 486 q 304 514 290 514 q 318 500 318 514 q 304 486 318 486 m 354 486 q 340 500 340 486 q 354 514 340 514 q 368 500 368 514 q 354 486 368 486 m 404 486 q 390 500 390 486 q 404 514 390 514 q 418 500 418 514 q 404 486 418 486 m 453 486 q 439 500 439 486 q 453 514 439 514 q 467 500 467 514 q 453 486 467 486 m 501 486 q 488 500 488 486 q 501 514 488 514 q 515 500 515 514 q 501 486 515 486 m 551 486 q 538 500 538 486 q 551 514 538 514 q 565 500 565 514 q 551 486 565 486 m 600 486 q 586 500 586 486 q 600 514 586 514 q 614 500 614 514 q 600 486 614 486 m 650 486 q 636 500 636 486 q 650 514 636 514 q 664 500 664 514 q 650 486 664 486 m 700 486 q 686 500 686 486 q 700 514 686 514 q 714 500 714 514 q 700 486 714 486 m 210 10 q 196 24 196 10 q 210 38 196 38 q 224 24 224 38 q 210 10 224 10 m 258 10 q 244 24 244 10 q 258 38 244 38 q 272 24 272 38 q 258 10 272 10 m 307 10 q 293 24 293 10 q 307 38 293 38 q 321 24 321 38 q 307 10 321 10 m 357 10 q 343 24 343 10 q 357 38 343 38 q 371 24 371 38 q 357 10 371 10 m 407 10 q 393 24 393 10 q 407 38 393 38 q 421 24 421 38 q 407 10 421 10 m 456 10 q 442 24 442 10 q 456 38 442 38 q 469 24 469 38 q 456 10 469 10 m 504 10 q 490 24 490 10 q 504 38 490 38 q 518 24 518 38 q 504 10 518 10 m 554 10 q 540 24 540 10 q 554 38 540 38 q 568 24 568 38 q 554 10 568 10 m 603 10 q 589 24 589 10 q 603 38 589 38 q 617 24 617 38 q 603 10 617 10 m 653 10 q 639 24 639 10 q 653 38 639 38 q 667 24 667 38 q 653 10 667 10 m 703 10 q 689 24 689 10 q 703 38 689 38 q 717 24 717 38 q 703 10 717 10 m 751 10 q 738 24 738 10 q 751 38 738 38 q 765 24 765 38 q 751 10 765 10 z "},"É":{"ha":857,"x_min":147,"x_max":768,"o":"m 453 1147 q 439 1161 439 1147 q 453 1175 439 1175 q 467 1161 467 1175 q 453 1147 467 1147 m 482 1181 q 468 1194 468 1181 q 482 1208 468 1208 q 496 1194 496 1208 q 482 1181 496 1181 m 511 1215 q 497 1229 497 1215 q 511 1243 497 1243 q 525 1229 525 1243 q 511 1215 525 1215 m 540 1250 q 526 1264 526 1250 q 540 1278 526 1278 q 554 1264 554 1278 q 540 1250 554 1250 m 161 293 q 147 307 147 293 q 161 321 147 321 q 175 307 175 321 q 161 293 175 293 m 161 236 q 147 250 147 236 q 161 264 147 264 q 175 250 175 264 q 161 236 175 236 m 161 179 q 147 193 147 179 q 161 207 147 207 q 175 193 175 207 q 161 179 175 179 m 161 122 q 147 136 147 122 q 161 150 147 150 q 175 136 175 150 q 161 122 175 122 m 161 735 q 147 749 147 735 q 161 763 147 763 q 175 749 175 763 q 161 735 175 735 m 161 681 q 147 694 147 681 q 161 708 147 708 q 175 694 175 708 q 161 681 175 681 m 161 621 q 147 635 147 621 q 161 649 147 649 q 175 635 175 649 q 161 621 175 621 m 161 510 q 147 524 147 510 q 161 538 147 538 q 175 524 175 538 q 161 510 175 510 m 161 458 q 147 472 147 458 q 161 486 147 486 q 175 472 175 486 q 161 458 175 458 m 161 403 q 147 417 147 403 q 161 431 147 431 q 175 417 175 431 q 161 403 175 403 m 161 347 q 147 361 147 347 q 161 375 147 375 q 175 361 175 375 q 161 347 175 347 m 161 944 q 147 958 147 944 q 161 972 147 972 q 175 958 175 972 q 161 944 175 944 m 161 893 q 147 907 147 893 q 161 921 147 921 q 175 907 175 921 q 161 893 175 893 m 161 840 q 147 854 147 840 q 161 868 147 868 q 175 854 175 868 q 161 840 175 840 m 161 790 q 147 804 147 790 q 161 818 147 818 q 175 804 175 818 q 161 790 175 790 m 161 565 q 147 579 147 565 q 161 593 147 593 q 175 579 175 593 q 161 565 175 565 m 161 67 q 147 81 147 67 q 161 94 147 94 q 175 81 175 94 q 161 67 175 67 m 161 11 q 147 25 147 11 q 161 39 147 39 q 175 25 175 39 q 161 11 175 11 m 213 946 q 199 960 199 946 q 213 974 199 974 q 226 960 226 974 q 213 946 226 946 m 261 946 q 247 960 247 946 q 261 974 247 974 q 275 960 275 974 q 261 946 275 946 m 310 946 q 296 960 296 946 q 310 974 296 974 q 324 960 324 974 q 310 946 324 946 m 360 946 q 346 960 346 946 q 360 974 346 974 q 374 960 374 974 q 360 946 374 946 m 410 946 q 396 960 396 946 q 410 974 396 974 q 424 960 424 974 q 410 946 424 946 m 458 946 q 444 960 444 946 q 458 974 444 974 q 472 960 472 974 q 458 946 472 946 m 507 946 q 493 960 493 946 q 507 974 493 974 q 521 960 521 974 q 507 946 521 946 m 557 946 q 543 960 543 946 q 557 974 543 974 q 571 960 571 974 q 557 946 571 946 m 606 946 q 592 960 592 946 q 606 974 592 974 q 619 960 619 974 q 606 946 619 946 m 656 946 q 642 960 642 946 q 656 974 642 974 q 669 960 669 974 q 656 946 669 946 m 706 946 q 692 960 692 946 q 706 974 692 974 q 719 960 719 974 q 706 946 719 946 m 754 946 q 740 960 740 946 q 754 974 740 974 q 768 960 768 974 q 754 946 768 946 m 207 486 q 193 500 193 486 q 207 514 193 514 q 221 500 221 514 q 207 486 221 486 m 256 486 q 242 500 242 486 q 256 514 242 514 q 269 500 269 514 q 256 486 269 486 m 304 486 q 290 500 290 486 q 304 514 290 514 q 318 500 318 514 q 304 486 318 486 m 354 486 q 340 500 340 486 q 354 514 340 514 q 368 500 368 514 q 354 486 368 486 m 404 486 q 390 500 390 486 q 404 514 390 514 q 418 500 418 514 q 404 486 418 486 m 453 486 q 439 500 439 486 q 453 514 439 514 q 467 500 467 514 q 453 486 467 486 m 501 486 q 488 500 488 486 q 501 514 488 514 q 515 500 515 514 q 501 486 515 486 m 551 486 q 538 500 538 486 q 551 514 538 514 q 565 500 565 514 q 551 486 565 486 m 600 486 q 586 500 586 486 q 600 514 586 514 q 614 500 614 514 q 600 486 614 486 m 650 486 q 636 500 636 486 q 650 514 636 514 q 664 500 664 514 q 650 486 664 486 m 700 486 q 686 500 686 486 q 700 514 686 514 q 714 500 714 514 q 700 486 714 486 m 210 10 q 196 24 196 10 q 210 38 196 38 q 224 24 224 38 q 210 10 224 10 m 258 10 q 244 24 244 10 q 258 38 244 38 q 272 24 272 38 q 258 10 272 10 m 307 10 q 293 24 293 10 q 307 38 293 38 q 321 24 321 38 q 307 10 321 10 m 357 10 q 343 24 343 10 q 357 38 343 38 q 371 24 371 38 q 357 10 371 10 m 407 10 q 393 24 393 10 q 407 38 393 38 q 421 24 421 38 q 407 10 421 10 m 456 10 q 442 24 442 10 q 456 38 442 38 q 469 24 469 38 q 456 10 469 10 m 504 10 q 490 24 490 10 q 504 38 490 38 q 518 24 518 38 q 504 10 518 10 m 554 10 q 540 24 540 10 q 554 38 540 38 q 568 24 568 38 q 554 10 568 10 m 603 10 q 589 24 589 10 q 603 38 589 38 q 617 24 617 38 q 603 10 617 10 m 653 10 q 639 24 639 10 q 653 38 639 38 q 667 24 667 38 q 653 10 667 10 m 703 10 q 689 24 689 10 q 703 38 689 38 q 717 24 717 38 q 703 10 717 10 m 751 10 q 738 24 738 10 q 751 38 738 38 q 765 24 765 38 q 751 10 765 10 z "},"Ĕ":{"ha":857,"x_min":147,"x_max":768,"o":"m 161 293 q 147 307 147 293 q 161 321 147 321 q 175 307 175 321 q 161 293 175 293 m 161 236 q 147 250 147 236 q 161 264 147 264 q 175 250 175 264 q 161 236 175 236 m 161 179 q 147 193 147 179 q 161 207 147 207 q 175 193 175 207 q 161 179 175 179 m 161 122 q 147 136 147 122 q 161 150 147 150 q 175 136 175 150 q 161 122 175 122 m 161 735 q 147 749 147 735 q 161 763 147 763 q 175 749 175 763 q 161 735 175 735 m 161 681 q 147 694 147 681 q 161 708 147 708 q 175 694 175 708 q 161 681 175 681 m 161 621 q 147 635 147 621 q 161 649 147 649 q 175 635 175 649 q 161 621 175 621 m 161 510 q 147 524 147 510 q 161 538 147 538 q 175 524 175 538 q 161 510 175 510 m 161 458 q 147 472 147 458 q 161 486 147 486 q 175 472 175 486 q 161 458 175 458 m 161 403 q 147 417 147 403 q 161 431 147 431 q 175 417 175 431 q 161 403 175 403 m 161 347 q 147 361 147 347 q 161 375 147 375 q 175 361 175 375 q 161 347 175 347 m 161 944 q 147 958 147 944 q 161 972 147 972 q 175 958 175 972 q 161 944 175 944 m 161 893 q 147 907 147 893 q 161 921 147 921 q 175 907 175 921 q 161 893 175 893 m 161 840 q 147 854 147 840 q 161 868 147 868 q 175 854 175 868 q 161 840 175 840 m 161 790 q 147 804 147 790 q 161 818 147 818 q 175 804 175 818 q 161 790 175 790 m 161 565 q 147 579 147 565 q 161 593 147 593 q 175 579 175 593 q 161 565 175 565 m 161 67 q 147 81 147 67 q 161 94 147 94 q 175 81 175 94 q 161 67 175 67 m 161 11 q 147 25 147 11 q 161 39 147 39 q 175 25 175 39 q 161 11 175 11 m 213 946 q 199 960 199 946 q 213 974 199 974 q 226 960 226 974 q 213 946 226 946 m 261 946 q 247 960 247 946 q 261 974 247 974 q 275 960 275 974 q 261 946 275 946 m 310 946 q 296 960 296 946 q 310 974 296 974 q 324 960 324 974 q 310 946 324 946 m 360 946 q 346 960 346 946 q 360 974 346 974 q 374 960 374 974 q 360 946 374 946 m 410 946 q 396 960 396 946 q 410 974 396 974 q 424 960 424 974 q 410 946 424 946 m 458 946 q 444 960 444 946 q 458 974 444 974 q 472 960 472 974 q 458 946 472 946 m 507 946 q 493 960 493 946 q 507 974 493 974 q 521 960 521 974 q 507 946 521 946 m 557 946 q 543 960 543 946 q 557 974 543 974 q 571 960 571 974 q 557 946 571 946 m 606 946 q 592 960 592 946 q 606 974 592 974 q 619 960 619 974 q 606 946 619 946 m 656 946 q 642 960 642 946 q 656 974 642 974 q 669 960 669 974 q 656 946 669 946 m 706 946 q 692 960 692 946 q 706 974 692 974 q 719 960 719 974 q 706 946 719 946 m 754 946 q 740 960 740 946 q 754 974 740 974 q 768 960 768 974 q 754 946 768 946 m 207 486 q 193 500 193 486 q 207 514 193 514 q 221 500 221 514 q 207 486 221 486 m 256 486 q 242 500 242 486 q 256 514 242 514 q 269 500 269 514 q 256 486 269 486 m 304 486 q 290 500 290 486 q 304 514 290 514 q 318 500 318 514 q 304 486 318 486 m 354 486 q 340 500 340 486 q 354 514 340 514 q 368 500 368 514 q 354 486 368 486 m 404 486 q 390 500 390 486 q 404 514 390 514 q 418 500 418 514 q 404 486 418 486 m 453 486 q 439 500 439 486 q 453 514 439 514 q 467 500 467 514 q 453 486 467 486 m 501 486 q 488 500 488 486 q 501 514 488 514 q 515 500 515 514 q 501 486 515 486 m 551 486 q 538 500 538 486 q 551 514 538 514 q 565 500 565 514 q 551 486 565 486 m 600 486 q 586 500 586 486 q 600 514 586 514 q 614 500 614 514 q 600 486 614 486 m 650 486 q 636 500 636 486 q 650 514 636 514 q 664 500 664 514 q 650 486 664 486 m 700 486 q 686 500 686 486 q 700 514 686 514 q 714 500 714 514 q 700 486 714 486 m 210 10 q 196 24 196 10 q 210 38 196 38 q 224 24 224 38 q 210 10 224 10 m 258 10 q 244 24 244 10 q 258 38 244 38 q 272 24 272 38 q 258 10 272 10 m 307 10 q 293 24 293 10 q 307 38 293 38 q 321 24 321 38 q 307 10 321 10 m 357 10 q 343 24 343 10 q 357 38 343 38 q 371 24 371 38 q 357 10 371 10 m 407 10 q 393 24 393 10 q 407 38 393 38 q 421 24 421 38 q 407 10 421 10 m 456 10 q 442 24 442 10 q 456 38 442 38 q 469 24 469 38 q 456 10 469 10 m 504 10 q 490 24 490 10 q 504 38 490 38 q 518 24 518 38 q 504 10 518 10 m 554 10 q 540 24 540 10 q 554 38 540 38 q 568 24 568 38 q 554 10 568 10 m 603 10 q 589 24 589 10 q 603 38 589 38 q 617 24 617 38 q 603 10 617 10 m 653 10 q 639 24 639 10 q 653 38 639 38 q 667 24 667 38 q 653 10 667 10 m 703 10 q 689 24 689 10 q 703 38 689 38 q 717 24 717 38 q 703 10 717 10 m 751 10 q 738 24 738 10 q 751 38 738 38 q 765 24 765 38 q 751 10 765 10 m 385 1250 q 371 1264 371 1250 q 385 1278 371 1278 q 399 1264 399 1278 q 385 1250 399 1250 m 400 1206 q 386 1219 386 1206 q 400 1233 386 1233 q 414 1219 414 1233 q 400 1206 414 1206 m 432 1174 q 418 1188 418 1174 q 432 1201 418 1201 q 446 1188 446 1201 q 432 1174 446 1174 m 479 1160 q 465 1174 465 1160 q 479 1188 465 1188 q 493 1174 493 1188 q 479 1160 493 1160 m 574 1250 q 560 1264 560 1250 q 574 1278 560 1278 q 588 1264 588 1278 q 574 1250 588 1250 m 558 1206 q 544 1219 544 1206 q 558 1233 544 1233 q 572 1219 572 1233 q 558 1206 572 1206 m 526 1174 q 513 1188 513 1174 q 526 1201 513 1201 q 540 1188 540 1201 q 526 1174 540 1174 z "},"Ě":{"ha":857,"x_min":147,"x_max":768,"o":"m 476 1178 q 490 1164 490 1178 q 476 1150 490 1150 q 463 1164 463 1150 q 476 1178 463 1178 m 515 1206 q 529 1192 529 1206 q 515 1178 529 1178 q 501 1192 501 1178 q 515 1206 501 1206 m 551 1235 q 565 1221 565 1235 q 551 1207 565 1207 q 538 1221 538 1207 q 551 1235 538 1235 m 588 1263 q 601 1249 601 1263 q 588 1235 601 1235 q 574 1249 574 1235 q 588 1263 574 1263 m 438 1206 q 451 1192 451 1206 q 438 1178 451 1178 q 424 1192 424 1178 q 438 1206 424 1206 m 401 1235 q 415 1221 415 1235 q 401 1207 415 1207 q 388 1221 388 1207 q 401 1235 388 1235 m 365 1263 q 379 1249 379 1263 q 365 1235 379 1235 q 351 1249 351 1235 q 365 1263 351 1263 m 161 293 q 147 307 147 293 q 161 321 147 321 q 175 307 175 321 q 161 293 175 293 m 161 236 q 147 250 147 236 q 161 264 147 264 q 175 250 175 264 q 161 236 175 236 m 161 179 q 147 193 147 179 q 161 207 147 207 q 175 193 175 207 q 161 179 175 179 m 161 122 q 147 136 147 122 q 161 150 147 150 q 175 136 175 150 q 161 122 175 122 m 161 735 q 147 749 147 735 q 161 763 147 763 q 175 749 175 763 q 161 735 175 735 m 161 681 q 147 694 147 681 q 161 708 147 708 q 175 694 175 708 q 161 681 175 681 m 161 621 q 147 635 147 621 q 161 649 147 649 q 175 635 175 649 q 161 621 175 621 m 161 510 q 147 524 147 510 q 161 538 147 538 q 175 524 175 538 q 161 510 175 510 m 161 458 q 147 472 147 458 q 161 486 147 486 q 175 472 175 486 q 161 458 175 458 m 161 403 q 147 417 147 403 q 161 431 147 431 q 175 417 175 431 q 161 403 175 403 m 161 347 q 147 361 147 347 q 161 375 147 375 q 175 361 175 375 q 161 347 175 347 m 161 944 q 147 958 147 944 q 161 972 147 972 q 175 958 175 972 q 161 944 175 944 m 161 893 q 147 907 147 893 q 161 921 147 921 q 175 907 175 921 q 161 893 175 893 m 161 840 q 147 854 147 840 q 161 868 147 868 q 175 854 175 868 q 161 840 175 840 m 161 790 q 147 804 147 790 q 161 818 147 818 q 175 804 175 818 q 161 790 175 790 m 161 565 q 147 579 147 565 q 161 593 147 593 q 175 579 175 593 q 161 565 175 565 m 161 67 q 147 81 147 67 q 161 94 147 94 q 175 81 175 94 q 161 67 175 67 m 161 11 q 147 25 147 11 q 161 39 147 39 q 175 25 175 39 q 161 11 175 11 m 213 946 q 199 960 199 946 q 213 974 199 974 q 226 960 226 974 q 213 946 226 946 m 261 946 q 247 960 247 946 q 261 974 247 974 q 275 960 275 974 q 261 946 275 946 m 310 946 q 296 960 296 946 q 310 974 296 974 q 324 960 324 974 q 310 946 324 946 m 360 946 q 346 960 346 946 q 360 974 346 974 q 374 960 374 974 q 360 946 374 946 m 410 946 q 396 960 396 946 q 410 974 396 974 q 424 960 424 974 q 410 946 424 946 m 458 946 q 444 960 444 946 q 458 974 444 974 q 472 960 472 974 q 458 946 472 946 m 507 946 q 493 960 493 946 q 507 974 493 974 q 521 960 521 974 q 507 946 521 946 m 557 946 q 543 960 543 946 q 557 974 543 974 q 571 960 571 974 q 557 946 571 946 m 606 946 q 592 960 592 946 q 606 974 592 974 q 619 960 619 974 q 606 946 619 946 m 656 946 q 642 960 642 946 q 656 974 642 974 q 669 960 669 974 q 656 946 669 946 m 706 946 q 692 960 692 946 q 706 974 692 974 q 719 960 719 974 q 706 946 719 946 m 754 946 q 740 960 740 946 q 754 974 740 974 q 768 960 768 974 q 754 946 768 946 m 207 486 q 193 500 193 486 q 207 514 193 514 q 221 500 221 514 q 207 486 221 486 m 256 486 q 242 500 242 486 q 256 514 242 514 q 269 500 269 514 q 256 486 269 486 m 304 486 q 290 500 290 486 q 304 514 290 514 q 318 500 318 514 q 304 486 318 486 m 354 486 q 340 500 340 486 q 354 514 340 514 q 368 500 368 514 q 354 486 368 486 m 404 486 q 390 500 390 486 q 404 514 390 514 q 418 500 418 514 q 404 486 418 486 m 453 486 q 439 500 439 486 q 453 514 439 514 q 467 500 467 514 q 453 486 467 486 m 501 486 q 488 500 488 486 q 501 514 488 514 q 515 500 515 514 q 501 486 515 486 m 551 486 q 538 500 538 486 q 551 514 538 514 q 565 500 565 514 q 551 486 565 486 m 600 486 q 586 500 586 486 q 600 514 586 514 q 614 500 614 514 q 600 486 614 486 m 650 486 q 636 500 636 486 q 650 514 636 514 q 664 500 664 514 q 650 486 664 486 m 700 486 q 686 500 686 486 q 700 514 686 514 q 714 500 714 514 q 700 486 714 486 m 210 10 q 196 24 196 10 q 210 38 196 38 q 224 24 224 38 q 210 10 224 10 m 258 10 q 244 24 244 10 q 258 38 244 38 q 272 24 272 38 q 258 10 272 10 m 307 10 q 293 24 293 10 q 307 38 293 38 q 321 24 321 38 q 307 10 321 10 m 357 10 q 343 24 343 10 q 357 38 343 38 q 371 24 371 38 q 357 10 371 10 m 407 10 q 393 24 393 10 q 407 38 393 38 q 421 24 421 38 q 407 10 421 10 m 456 10 q 442 24 442 10 q 456 38 442 38 q 469 24 469 38 q 456 10 469 10 m 504 10 q 490 24 490 10 q 504 38 490 38 q 518 24 518 38 q 504 10 518 10 m 554 10 q 540 24 540 10 q 554 38 540 38 q 568 24 568 38 q 554 10 568 10 m 603 10 q 589 24 589 10 q 603 38 589 38 q 617 24 617 38 q 603 10 617 10 m 653 10 q 639 24 639 10 q 653 38 639 38 q 667 24 667 38 q 653 10 667 10 m 703 10 q 689 24 689 10 q 703 38 689 38 q 717 24 717 38 q 703 10 717 10 m 751 10 q 738 24 738 10 q 751 38 738 38 q 765 24 765 38 q 751 10 765 10 z "},"Ê":{"ha":857,"x_min":147,"x_max":768,"o":"m 476 1247 q 463 1261 463 1247 q 476 1275 463 1275 q 490 1261 490 1275 q 476 1247 490 1247 m 515 1219 q 501 1233 501 1219 q 515 1247 501 1247 q 529 1233 529 1247 q 515 1219 529 1219 m 551 1190 q 538 1204 538 1190 q 551 1218 538 1218 q 565 1204 565 1218 q 551 1190 565 1190 m 588 1163 q 574 1176 574 1163 q 588 1190 574 1190 q 601 1176 601 1190 q 588 1163 601 1163 m 438 1219 q 424 1233 424 1219 q 438 1247 424 1247 q 451 1233 451 1247 q 438 1219 451 1219 m 401 1190 q 388 1204 388 1190 q 401 1218 388 1218 q 415 1204 415 1218 q 401 1190 415 1190 m 365 1163 q 351 1176 351 1163 q 365 1190 351 1190 q 379 1176 379 1190 q 365 1163 379 1163 m 161 293 q 147 307 147 293 q 161 321 147 321 q 175 307 175 321 q 161 293 175 293 m 161 236 q 147 250 147 236 q 161 264 147 264 q 175 250 175 264 q 161 236 175 236 m 161 179 q 147 193 147 179 q 161 207 147 207 q 175 193 175 207 q 161 179 175 179 m 161 122 q 147 136 147 122 q 161 150 147 150 q 175 136 175 150 q 161 122 175 122 m 161 735 q 147 749 147 735 q 161 763 147 763 q 175 749 175 763 q 161 735 175 735 m 161 681 q 147 694 147 681 q 161 708 147 708 q 175 694 175 708 q 161 681 175 681 m 161 621 q 147 635 147 621 q 161 649 147 649 q 175 635 175 649 q 161 621 175 621 m 161 510 q 147 524 147 510 q 161 538 147 538 q 175 524 175 538 q 161 510 175 510 m 161 458 q 147 472 147 458 q 161 486 147 486 q 175 472 175 486 q 161 458 175 458 m 161 403 q 147 417 147 403 q 161 431 147 431 q 175 417 175 431 q 161 403 175 403 m 161 347 q 147 361 147 347 q 161 375 147 375 q 175 361 175 375 q 161 347 175 347 m 161 944 q 147 958 147 944 q 161 972 147 972 q 175 958 175 972 q 161 944 175 944 m 161 893 q 147 907 147 893 q 161 921 147 921 q 175 907 175 921 q 161 893 175 893 m 161 840 q 147 854 147 840 q 161 868 147 868 q 175 854 175 868 q 161 840 175 840 m 161 790 q 147 804 147 790 q 161 818 147 818 q 175 804 175 818 q 161 790 175 790 m 161 565 q 147 579 147 565 q 161 593 147 593 q 175 579 175 593 q 161 565 175 565 m 161 67 q 147 81 147 67 q 161 94 147 94 q 175 81 175 94 q 161 67 175 67 m 161 11 q 147 25 147 11 q 161 39 147 39 q 175 25 175 39 q 161 11 175 11 m 213 946 q 199 960 199 946 q 213 974 199 974 q 226 960 226 974 q 213 946 226 946 m 261 946 q 247 960 247 946 q 261 974 247 974 q 275 960 275 974 q 261 946 275 946 m 310 946 q 296 960 296 946 q 310 974 296 974 q 324 960 324 974 q 310 946 324 946 m 360 946 q 346 960 346 946 q 360 974 346 974 q 374 960 374 974 q 360 946 374 946 m 410 946 q 396 960 396 946 q 410 974 396 974 q 424 960 424 974 q 410 946 424 946 m 458 946 q 444 960 444 946 q 458 974 444 974 q 472 960 472 974 q 458 946 472 946 m 507 946 q 493 960 493 946 q 507 974 493 974 q 521 960 521 974 q 507 946 521 946 m 557 946 q 543 960 543 946 q 557 974 543 974 q 571 960 571 974 q 557 946 571 946 m 606 946 q 592 960 592 946 q 606 974 592 974 q 619 960 619 974 q 606 946 619 946 m 656 946 q 642 960 642 946 q 656 974 642 974 q 669 960 669 974 q 656 946 669 946 m 706 946 q 692 960 692 946 q 706 974 692 974 q 719 960 719 974 q 706 946 719 946 m 754 946 q 740 960 740 946 q 754 974 740 974 q 768 960 768 974 q 754 946 768 946 m 207 486 q 193 500 193 486 q 207 514 193 514 q 221 500 221 514 q 207 486 221 486 m 256 486 q 242 500 242 486 q 256 514 242 514 q 269 500 269 514 q 256 486 269 486 m 304 486 q 290 500 290 486 q 304 514 290 514 q 318 500 318 514 q 304 486 318 486 m 354 486 q 340 500 340 486 q 354 514 340 514 q 368 500 368 514 q 354 486 368 486 m 404 486 q 390 500 390 486 q 404 514 390 514 q 418 500 418 514 q 404 486 418 486 m 453 486 q 439 500 439 486 q 453 514 439 514 q 467 500 467 514 q 453 486 467 486 m 501 486 q 488 500 488 486 q 501 514 488 514 q 515 500 515 514 q 501 486 515 486 m 551 486 q 538 500 538 486 q 551 514 538 514 q 565 500 565 514 q 551 486 565 486 m 600 486 q 586 500 586 486 q 600 514 586 514 q 614 500 614 514 q 600 486 614 486 m 650 486 q 636 500 636 486 q 650 514 636 514 q 664 500 664 514 q 650 486 664 486 m 700 486 q 686 500 686 486 q 700 514 686 514 q 714 500 714 514 q 700 486 714 486 m 210 10 q 196 24 196 10 q 210 38 196 38 q 224 24 224 38 q 210 10 224 10 m 258 10 q 244 24 244 10 q 258 38 244 38 q 272 24 272 38 q 258 10 272 10 m 307 10 q 293 24 293 10 q 307 38 293 38 q 321 24 321 38 q 307 10 321 10 m 357 10 q 343 24 343 10 q 357 38 343 38 q 371 24 371 38 q 357 10 371 10 m 407 10 q 393 24 393 10 q 407 38 393 38 q 421 24 421 38 q 407 10 421 10 m 456 10 q 442 24 442 10 q 456 38 442 38 q 469 24 469 38 q 456 10 469 10 m 504 10 q 490 24 490 10 q 504 38 490 38 q 518 24 518 38 q 504 10 518 10 m 554 10 q 540 24 540 10 q 554 38 540 38 q 568 24 568 38 q 554 10 568 10 m 603 10 q 589 24 589 10 q 603 38 589 38 q 617 24 617 38 q 603 10 617 10 m 653 10 q 639 24 639 10 q 653 38 639 38 q 667 24 667 38 q 653 10 667 10 m 703 10 q 689 24 689 10 q 703 38 689 38 q 717 24 717 38 q 703 10 717 10 m 751 10 q 738 24 738 10 q 751 38 738 38 q 765 24 765 38 q 751 10 765 10 z "},"Ë":{"ha":857,"x_min":147,"x_max":768,"o":"m 390 1158 q 376 1172 376 1158 q 390 1186 376 1186 q 404 1172 404 1186 q 390 1158 404 1158 m 390 1204 q 376 1218 376 1204 q 390 1232 376 1232 q 404 1218 404 1232 q 390 1204 404 1204 m 390 1250 q 376 1264 376 1250 q 390 1278 376 1278 q 404 1264 404 1278 q 390 1250 404 1250 m 565 1158 q 551 1172 551 1158 q 565 1186 551 1186 q 579 1172 579 1186 q 565 1158 579 1158 m 565 1204 q 551 1218 551 1204 q 565 1232 551 1232 q 579 1218 579 1232 q 565 1204 579 1204 m 565 1250 q 551 1264 551 1250 q 565 1278 551 1278 q 579 1264 579 1278 q 565 1250 579 1250 m 161 293 q 147 307 147 293 q 161 321 147 321 q 175 307 175 321 q 161 293 175 293 m 161 236 q 147 250 147 236 q 161 264 147 264 q 175 250 175 264 q 161 236 175 236 m 161 179 q 147 193 147 179 q 161 207 147 207 q 175 193 175 207 q 161 179 175 179 m 161 122 q 147 136 147 122 q 161 150 147 150 q 175 136 175 150 q 161 122 175 122 m 161 735 q 147 749 147 735 q 161 763 147 763 q 175 749 175 763 q 161 735 175 735 m 161 681 q 147 694 147 681 q 161 708 147 708 q 175 694 175 708 q 161 681 175 681 m 161 621 q 147 635 147 621 q 161 649 147 649 q 175 635 175 649 q 161 621 175 621 m 161 510 q 147 524 147 510 q 161 538 147 538 q 175 524 175 538 q 161 510 175 510 m 161 458 q 147 472 147 458 q 161 486 147 486 q 175 472 175 486 q 161 458 175 458 m 161 403 q 147 417 147 403 q 161 431 147 431 q 175 417 175 431 q 161 403 175 403 m 161 347 q 147 361 147 347 q 161 375 147 375 q 175 361 175 375 q 161 347 175 347 m 161 944 q 147 958 147 944 q 161 972 147 972 q 175 958 175 972 q 161 944 175 944 m 161 893 q 147 907 147 893 q 161 921 147 921 q 175 907 175 921 q 161 893 175 893 m 161 840 q 147 854 147 840 q 161 868 147 868 q 175 854 175 868 q 161 840 175 840 m 161 790 q 147 804 147 790 q 161 818 147 818 q 175 804 175 818 q 161 790 175 790 m 161 565 q 147 579 147 565 q 161 593 147 593 q 175 579 175 593 q 161 565 175 565 m 161 67 q 147 81 147 67 q 161 94 147 94 q 175 81 175 94 q 161 67 175 67 m 161 11 q 147 25 147 11 q 161 39 147 39 q 175 25 175 39 q 161 11 175 11 m 213 946 q 199 960 199 946 q 213 974 199 974 q 226 960 226 974 q 213 946 226 946 m 261 946 q 247 960 247 946 q 261 974 247 974 q 275 960 275 974 q 261 946 275 946 m 310 946 q 296 960 296 946 q 310 974 296 974 q 324 960 324 974 q 310 946 324 946 m 360 946 q 346 960 346 946 q 360 974 346 974 q 374 960 374 974 q 360 946 374 946 m 410 946 q 396 960 396 946 q 410 974 396 974 q 424 960 424 974 q 410 946 424 946 m 458 946 q 444 960 444 946 q 458 974 444 974 q 472 960 472 974 q 458 946 472 946 m 507 946 q 493 960 493 946 q 507 974 493 974 q 521 960 521 974 q 507 946 521 946 m 557 946 q 543 960 543 946 q 557 974 543 974 q 571 960 571 974 q 557 946 571 946 m 606 946 q 592 960 592 946 q 606 974 592 974 q 619 960 619 974 q 606 946 619 946 m 656 946 q 642 960 642 946 q 656 974 642 974 q 669 960 669 974 q 656 946 669 946 m 706 946 q 692 960 692 946 q 706 974 692 974 q 719 960 719 974 q 706 946 719 946 m 754 946 q 740 960 740 946 q 754 974 740 974 q 768 960 768 974 q 754 946 768 946 m 207 486 q 193 500 193 486 q 207 514 193 514 q 221 500 221 514 q 207 486 221 486 m 256 486 q 242 500 242 486 q 256 514 242 514 q 269 500 269 514 q 256 486 269 486 m 304 486 q 290 500 290 486 q 304 514 290 514 q 318 500 318 514 q 304 486 318 486 m 354 486 q 340 500 340 486 q 354 514 340 514 q 368 500 368 514 q 354 486 368 486 m 404 486 q 390 500 390 486 q 404 514 390 514 q 418 500 418 514 q 404 486 418 486 m 453 486 q 439 500 439 486 q 453 514 439 514 q 467 500 467 514 q 453 486 467 486 m 501 486 q 488 500 488 486 q 501 514 488 514 q 515 500 515 514 q 501 486 515 486 m 551 486 q 538 500 538 486 q 551 514 538 514 q 565 500 565 514 q 551 486 565 486 m 600 486 q 586 500 586 486 q 600 514 586 514 q 614 500 614 514 q 600 486 614 486 m 650 486 q 636 500 636 486 q 650 514 636 514 q 664 500 664 514 q 650 486 664 486 m 700 486 q 686 500 686 486 q 700 514 686 514 q 714 500 714 514 q 700 486 714 486 m 210 10 q 196 24 196 10 q 210 38 196 38 q 224 24 224 38 q 210 10 224 10 m 258 10 q 244 24 244 10 q 258 38 244 38 q 272 24 272 38 q 258 10 272 10 m 307 10 q 293 24 293 10 q 307 38 293 38 q 321 24 321 38 q 307 10 321 10 m 357 10 q 343 24 343 10 q 357 38 343 38 q 371 24 371 38 q 357 10 371 10 m 407 10 q 393 24 393 10 q 407 38 393 38 q 421 24 421 38 q 407 10 421 10 m 456 10 q 442 24 442 10 q 456 38 442 38 q 469 24 469 38 q 456 10 469 10 m 504 10 q 490 24 490 10 q 504 38 490 38 q 518 24 518 38 q 504 10 518 10 m 554 10 q 540 24 540 10 q 554 38 540 38 q 568 24 568 38 q 554 10 568 10 m 603 10 q 589 24 589 10 q 603 38 589 38 q 617 24 617 38 q 603 10 617 10 m 653 10 q 639 24 639 10 q 653 38 639 38 q 667 24 667 38 q 653 10 667 10 m 703 10 q 689 24 689 10 q 703 38 689 38 q 717 24 717 38 q 703 10 717 10 m 751 10 q 738 24 738 10 q 751 38 738 38 q 765 24 765 38 q 751 10 765 10 z "},"Ė":{"ha":857,"x_min":147,"x_max":768,"o":"m 161 293 q 147 307 147 293 q 161 321 147 321 q 175 307 175 321 q 161 293 175 293 m 161 236 q 147 250 147 236 q 161 264 147 264 q 175 250 175 264 q 161 236 175 236 m 161 179 q 147 193 147 179 q 161 207 147 207 q 175 193 175 207 q 161 179 175 179 m 161 122 q 147 136 147 122 q 161 150 147 150 q 175 136 175 150 q 161 122 175 122 m 161 735 q 147 749 147 735 q 161 763 147 763 q 175 749 175 763 q 161 735 175 735 m 161 681 q 147 694 147 681 q 161 708 147 708 q 175 694 175 708 q 161 681 175 681 m 161 621 q 147 635 147 621 q 161 649 147 649 q 175 635 175 649 q 161 621 175 621 m 161 510 q 147 524 147 510 q 161 538 147 538 q 175 524 175 538 q 161 510 175 510 m 161 458 q 147 472 147 458 q 161 486 147 486 q 175 472 175 486 q 161 458 175 458 m 161 403 q 147 417 147 403 q 161 431 147 431 q 175 417 175 431 q 161 403 175 403 m 161 347 q 147 361 147 347 q 161 375 147 375 q 175 361 175 375 q 161 347 175 347 m 161 944 q 147 958 147 944 q 161 972 147 972 q 175 958 175 972 q 161 944 175 944 m 161 893 q 147 907 147 893 q 161 921 147 921 q 175 907 175 921 q 161 893 175 893 m 161 840 q 147 854 147 840 q 161 868 147 868 q 175 854 175 868 q 161 840 175 840 m 161 790 q 147 804 147 790 q 161 818 147 818 q 175 804 175 818 q 161 790 175 790 m 161 565 q 147 579 147 565 q 161 593 147 593 q 175 579 175 593 q 161 565 175 565 m 161 67 q 147 81 147 67 q 161 94 147 94 q 175 81 175 94 q 161 67 175 67 m 161 11 q 147 25 147 11 q 161 39 147 39 q 175 25 175 39 q 161 11 175 11 m 213 946 q 199 960 199 946 q 213 974 199 974 q 226 960 226 974 q 213 946 226 946 m 261 946 q 247 960 247 946 q 261 974 247 974 q 275 960 275 974 q 261 946 275 946 m 310 946 q 296 960 296 946 q 310 974 296 974 q 324 960 324 974 q 310 946 324 946 m 360 946 q 346 960 346 946 q 360 974 346 974 q 374 960 374 974 q 360 946 374 946 m 410 946 q 396 960 396 946 q 410 974 396 974 q 424 960 424 974 q 410 946 424 946 m 458 946 q 444 960 444 946 q 458 974 444 974 q 472 960 472 974 q 458 946 472 946 m 507 946 q 493 960 493 946 q 507 974 493 974 q 521 960 521 974 q 507 946 521 946 m 557 946 q 543 960 543 946 q 557 974 543 974 q 571 960 571 974 q 557 946 571 946 m 606 946 q 592 960 592 946 q 606 974 592 974 q 619 960 619 974 q 606 946 619 946 m 656 946 q 642 960 642 946 q 656 974 642 974 q 669 960 669 974 q 656 946 669 946 m 706 946 q 692 960 692 946 q 706 974 692 974 q 719 960 719 974 q 706 946 719 946 m 754 946 q 740 960 740 946 q 754 974 740 974 q 768 960 768 974 q 754 946 768 946 m 207 486 q 193 500 193 486 q 207 514 193 514 q 221 500 221 514 q 207 486 221 486 m 256 486 q 242 500 242 486 q 256 514 242 514 q 269 500 269 514 q 256 486 269 486 m 304 486 q 290 500 290 486 q 304 514 290 514 q 318 500 318 514 q 304 486 318 486 m 354 486 q 340 500 340 486 q 354 514 340 514 q 368 500 368 514 q 354 486 368 486 m 404 486 q 390 500 390 486 q 404 514 390 514 q 418 500 418 514 q 404 486 418 486 m 453 486 q 439 500 439 486 q 453 514 439 514 q 467 500 467 514 q 453 486 467 486 m 501 486 q 488 500 488 486 q 501 514 488 514 q 515 500 515 514 q 501 486 515 486 m 551 486 q 538 500 538 486 q 551 514 538 514 q 565 500 565 514 q 551 486 565 486 m 600 486 q 586 500 586 486 q 600 514 586 514 q 614 500 614 514 q 600 486 614 486 m 650 486 q 636 500 636 486 q 650 514 636 514 q 664 500 664 514 q 650 486 664 486 m 700 486 q 686 500 686 486 q 700 514 686 514 q 714 500 714 514 q 700 486 714 486 m 210 10 q 196 24 196 10 q 210 38 196 38 q 224 24 224 38 q 210 10 224 10 m 258 10 q 244 24 244 10 q 258 38 244 38 q 272 24 272 38 q 258 10 272 10 m 307 10 q 293 24 293 10 q 307 38 293 38 q 321 24 321 38 q 307 10 321 10 m 357 10 q 343 24 343 10 q 357 38 343 38 q 371 24 371 38 q 357 10 371 10 m 407 10 q 393 24 393 10 q 407 38 393 38 q 421 24 421 38 q 407 10 421 10 m 456 10 q 442 24 442 10 q 456 38 442 38 q 469 24 469 38 q 456 10 469 10 m 504 10 q 490 24 490 10 q 504 38 490 38 q 518 24 518 38 q 504 10 518 10 m 554 10 q 540 24 540 10 q 554 38 540 38 q 568 24 568 38 q 554 10 568 10 m 603 10 q 589 24 589 10 q 603 38 589 38 q 617 24 617 38 q 603 10 617 10 m 653 10 q 639 24 639 10 q 653 38 639 38 q 667 24 667 38 q 653 10 667 10 m 703 10 q 689 24 689 10 q 703 38 689 38 q 717 24 717 38 q 703 10 717 10 m 751 10 q 738 24 738 10 q 751 38 738 38 q 765 24 765 38 q 751 10 765 10 m 476 1158 q 463 1172 463 1158 q 476 1186 463 1186 q 490 1172 490 1186 q 476 1158 490 1158 m 476 1204 q 463 1218 463 1204 q 476 1232 463 1232 q 490 1218 490 1232 q 476 1204 490 1204 m 476 1250 q 463 1264 463 1250 q 476 1278 463 1278 q 490 1264 490 1278 q 476 1250 490 1250 z "},"È":{"ha":857,"x_min":147,"x_max":768,"o":"m 161 293 q 147 307 147 293 q 161 321 147 321 q 175 307 175 321 q 161 293 175 293 m 161 236 q 147 250 147 236 q 161 264 147 264 q 175 250 175 264 q 161 236 175 236 m 161 179 q 147 193 147 179 q 161 207 147 207 q 175 193 175 207 q 161 179 175 179 m 161 122 q 147 136 147 122 q 161 150 147 150 q 175 136 175 150 q 161 122 175 122 m 161 735 q 147 749 147 735 q 161 763 147 763 q 175 749 175 763 q 161 735 175 735 m 161 681 q 147 694 147 681 q 161 708 147 708 q 175 694 175 708 q 161 681 175 681 m 161 621 q 147 635 147 621 q 161 649 147 649 q 175 635 175 649 q 161 621 175 621 m 161 510 q 147 524 147 510 q 161 538 147 538 q 175 524 175 538 q 161 510 175 510 m 161 458 q 147 472 147 458 q 161 486 147 486 q 175 472 175 486 q 161 458 175 458 m 161 403 q 147 417 147 403 q 161 431 147 431 q 175 417 175 431 q 161 403 175 403 m 161 347 q 147 361 147 347 q 161 375 147 375 q 175 361 175 375 q 161 347 175 347 m 161 944 q 147 958 147 944 q 161 972 147 972 q 175 958 175 972 q 161 944 175 944 m 161 893 q 147 907 147 893 q 161 921 147 921 q 175 907 175 921 q 161 893 175 893 m 161 840 q 147 854 147 840 q 161 868 147 868 q 175 854 175 868 q 161 840 175 840 m 161 790 q 147 804 147 790 q 161 818 147 818 q 175 804 175 818 q 161 790 175 790 m 161 565 q 147 579 147 565 q 161 593 147 593 q 175 579 175 593 q 161 565 175 565 m 161 67 q 147 81 147 67 q 161 94 147 94 q 175 81 175 94 q 161 67 175 67 m 161 11 q 147 25 147 11 q 161 39 147 39 q 175 25 175 39 q 161 11 175 11 m 213 946 q 199 960 199 946 q 213 974 199 974 q 226 960 226 974 q 213 946 226 946 m 261 946 q 247 960 247 946 q 261 974 247 974 q 275 960 275 974 q 261 946 275 946 m 310 946 q 296 960 296 946 q 310 974 296 974 q 324 960 324 974 q 310 946 324 946 m 360 946 q 346 960 346 946 q 360 974 346 974 q 374 960 374 974 q 360 946 374 946 m 410 946 q 396 960 396 946 q 410 974 396 974 q 424 960 424 974 q 410 946 424 946 m 458 946 q 444 960 444 946 q 458 974 444 974 q 472 960 472 974 q 458 946 472 946 m 507 946 q 493 960 493 946 q 507 974 493 974 q 521 960 521 974 q 507 946 521 946 m 557 946 q 543 960 543 946 q 557 974 543 974 q 571 960 571 974 q 557 946 571 946 m 606 946 q 592 960 592 946 q 606 974 592 974 q 619 960 619 974 q 606 946 619 946 m 656 946 q 642 960 642 946 q 656 974 642 974 q 669 960 669 974 q 656 946 669 946 m 706 946 q 692 960 692 946 q 706 974 692 974 q 719 960 719 974 q 706 946 719 946 m 754 946 q 740 960 740 946 q 754 974 740 974 q 768 960 768 974 q 754 946 768 946 m 207 486 q 193 500 193 486 q 207 514 193 514 q 221 500 221 514 q 207 486 221 486 m 256 486 q 242 500 242 486 q 256 514 242 514 q 269 500 269 514 q 256 486 269 486 m 304 486 q 290 500 290 486 q 304 514 290 514 q 318 500 318 514 q 304 486 318 486 m 354 486 q 340 500 340 486 q 354 514 340 514 q 368 500 368 514 q 354 486 368 486 m 404 486 q 390 500 390 486 q 404 514 390 514 q 418 500 418 514 q 404 486 418 486 m 453 486 q 439 500 439 486 q 453 514 439 514 q 467 500 467 514 q 453 486 467 486 m 501 486 q 488 500 488 486 q 501 514 488 514 q 515 500 515 514 q 501 486 515 486 m 551 486 q 538 500 538 486 q 551 514 538 514 q 565 500 565 514 q 551 486 565 486 m 600 486 q 586 500 586 486 q 600 514 586 514 q 614 500 614 514 q 600 486 614 486 m 650 486 q 636 500 636 486 q 650 514 636 514 q 664 500 664 514 q 650 486 664 486 m 700 486 q 686 500 686 486 q 700 514 686 514 q 714 500 714 514 q 700 486 714 486 m 210 10 q 196 24 196 10 q 210 38 196 38 q 224 24 224 38 q 210 10 224 10 m 258 10 q 244 24 244 10 q 258 38 244 38 q 272 24 272 38 q 258 10 272 10 m 307 10 q 293 24 293 10 q 307 38 293 38 q 321 24 321 38 q 307 10 321 10 m 357 10 q 343 24 343 10 q 357 38 343 38 q 371 24 371 38 q 357 10 371 10 m 407 10 q 393 24 393 10 q 407 38 393 38 q 421 24 421 38 q 407 10 421 10 m 456 10 q 442 24 442 10 q 456 38 442 38 q 469 24 469 38 q 456 10 469 10 m 504 10 q 490 24 490 10 q 504 38 490 38 q 518 24 518 38 q 504 10 518 10 m 554 10 q 540 24 540 10 q 554 38 540 38 q 568 24 568 38 q 554 10 568 10 m 603 10 q 589 24 589 10 q 603 38 589 38 q 617 24 617 38 q 603 10 617 10 m 653 10 q 639 24 639 10 q 653 38 639 38 q 667 24 667 38 q 653 10 667 10 m 703 10 q 689 24 689 10 q 703 38 689 38 q 717 24 717 38 q 703 10 717 10 m 751 10 q 738 24 738 10 q 751 38 738 38 q 765 24 765 38 q 751 10 765 10 m 499 1150 q 485 1164 485 1150 q 499 1178 485 1178 q 513 1164 513 1178 q 499 1150 513 1150 m 469 1183 q 456 1197 456 1183 q 469 1211 456 1211 q 483 1197 483 1211 q 469 1183 483 1183 m 440 1218 q 426 1232 426 1218 q 440 1246 426 1246 q 454 1232 454 1246 q 440 1218 454 1218 m 411 1253 q 397 1267 397 1253 q 411 1281 397 1281 q 425 1267 425 1281 q 411 1253 425 1253 z "},"Ē":{"ha":857,"x_min":147,"x_max":768,"o":"m 161 293 q 147 307 147 293 q 161 321 147 321 q 175 307 175 321 q 161 293 175 293 m 161 236 q 147 250 147 236 q 161 264 147 264 q 175 250 175 264 q 161 236 175 236 m 161 179 q 147 193 147 179 q 161 207 147 207 q 175 193 175 207 q 161 179 175 179 m 161 122 q 147 136 147 122 q 161 150 147 150 q 175 136 175 150 q 161 122 175 122 m 161 735 q 147 749 147 735 q 161 763 147 763 q 175 749 175 763 q 161 735 175 735 m 161 681 q 147 694 147 681 q 161 708 147 708 q 175 694 175 708 q 161 681 175 681 m 161 621 q 147 635 147 621 q 161 649 147 649 q 175 635 175 649 q 161 621 175 621 m 161 510 q 147 524 147 510 q 161 538 147 538 q 175 524 175 538 q 161 510 175 510 m 161 458 q 147 472 147 458 q 161 486 147 486 q 175 472 175 486 q 161 458 175 458 m 161 403 q 147 417 147 403 q 161 431 147 431 q 175 417 175 431 q 161 403 175 403 m 161 347 q 147 361 147 347 q 161 375 147 375 q 175 361 175 375 q 161 347 175 347 m 161 944 q 147 958 147 944 q 161 972 147 972 q 175 958 175 972 q 161 944 175 944 m 161 893 q 147 907 147 893 q 161 921 147 921 q 175 907 175 921 q 161 893 175 893 m 161 840 q 147 854 147 840 q 161 868 147 868 q 175 854 175 868 q 161 840 175 840 m 161 790 q 147 804 147 790 q 161 818 147 818 q 175 804 175 818 q 161 790 175 790 m 161 565 q 147 579 147 565 q 161 593 147 593 q 175 579 175 593 q 161 565 175 565 m 161 67 q 147 81 147 67 q 161 94 147 94 q 175 81 175 94 q 161 67 175 67 m 161 11 q 147 25 147 11 q 161 39 147 39 q 175 25 175 39 q 161 11 175 11 m 213 946 q 199 960 199 946 q 213 974 199 974 q 226 960 226 974 q 213 946 226 946 m 261 946 q 247 960 247 946 q 261 974 247 974 q 275 960 275 974 q 261 946 275 946 m 310 946 q 296 960 296 946 q 310 974 296 974 q 324 960 324 974 q 310 946 324 946 m 360 946 q 346 960 346 946 q 360 974 346 974 q 374 960 374 974 q 360 946 374 946 m 410 946 q 396 960 396 946 q 410 974 396 974 q 424 960 424 974 q 410 946 424 946 m 458 946 q 444 960 444 946 q 458 974 444 974 q 472 960 472 974 q 458 946 472 946 m 507 946 q 493 960 493 946 q 507 974 493 974 q 521 960 521 974 q 507 946 521 946 m 557 946 q 543 960 543 946 q 557 974 543 974 q 571 960 571 974 q 557 946 571 946 m 606 946 q 592 960 592 946 q 606 974 592 974 q 619 960 619 974 q 606 946 619 946 m 656 946 q 642 960 642 946 q 656 974 642 974 q 669 960 669 974 q 656 946 669 946 m 706 946 q 692 960 692 946 q 706 974 692 974 q 719 960 719 974 q 706 946 719 946 m 754 946 q 740 960 740 946 q 754 974 740 974 q 768 960 768 974 q 754 946 768 946 m 207 486 q 193 500 193 486 q 207 514 193 514 q 221 500 221 514 q 207 486 221 486 m 256 486 q 242 500 242 486 q 256 514 242 514 q 269 500 269 514 q 256 486 269 486 m 304 486 q 290 500 290 486 q 304 514 290 514 q 318 500 318 514 q 304 486 318 486 m 354 486 q 340 500 340 486 q 354 514 340 514 q 368 500 368 514 q 354 486 368 486 m 404 486 q 390 500 390 486 q 404 514 390 514 q 418 500 418 514 q 404 486 418 486 m 453 486 q 439 500 439 486 q 453 514 439 514 q 467 500 467 514 q 453 486 467 486 m 501 486 q 488 500 488 486 q 501 514 488 514 q 515 500 515 514 q 501 486 515 486 m 551 486 q 538 500 538 486 q 551 514 538 514 q 565 500 565 514 q 551 486 565 486 m 600 486 q 586 500 586 486 q 600 514 586 514 q 614 500 614 514 q 600 486 614 486 m 650 486 q 636 500 636 486 q 650 514 636 514 q 664 500 664 514 q 650 486 664 486 m 700 486 q 686 500 686 486 q 700 514 686 514 q 714 500 714 514 q 700 486 714 486 m 210 10 q 196 24 196 10 q 210 38 196 38 q 224 24 224 38 q 210 10 224 10 m 258 10 q 244 24 244 10 q 258 38 244 38 q 272 24 272 38 q 258 10 272 10 m 307 10 q 293 24 293 10 q 307 38 293 38 q 321 24 321 38 q 307 10 321 10 m 357 10 q 343 24 343 10 q 357 38 343 38 q 371 24 371 38 q 357 10 371 10 m 407 10 q 393 24 393 10 q 407 38 393 38 q 421 24 421 38 q 407 10 421 10 m 456 10 q 442 24 442 10 q 456 38 442 38 q 469 24 469 38 q 456 10 469 10 m 504 10 q 490 24 490 10 q 504 38 490 38 q 518 24 518 38 q 504 10 518 10 m 554 10 q 540 24 540 10 q 554 38 540 38 q 568 24 568 38 q 554 10 568 10 m 603 10 q 589 24 589 10 q 603 38 589 38 q 617 24 617 38 q 603 10 617 10 m 653 10 q 639 24 639 10 q 653 38 639 38 q 667 24 667 38 q 653 10 667 10 m 703 10 q 689 24 689 10 q 703 38 689 38 q 717 24 717 38 q 703 10 717 10 m 751 10 q 738 24 738 10 q 751 38 738 38 q 765 24 765 38 q 751 10 765 10 m 297 1211 q 283 1225 283 1211 q 297 1239 283 1239 q 311 1225 311 1239 q 297 1211 311 1211 m 349 1211 q 335 1225 335 1211 q 349 1239 335 1239 q 363 1225 363 1239 q 349 1211 363 1211 m 400 1211 q 386 1225 386 1211 q 400 1239 386 1239 q 414 1225 414 1239 q 400 1211 414 1211 m 451 1211 q 438 1225 438 1211 q 451 1239 438 1239 q 465 1225 465 1239 q 451 1211 465 1211 m 503 1211 q 489 1225 489 1211 q 503 1239 489 1239 q 517 1225 517 1239 q 503 1211 517 1211 m 554 1211 q 540 1225 540 1211 q 554 1239 540 1239 q 568 1225 568 1239 q 554 1211 568 1211 m 606 1211 q 592 1225 592 1211 q 606 1239 592 1239 q 619 1225 619 1239 q 606 1211 619 1211 m 657 1211 q 643 1225 643 1211 q 657 1239 643 1239 q 671 1225 671 1239 q 657 1211 671 1211 z "},"Ŋ":{"ha":1078,"x_min":142,"x_max":939,"o":"m 156 289 q 142 303 142 289 q 156 317 142 317 q 169 303 169 317 q 156 289 169 289 m 156 232 q 142 246 142 232 q 156 260 142 260 q 169 246 169 260 q 156 232 169 232 m 156 175 q 142 189 142 175 q 156 203 142 203 q 169 189 169 203 q 156 175 169 175 m 156 118 q 142 132 142 118 q 156 146 142 146 q 169 132 169 146 q 156 118 169 118 m 156 731 q 142 744 142 731 q 156 758 142 758 q 169 744 169 758 q 156 731 169 731 m 156 676 q 142 690 142 676 q 156 704 142 704 q 169 690 169 704 q 156 676 169 676 m 156 617 q 142 631 142 617 q 156 644 142 644 q 169 631 169 644 q 156 617 169 617 m 156 506 q 142 519 142 506 q 156 533 142 533 q 169 519 169 533 q 156 506 169 506 m 156 454 q 142 468 142 454 q 156 482 142 482 q 169 468 169 482 q 156 454 169 454 m 156 399 q 142 413 142 399 q 156 426 142 426 q 169 413 169 426 q 156 399 169 399 m 156 343 q 142 357 142 343 q 156 371 142 371 q 169 357 169 371 q 156 343 169 343 m 156 944 q 142 958 142 944 q 156 972 142 972 q 169 958 169 972 q 156 944 169 944 m 156 889 q 142 903 142 889 q 156 917 142 917 q 169 903 169 917 q 156 889 169 889 m 156 836 q 142 850 142 836 q 156 864 142 864 q 169 850 169 864 q 156 836 169 836 m 156 786 q 142 800 142 786 q 156 814 142 814 q 169 800 169 814 q 156 786 169 786 m 156 561 q 142 575 142 561 q 156 589 142 589 q 169 575 169 589 q 156 561 169 561 m 156 63 q 142 76 142 63 q 156 90 142 90 q 169 76 169 90 q 156 63 169 63 m 156 7 q 142 21 142 7 q 156 35 142 35 q 169 21 169 35 q 156 7 169 7 m 225 876 q 211 890 211 876 q 225 904 211 904 q 239 890 239 904 q 225 876 239 876 m 192 918 q 178 932 178 918 q 192 946 178 946 q 206 932 206 946 q 192 918 206 918 m 258 835 q 244 849 244 835 q 258 863 244 863 q 272 849 272 863 q 258 835 272 835 m 292 793 q 278 807 278 793 q 292 821 278 821 q 306 807 306 821 q 292 793 306 793 m 325 751 q 311 765 311 751 q 325 779 311 779 q 339 765 339 779 q 325 751 339 751 m 358 710 q 344 724 344 710 q 358 738 344 738 q 372 724 372 738 q 358 710 372 710 m 392 668 q 378 682 378 668 q 392 696 378 696 q 406 682 406 696 q 392 668 406 668 m 425 626 q 411 640 411 626 q 425 654 411 654 q 439 640 439 654 q 425 626 439 626 m 458 585 q 444 599 444 585 q 458 613 444 613 q 472 599 472 613 q 458 585 472 585 m 492 543 q 478 557 478 543 q 492 571 478 571 q 506 557 506 571 q 492 543 506 543 m 525 501 q 511 515 511 501 q 525 529 511 529 q 539 515 539 529 q 525 501 539 501 m 558 460 q 544 474 544 460 q 558 488 544 488 q 572 474 572 488 q 558 460 572 460 m 592 418 q 578 432 578 418 q 592 446 578 446 q 606 432 606 446 q 592 418 606 418 m 625 376 q 611 390 611 376 q 625 404 611 404 q 639 390 639 404 q 625 376 639 376 m 658 335 q 644 349 644 335 q 658 363 644 363 q 672 349 672 363 q 658 335 672 335 m 692 293 q 678 307 678 293 q 692 321 678 321 q 706 307 706 321 q 692 293 706 293 m 725 251 q 711 265 711 251 q 725 279 711 279 q 739 265 739 279 q 725 251 739 251 m 758 210 q 744 224 744 210 q 758 238 744 238 q 772 224 772 238 q 758 210 772 210 m 792 168 q 778 182 778 168 q 792 196 778 196 q 806 182 806 196 q 792 168 806 168 m 825 126 q 811 140 811 126 q 825 154 811 154 q 839 140 839 154 q 825 126 839 126 m 858 85 q 844 99 844 85 q 858 113 844 113 q 872 99 872 113 q 858 85 872 85 m 892 43 q 878 57 878 43 q 892 71 878 71 q 906 57 906 71 q 892 43 906 43 m 925 289 q 911 303 911 289 q 925 317 911 317 q 939 303 939 317 q 925 289 939 289 m 925 232 q 911 246 911 232 q 925 260 911 260 q 939 246 939 260 q 925 232 939 232 m 925 175 q 911 189 911 175 q 925 203 911 203 q 939 189 939 203 q 925 175 939 175 m 925 118 q 911 132 911 118 q 925 146 911 146 q 939 132 939 146 q 925 118 939 118 m 925 731 q 911 744 911 731 q 925 758 911 758 q 939 744 939 758 q 925 731 939 731 m 925 676 q 911 690 911 676 q 925 704 911 704 q 939 690 939 704 q 925 676 939 676 m 925 617 q 911 631 911 617 q 925 644 911 644 q 939 631 939 644 q 925 617 939 617 m 925 506 q 911 519 911 506 q 925 533 911 533 q 939 519 939 533 q 925 506 939 506 m 925 454 q 911 468 911 454 q 925 482 911 482 q 939 468 939 482 q 925 454 939 454 m 925 399 q 911 413 911 399 q 925 426 911 426 q 939 413 939 426 q 925 399 939 399 m 925 343 q 911 357 911 343 q 925 371 911 371 q 939 357 939 371 q 925 343 939 343 m 925 944 q 911 958 911 944 q 925 972 911 972 q 939 958 939 972 q 925 944 939 944 m 925 889 q 911 903 911 889 q 925 917 911 917 q 939 903 939 917 q 925 889 939 889 m 925 836 q 911 850 911 836 q 925 864 911 864 q 939 850 939 864 q 925 836 939 836 m 925 786 q 911 800 911 786 q 925 814 911 814 q 939 800 939 814 q 925 786 939 786 m 925 561 q 911 575 911 561 q 925 589 911 589 q 939 575 939 589 q 925 561 939 561 m 925 63 q 911 76 911 63 q 925 90 911 90 q 939 76 939 90 q 925 63 939 63 m 925 7 q 911 21 911 7 q 925 35 911 35 q 939 21 939 35 q 925 7 939 7 m 925 -47 q 911 -33 911 -47 q 925 -19 911 -19 q 939 -33 939 -19 q 925 -47 939 -47 m 917 -103 q 903 -89 903 -103 q 917 -75 903 -75 q 931 -89 931 -75 q 917 -103 931 -103 m 892 -156 q 878 -142 878 -156 q 892 -128 878 -128 q 906 -142 906 -128 q 892 -156 906 -156 m 853 -196 q 839 -182 839 -196 q 853 -168 839 -168 q 867 -182 867 -168 q 853 -196 867 -196 m 801 -224 q 788 -210 788 -224 q 801 -196 788 -196 q 815 -210 815 -196 q 801 -224 815 -224 m 635 -199 q 621 -185 621 -199 q 635 -171 621 -171 q 649 -185 649 -171 q 635 -199 649 -199 m 686 -224 q 672 -210 672 -224 q 686 -196 672 -196 q 700 -210 700 -196 q 686 -224 700 -224 m 743 -232 q 729 -218 729 -232 q 743 -204 729 -204 q 757 -218 757 -204 q 743 -232 757 -232 z "}}}
